<svg xmlns="http://www.w3.org/2000/svg" width="16" height="16" viewBox="0 0 16 16">
  <path fill-rule="evenodd" d="M8,0 C12.418278,0 16,3.581722 16,8 C16,12.418278 12.418278,16 8,16 C3.581722,16 0,12.418278 0,8 C0,3.581722 3.581722,0 8,0 Z M5.46446609,4.05025253 C5.0739418,3.65972824 4.44077682,3.65972824 4.05025253,4.05025253 C3.65972824,4.44077682 3.65972824,5.0739418 4.05025253,5.46446609 L4.05025253,5.46446609 L6.58578644,8 L4.05025253,10.5355339 C3.65972824,10.9260582 3.65972824,11.5592232 4.05025253,11.9497475 C4.44077682,12.3402718 5.0739418,12.3402718 5.46446609,11.9497475 L5.46446609,11.9497475 L8,9.41421356 L10.5355339,11.9497475 C10.9260582,12.3402718 11.5592232,12.3402718 11.9497475,11.9497475 C12.3402718,11.5592232 12.3402718,10.9260582 11.9497475,10.5355339 L11.9497475,10.5355339 L9.41421356,8 L11.9497475,5.46446609 C12.3402718,5.0739418 12.3402718,4.44077682 11.9497475,4.05025253 C11.5592232,3.65972824 10.9260582,3.65972824 10.5355339,4.05025253 L10.5355339,4.05025253 L8,6.58578644 Z"/>
</svg>
