<svg width="16" height="16" viewBox="0 0 16 16" fill="none" xmlns="http://www.w3.org/2000/svg">
<path fill-rule="evenodd" clip-rule="evenodd" d="M10.4393 6.23223C10.6346 6.4275 10.9512 6.4275 11.1464 6.23223L11.4393 5.93934C11.6346 5.74408 11.6346 5.4275 11.4393 5.23223L8.5 2.29289C8.10948 1.90237 7.47631 1.90237 7.08579 2.29289L4.14645 5.23223C3.95118 5.4275 3.95118 5.74408 4.14645 5.93934L4.43934 6.23223C4.6346 6.4275 4.95118 6.4275 5.14645 6.23223L7.43934 3.93934C7.6346 3.74408 7.95118 3.74408 8.14645 3.93934L10.4393 6.23223ZM5.14645 8.93934C4.95118 8.74408 4.6346 8.74408 4.43934 8.93934L4.14645 9.23223C3.95118 9.4275 3.95118 9.74408 4.14645 9.93934L7.08579 12.8787C7.47631 13.2692 8.10948 13.2692 8.5 12.8787L11.4393 9.93934C11.6346 9.74408 11.6346 9.4275 11.4393 9.23223L11.1464 8.93934C10.9512 8.74408 10.6346 8.74408 10.4393 8.93934L8.14645 11.2322C7.95118 11.4275 7.6346 11.4275 7.43934 11.2322L5.14645 8.93934Z" fill="#262626"/>
</svg>
