<svg width="240" height="240" viewBox="0 0 240 240" fill="none" xmlns="http://www.w3.org/2000/svg">
<path d="M143.76 210.682H92.0256V227.227H143.76V210.682Z" fill="#90C6EB"/>
<path d="M92.0256 227.225V210.682H143.762V227.225" stroke="#264887" stroke-width="2" stroke-linecap="round" stroke-linejoin="round"/>
<path d="M71.1888 139.03C69.7827 139.031 68.4112 138.594 67.2648 137.779C55.4461 128.753 45.7906 117.202 39.0024 103.971C38.6007 103.172 38.3603 102.302 38.2948 101.41C38.2293 100.519 38.3401 99.6231 38.6208 98.7743C38.9014 97.9255 39.3466 97.1404 39.9307 96.4636C40.5148 95.7869 41.2265 95.2318 42.0252 94.8302C43.6381 94.0189 45.5073 93.8816 47.2214 94.4485C48.9356 95.0154 50.3544 96.24 51.1656 97.853C56.9801 109.082 65.1619 118.917 75.1464 126.677C76.3218 127.515 77.2004 128.705 77.6554 130.075C78.1104 131.445 78.1183 132.924 77.6779 134.298C77.2374 135.673 76.3715 136.872 75.2052 137.723C74.0388 138.573 72.6323 139.031 71.1888 139.03Z" fill="#F1F7FB" stroke="#264887" stroke-width="2" stroke-linecap="round" stroke-linejoin="round"/>
<path d="M138.163 145.258C137.258 145.275 136.359 145.111 135.519 144.777C134.678 144.442 133.912 143.944 133.266 143.31C132.62 142.676 132.107 141.92 131.757 141.085C131.407 140.251 131.227 139.355 131.227 138.45C131.227 137.545 131.407 136.649 131.757 135.815C132.107 134.981 132.62 134.224 133.266 133.591C133.912 132.957 134.678 132.458 135.519 132.124C136.359 131.789 137.258 131.626 138.163 131.643H146.177C150.132 131.641 154.043 130.818 157.663 129.225C161.283 127.633 164.532 125.305 167.205 122.39C169.878 119.475 171.915 116.036 173.189 112.292C174.462 108.547 174.944 104.579 174.602 100.639L172.992 82.2986C172.866 80.5098 173.45 78.7434 174.618 77.3829C175.787 76.0225 177.445 75.1778 179.232 75.0324C181.019 74.8871 182.792 75.4526 184.165 76.6064C185.537 77.7601 186.4 79.4089 186.564 81.1946L188.17 99.5018C188.668 105.319 187.952 111.177 186.067 116.704C184.183 122.23 181.171 127.305 177.222 131.606C173.273 135.908 168.474 139.342 163.129 141.692C157.784 144.041 152.009 145.255 146.17 145.255L138.163 145.258Z" fill="#F1F7FB" stroke="#264887" stroke-width="2" stroke-linecap="round" stroke-linejoin="round"/>
<path d="M143.772 129.492H92.028V210.679H143.772V129.492Z" fill="white"/>
<path d="M143.772 129.492H92.028V136.236H143.772V129.492Z" fill="#ECF5FB"/>
<path d="M89.04 129.492H92.016V148.236C92.016 147.6 91.7632 146.989 91.3131 146.539C90.863 146.089 90.2525 145.836 89.616 145.836H89.04C77.9896 145.822 67.3553 141.619 59.28 134.076L72.216 123.66C76.9945 127.466 82.9309 129.524 89.04 129.492Z" fill="#D32D27"/>
<path d="M176.484 134.076C168.419 141.62 157.791 145.823 146.748 145.836H146.172C145.535 145.836 144.925 146.089 144.475 146.539C144.025 146.989 143.772 147.6 143.772 148.236V129.492H146.724C152.841 129.528 158.786 127.47 163.572 123.66L176.484 134.076Z" fill="#D32D27"/>
<path d="M134.626 132.72C134.626 141.864 127.212 146.88 118.066 146.88C108.919 146.88 101.506 141.869 101.506 132.72V129.519H134.626V132.72Z" fill="#D32D27"/>
<path d="M134.64 129.516V132.72C134.643 133.809 134.53 134.895 134.304 135.96V135.984H101.844V135.96C101.618 134.895 101.505 133.809 101.508 132.72V129.528L134.64 129.516Z" fill="#E78C89"/>
<path d="M72.24 123.66L68.592 126.586C71.1187 129.537 74.2577 131.903 77.7908 133.52C81.324 135.136 85.1667 135.964 89.052 135.946H92.028V129.49H89.04C82.9395 129.517 77.0124 127.46 72.24 123.66Z" fill="#E78C89"/>
<path d="M146.724 129.492H143.772V135.948H146.724C150.612 135.968 154.457 135.141 157.993 133.525C161.529 131.908 164.67 129.541 167.198 126.588L163.572 123.663C158.786 127.472 152.841 129.529 146.724 129.492Z" fill="#E78C89"/>
<path d="M89.04 129.492H92.016V148.236C92.016 147.6 91.7632 146.989 91.3131 146.539C90.863 146.089 90.2525 145.836 89.616 145.836H89.04C77.9896 145.822 67.3553 141.619 59.28 134.076L72.216 123.66C76.9945 127.466 82.9309 129.524 89.04 129.492V129.492Z" stroke="#264887" stroke-width="2" stroke-linecap="round" stroke-linejoin="round"/>
<path d="M176.484 134.076C168.419 141.62 157.791 145.823 146.748 145.836H146.172C145.535 145.836 144.925 146.089 144.475 146.539C144.025 146.989 143.772 147.6 143.772 148.236V129.492H146.724C152.841 129.528 158.786 127.47 163.572 123.66L176.484 134.076Z" stroke="#264887" stroke-width="2" stroke-linecap="round" stroke-linejoin="round"/>
<path d="M134.626 132.72C134.626 141.864 127.212 146.88 118.066 146.88C108.919 146.88 101.506 141.869 101.506 132.72V129.519H134.626V132.72Z" stroke="#264887" stroke-width="2" stroke-linecap="round" stroke-linejoin="round"/>
<path d="M89.0592 129.499C82.9457 129.529 77.0052 127.471 72.2208 123.665L59.3016 134.067C67.3735 141.617 78.009 145.824 89.0616 145.839H89.64C90.2766 145.839 90.887 146.092 91.3371 146.542C91.7872 146.992 92.04 147.602 92.04 148.239V210.672H143.76V148.239C143.76 147.602 144.013 146.992 144.463 146.542C144.913 146.092 145.524 145.839 146.16 145.839H146.738C157.791 145.825 168.427 141.618 176.498 134.067L163.579 123.665C158.796 127.471 152.856 129.53 146.743 129.499H89.0592Z" stroke="#264887" stroke-width="2" stroke-linecap="round" stroke-linejoin="round" stroke-dasharray="100 7 3 5"/>
<path d="M127.423 136.32C126.172 137.572 124.686 138.564 123.051 139.242C121.416 139.919 119.664 140.268 117.894 140.268C116.124 140.268 114.372 139.919 112.737 139.242C111.102 138.564 109.616 137.572 108.365 136.32V121.344H127.423V136.32Z" fill="#F1F7FB"/>
<path d="M108.365 130.824C114.581 132.69 121.207 132.69 127.423 130.824V121.332H108.365V130.824Z" fill="#DAECF8"/>
<path d="M127.423 136.32C126.172 137.572 124.686 138.564 123.051 139.242C121.416 139.919 119.664 140.268 117.894 140.268C116.124 140.268 114.372 139.919 112.737 139.242C111.102 138.564 109.616 137.572 108.365 136.32V121.344H127.423V136.32Z" stroke="#264887" stroke-width="2" stroke-linecap="round" stroke-linejoin="round"/>
<path d="M145.2 92.6595V85.8363C145.234 82.2305 144.553 78.6537 143.196 75.3125C141.84 71.9714 139.835 68.9322 137.297 66.3704C134.759 63.8087 131.739 61.7752 128.41 60.3874C125.082 58.9997 121.512 58.2852 117.906 58.2852C114.3 58.2852 110.73 58.9997 107.401 60.3874C104.073 61.7752 101.053 63.8087 98.515 66.3704C95.9772 68.9322 93.9721 71.9714 92.6156 75.3125C91.2591 78.6537 90.5781 82.2305 90.6119 85.8363V92.6595C89.8855 92.6443 89.1632 92.7742 88.4876 93.0417C87.812 93.3092 87.1965 93.7088 86.6774 94.2172C86.1582 94.7256 85.7457 95.3326 85.4641 96.0024C85.1825 96.6723 85.0375 97.3917 85.0375 98.1183C85.0375 98.845 85.1825 99.5643 85.4641 100.234C85.7457 100.904 86.1582 101.511 86.6774 102.019C87.1965 102.528 87.812 102.927 88.4876 103.195C89.1632 103.462 89.8855 103.592 90.6119 103.577C90.7247 103.577 90.8327 103.551 90.9455 103.544C91.9101 110.004 95.1625 115.903 100.111 120.168C105.059 124.432 111.374 126.778 117.906 126.778C124.438 126.778 130.753 124.432 135.701 120.168C140.649 115.903 143.902 110.004 144.866 103.544C144.979 103.544 145.085 103.577 145.2 103.577C145.926 103.592 146.649 103.462 147.324 103.195C148 102.927 148.615 102.528 149.135 102.019C149.654 101.511 150.066 100.904 150.348 100.234C150.629 99.5643 150.774 98.845 150.774 98.1183C150.774 97.3917 150.629 96.6723 150.348 96.0024C150.066 95.3326 149.654 94.7256 149.135 94.2172C148.615 93.7088 148 93.3092 147.324 93.0417C146.649 92.7742 145.926 92.6443 145.2 92.6595Z" fill="#F1F7FB" stroke="#264887" stroke-width="2" stroke-linecap="round" stroke-linejoin="round" stroke-dasharray="100 7 3 5"/>
<path d="M102.202 107.674C104.086 107.674 105.614 106.146 105.614 104.261C105.614 102.376 104.086 100.848 102.202 100.848C100.317 100.848 98.7888 102.376 98.7888 104.261C98.7888 106.146 100.317 107.674 102.202 107.674Z" fill="#E78C89"/>
<path d="M133.591 107.674C135.476 107.674 137.004 106.146 137.004 104.261C137.004 102.376 135.476 100.848 133.591 100.848C131.706 100.848 130.178 102.376 130.178 104.261C130.178 106.146 131.706 107.674 133.591 107.674Z" fill="#E78C89"/>
<path d="M111.072 95.3906C110.735 94.5822 110.167 93.8914 109.438 93.4056C108.71 92.9197 107.853 92.6604 106.978 92.6604C106.102 92.6604 105.246 92.9197 104.517 93.4056C103.788 93.8914 103.22 94.5822 102.883 95.3906" stroke="#264887" stroke-width="2" stroke-linecap="round" stroke-linejoin="round" stroke-dasharray="100 7 3 5"/>
<path d="M132.907 95.3909C132.571 94.5822 132.003 93.8912 131.274 93.4052C130.546 92.9191 129.69 92.6597 128.814 92.6597C127.938 92.6597 127.082 92.9191 126.354 93.4052C125.625 93.8912 125.057 94.5822 124.721 95.3909" stroke="#264887" stroke-width="2" stroke-linecap="round" stroke-linejoin="round" stroke-dasharray="100 7 3 5"/>
<path d="M126.084 111.192C123.886 113.313 120.951 114.498 117.896 114.498C114.842 114.498 111.907 113.313 109.709 111.192" stroke="#264887" stroke-width="2" stroke-linecap="round" stroke-linejoin="round" stroke-dasharray="100 7 3 5"/>
<path d="M133.877 59.9306C133.265 59.8999 132.682 59.664 132.221 59.261C127.577 55.0276 121.444 52.8063 115.166 53.0834C111.044 53.0834 106.962 53.8956 103.153 55.4736C99.3441 57.0515 95.8836 59.3643 92.9689 62.2799C90.0542 65.1955 87.7424 68.6568 86.1656 72.4659C84.5888 76.2751 83.7779 80.3576 83.7792 84.4803V98.1267C83.7756 102.139 85.225 106.017 87.8592 109.044V112.589C87.8591 115.002 88.3394 117.39 89.2718 119.615C90.2043 121.84 91.5703 123.857 93.2904 125.549C93.4057 125.662 93.5516 125.738 93.7099 125.768C93.8683 125.798 94.032 125.781 94.1807 125.719C94.3294 125.657 94.4565 125.552 94.5462 125.418C94.6358 125.284 94.684 125.127 94.6848 124.966V89.9259C94.6848 89.2021 94.9723 88.508 95.484 87.9963C95.9958 87.4846 96.6899 87.1971 97.4136 87.1971H138.367C139.091 87.1971 139.785 87.4846 140.297 87.9963C140.808 88.508 141.096 89.2021 141.096 89.9259V124.966C141.097 125.127 141.145 125.284 141.235 125.418C141.324 125.552 141.451 125.657 141.6 125.719C141.749 125.781 141.913 125.798 142.071 125.768C142.229 125.738 142.375 125.662 142.49 125.549C144.21 123.857 145.576 121.84 146.508 119.615C147.44 117.39 147.92 115.001 147.919 112.589V109.037C150.558 106.012 152.012 102.134 152.014 98.1195V79.0131C152.014 74.1135 150.132 69.4011 146.756 65.8497C143.381 62.2983 138.77 60.1793 133.877 59.9306Z" fill="#90C6EB"/>
<path d="M133.877 59.9306C133.265 59.8999 132.682 59.664 132.221 59.261C127.577 55.0275 121.444 52.8063 115.166 53.0834C111.044 53.0834 106.961 53.8956 103.153 55.4736C99.3441 57.0515 95.8836 59.3643 92.9689 62.2799C90.0542 65.1955 87.7424 68.6568 86.1656 72.4659C84.5888 76.2751 83.7779 80.3576 83.7792 84.4802V95.3978C83.7782 91.2753 84.5894 87.193 86.1663 83.3839C87.7432 79.5749 90.0549 76.1138 92.9696 73.1982C95.8842 70.2827 99.3446 67.9699 103.153 66.3918C106.962 64.8137 111.044 64.0014 115.166 64.001C121.445 63.7222 127.578 65.9446 132.221 70.181C132.683 70.5824 133.266 70.8173 133.877 70.8482C138.77 71.0975 143.38 73.2166 146.756 76.7679C150.131 80.3192 152.013 85.0312 152.014 89.9306V79.013C152.014 74.1135 150.132 69.4011 146.756 65.8497C143.381 62.2983 138.77 60.1793 133.877 59.9306Z" fill="#DAECF8"/>
<path d="M133.877 59.9306C133.265 59.8999 132.682 59.664 132.221 59.261C127.577 55.0276 121.444 52.8063 115.166 53.0834C111.044 53.0834 106.961 53.8956 103.153 55.4736C99.3441 57.0515 95.8836 59.3643 92.9689 62.2799C90.0542 65.1955 87.7424 68.6568 86.1656 72.4659C84.5888 76.2751 83.7779 80.3576 83.7792 84.4803V98.1267C83.7756 102.139 85.225 106.017 87.8592 109.044V112.589C87.8591 115.002 88.3394 117.39 89.2718 119.615C90.2043 121.84 91.5703 123.857 93.2904 125.549C93.4057 125.662 93.5516 125.738 93.7099 125.768C93.8683 125.798 94.032 125.781 94.1807 125.719C94.3294 125.657 94.4565 125.552 94.5462 125.418C94.6358 125.284 94.684 125.127 94.6848 124.966V89.9259C94.6848 89.2021 94.9723 88.5081 95.484 87.9963C95.9958 87.4846 96.6899 87.1971 97.4136 87.1971H138.367C139.091 87.1971 139.785 87.4846 140.297 87.9963C140.808 88.5081 141.096 89.2021 141.096 89.9259V124.966C141.097 125.127 141.145 125.284 141.235 125.418C141.324 125.552 141.451 125.657 141.6 125.719C141.749 125.781 141.913 125.798 142.071 125.768C142.229 125.738 142.375 125.662 142.49 125.549C144.21 123.857 145.576 121.84 146.508 119.615C147.44 117.39 147.92 115.001 147.919 112.589V109.037C150.558 106.012 152.012 102.134 152.014 98.1195V79.0131C152.014 74.1135 150.132 69.4011 146.756 65.8497C143.381 62.2983 138.77 60.1793 133.877 59.9306V59.9306Z" stroke="#264887" stroke-width="2" stroke-linecap="round" stroke-linejoin="round" stroke-dasharray="100 7 3 5"/>
<path d="M98.4528 72.1874C95.769 75.6517 94.0663 79.7741 93.5232 84.1226C93.4772 84.5075 93.5131 84.8978 93.6284 85.2679C93.7437 85.638 93.9359 85.9796 94.1924 86.2703C94.4489 86.561 94.7638 86.7942 95.1167 86.9547C95.4696 87.1153 95.8524 87.1994 96.24 87.2018H139.541C139.93 87.2012 140.314 87.1182 140.669 86.9583C141.023 86.7983 141.34 86.5651 141.597 86.274C141.855 85.9828 142.048 85.6403 142.164 85.2691C142.28 84.8979 142.316 84.5063 142.27 84.1202C141.726 79.7695 140.022 75.6453 137.335 72.1802" stroke="#264887" stroke-width="2" stroke-linecap="round" stroke-linejoin="round" stroke-dasharray="100 7 3 5"/>
<path d="M147.919 109.037V89.9304" stroke="#264887" stroke-width="2" stroke-linecap="round" stroke-linejoin="round" stroke-dasharray="100 7 3 5"/>
<path d="M87.8711 89.9304V109.037" stroke="#264887" stroke-width="2" stroke-linecap="round" stroke-linejoin="round" stroke-dasharray="100 7 3 5"/>
<path d="M145.186 12.7754L196.726 82.9994L184.687 95.0402L114.461 43.4978L145.186 12.7754Z" fill="#FAE8A7" stroke="#264887" stroke-width="2" stroke-linecap="round" stroke-linejoin="round" stroke-dasharray="100 7 3 3"/>
<path d="M202.52 77.2055L178.892 100.834C177.997 101.728 177.997 103.177 178.892 104.072L180.175 105.355C181.069 106.249 182.518 106.249 183.413 105.355L207.041 81.7265C207.935 80.8323 207.935 79.3826 207.041 78.4885L205.758 77.2055C204.864 76.3114 203.414 76.3114 202.52 77.2055Z" fill="#FBEFC3" stroke="#264887" stroke-width="2" stroke-linecap="round" stroke-linejoin="round"/>
<path d="M118.62 16.913L133.44 24.5186L145.186 12.7754L142.589 29.1674L156.331 37.745L140.986 39.2978L139.433 54.6458L130.853 40.9682L114.461 43.4978L126.197 31.7618L118.62 16.913Z" fill="#FBEFC3"/>
<path d="M156.331 37.7451L192.547 87.1779L188.866 90.8619L139.433 54.6459L140.986 39.2979L156.331 37.7451Z" fill="#FAE8A7" stroke="#264887" stroke-width="2" stroke-linecap="round" stroke-linejoin="round"/>
<path d="M140.986 39.2979L190.706 89.0186" stroke="#264887" stroke-width="2" stroke-linecap="round" stroke-linejoin="round"/>
<path d="M184.181 64.0538C183.655 63.7952 183.059 63.7137 182.483 63.8214C181.907 63.9291 181.381 64.2203 180.984 64.6514L176.731 69.2738C175.563 70.5468 174.948 72.2313 175.021 73.9574C175.094 75.6835 175.849 77.3102 177.12 78.4802L179.52 80.6858C180.792 81.8557 182.477 82.4725 184.204 82.4005C185.931 82.3285 187.558 81.5736 188.729 80.3018L192.982 75.6794C193.378 75.2479 193.625 74.6996 193.684 74.1165C193.743 73.5333 193.612 72.9466 193.31 72.4442C191.137 68.8281 187.967 65.9151 184.181 64.0538Z" fill="#F1F7FB"/>
<path d="M193.306 72.4489C191.136 68.8306 187.97 65.9143 184.186 64.0489C183.659 63.7903 183.064 63.7088 182.488 63.8165C181.912 63.9242 181.386 64.2154 180.989 64.6465L178.721 67.1113C179.146 67.1117 179.566 67.205 179.952 67.3849C184.127 69.4396 187.622 72.6543 190.018 76.6441C190.343 77.1886 190.487 77.822 190.43 78.4537L192.981 75.6793C193.376 75.2477 193.621 74.7 193.68 74.1179C193.738 73.5358 193.607 72.9504 193.306 72.4489Z" fill="#DAECF8"/>
<path d="M184.178 64.0538C183.652 63.7952 183.056 63.7138 182.48 63.822C181.904 63.9301 181.378 64.222 180.982 64.6538L176.731 69.2738C175.563 70.5468 174.948 72.2313 175.021 73.9575C175.094 75.6836 175.849 77.3102 177.12 78.4802L179.52 80.6858C180.792 81.8558 182.477 82.4726 184.204 82.4006C185.931 82.3286 187.558 81.5736 188.729 80.3018L192.979 75.6818C193.376 75.2506 193.623 74.7025 193.683 74.1193C193.743 73.5362 193.612 72.9493 193.31 72.4466C191.141 68.8283 187.974 65.9119 184.19 64.0466L184.178 64.0538Z" stroke="#264887" stroke-width="2" stroke-linecap="round" stroke-linejoin="round"/>
<path d="M132.883 44.2035L130.853 40.9683L114.461 43.4979L126.197 31.7619L118.62 16.9131L132.881 24.2355L132.883 44.2035Z" fill="#FAF4DE"/>
<path d="M118.62 16.913L133.44 24.5186L145.186 12.7754L142.589 29.1674L156.331 37.745L140.986 39.2978L139.433 54.6458L130.853 40.9682L114.461 43.4978L126.197 31.7618L118.62 16.913Z" stroke="#264887" stroke-width="2" stroke-linecap="round" stroke-linejoin="round"/>
<path d="M144.754 54.3986C143.414 56.5123 141.575 58.2638 139.399 59.4986C137.222 60.7333 134.775 61.4133 132.274 61.4785L127.848 53.6738C130.349 53.6079 132.796 52.9277 134.973 51.693C137.149 50.4583 138.988 48.7071 140.328 46.5938L144.754 54.3986Z" fill="#FAF4DE" stroke="#264887" stroke-width="2" stroke-linecap="round" stroke-linejoin="round"/>
<path d="M97.3656 42.5977C98.2648 44.9341 98.575 47.456 98.2686 49.9406C97.9622 52.4252 97.0487 54.7962 95.6088 56.8441L86.7024 55.7449C88.1425 53.6971 89.0563 51.3263 89.3631 48.8417C89.6699 46.3571 89.3603 43.8351 88.4616 41.4985L97.3656 42.5977Z" fill="#FAE8A7" stroke="#264887" stroke-width="2" stroke-linecap="round" stroke-linejoin="round"/>
<path d="M59.6354 90.372C58.0202 88.4594 56.9001 86.1788 56.374 83.7312C55.848 81.2837 55.9319 78.7443 56.6186 76.3368L65.3906 74.4504C64.7026 76.8573 64.6172 79.3964 65.142 81.844C65.6669 84.2916 66.7858 86.5725 68.4002 88.4856L59.6354 90.372Z" fill="#FAF4DE" stroke="#264887" stroke-width="2" stroke-linecap="round" stroke-linejoin="round"/>
<path d="M189.747 196.608C188.129 194.697 187.006 192.417 186.478 189.969C185.95 187.521 186.034 184.981 186.72 182.573L195.492 180.687C194.805 183.095 194.721 185.634 195.247 188.082C195.773 190.53 196.894 192.811 198.509 194.724L189.747 196.608Z" fill="#FAE8A7" stroke="#264887" stroke-width="2" stroke-linecap="round" stroke-linejoin="round"/>
<path d="M88.9586 186.185C91.2264 187.245 93.1985 188.847 94.7007 190.85C96.2029 192.853 97.189 195.195 97.5722 197.669L90.3962 203.054C90.013 200.58 89.0265 198.238 87.5239 196.235C86.0212 194.232 84.0486 192.63 81.7802 191.57L88.9586 186.185Z" fill="#FAE8A7" stroke="#264887" stroke-width="2" stroke-linecap="round" stroke-linejoin="round"/>
<path d="M165.463 120.144C163.195 121.204 161.223 122.806 159.721 124.809C158.218 126.812 157.232 129.154 156.85 131.628L164.026 137.011C164.409 134.537 165.396 132.195 166.898 130.192C168.401 128.19 170.373 126.587 172.642 125.527L165.463 120.144Z" fill="#FBEFC3" stroke="#264887" stroke-width="2" stroke-linecap="round" stroke-linejoin="round"/>
<path d="M157.615 159.243C159.908 160.25 161.917 161.805 163.465 163.773C165.014 165.74 166.055 168.058 166.495 170.523L159.447 176.071C159.006 173.607 157.965 171.289 156.416 169.322C154.868 167.355 152.859 165.799 150.567 164.791L157.615 159.243Z" fill="#FBEFC3" stroke="#264887" stroke-width="2" stroke-linecap="round" stroke-linejoin="round"/>
<path d="M32.5945 177.36C32.8904 179.846 33.7938 182.222 35.2248 184.276C36.6558 186.331 38.5706 188.002 40.8001 189.142L48.1681 184.008C45.9376 182.871 44.0216 181.201 42.5892 179.148C41.1569 177.094 40.2523 174.72 39.9553 172.234L32.5945 177.36Z" fill="#FAE8A7" stroke="#264887" stroke-width="2" stroke-linecap="round" stroke-linejoin="round"/>
<path d="M45.9265 118.423C43.8368 119.802 41.4402 120.645 38.9478 120.879C36.4554 121.112 33.9438 120.729 31.6345 119.763L30.7969 110.827C33.1059 111.795 35.6177 112.179 38.1104 111.945C40.603 111.712 42.9997 110.868 45.0889 109.488L45.9265 118.423Z" fill="#FBEFC3" stroke="#264887" stroke-width="2" stroke-linecap="round" stroke-linejoin="round"/>
<path d="M210.672 143.928C208.582 145.307 206.186 146.15 203.693 146.383C201.201 146.617 198.689 146.234 196.38 145.267L195.542 136.335C197.852 137.301 200.364 137.684 202.857 137.45C205.35 137.217 207.747 136.374 209.837 134.995L210.672 143.928Z" fill="#FAF4DE" stroke="#264887" stroke-width="2" stroke-linecap="round" stroke-linejoin="round"/>
<path d="M166.32 105.783C163.849 106.188 161.317 105.98 158.946 105.175C156.575 104.37 154.439 102.993 152.726 101.167L155.606 92.6714C157.32 94.4969 159.456 95.8728 161.827 96.6777C164.197 97.4826 166.729 97.6917 169.2 97.2866L166.32 105.783Z" fill="#FBEFC3" stroke="#264887" stroke-width="2" stroke-linecap="round" stroke-linejoin="round"/>
<path d="M54.1584 153.31C54.694 150.864 55.8234 148.588 57.4471 146.682C59.0707 144.776 61.1385 143.3 63.468 142.382L70.2984 148.2C67.9702 149.117 65.9034 150.593 64.2799 152.497C62.6565 154.402 61.5262 156.676 60.9888 159.12L54.1584 153.31Z" fill="#FBEFC3" stroke="#264887" stroke-width="2" stroke-linecap="round" stroke-linejoin="round"/>
<g clip-path="url(#clip0)">
<rect x="102.4" y="155.6" width="32" height="32" rx="2" fill="#D32D27"/>
<path fill-rule="evenodd" clip-rule="evenodd" d="M129.416 165.829C129.416 165.395 129.769 165.042 130.203 165.042C130.638 165.042 130.99 165.395 130.99 165.829V177.37C130.99 177.805 130.638 178.157 130.203 178.157C129.769 178.157 129.416 177.805 129.416 177.37V165.829Z" fill="white"/>
<path fill-rule="evenodd" clip-rule="evenodd" d="M108.171 173.961C109.474 173.961 110.531 172.904 110.531 171.6C110.531 170.297 109.474 169.24 108.171 169.24C106.867 169.24 105.81 170.297 105.81 171.6C105.81 172.904 106.867 173.961 108.171 173.961Z" fill="white"/>
<path fill-rule="evenodd" clip-rule="evenodd" d="M116.039 173.961C117.343 173.961 118.4 172.904 118.4 171.6C118.4 170.297 117.343 169.24 116.039 169.24C114.735 169.24 113.679 170.297 113.679 171.6C113.679 172.904 114.735 173.961 116.039 173.961Z" fill="white"/>
<path fill-rule="evenodd" clip-rule="evenodd" d="M123.908 173.961C125.212 173.961 126.269 172.904 126.269 171.6C126.269 170.297 125.212 169.24 123.908 169.24C122.604 169.24 121.547 170.297 121.547 171.6C121.547 172.904 122.604 173.961 123.908 173.961Z" fill="white"/>
</g>
<defs>
<clipPath id="clip0">
<rect width="32" height="32" fill="white" transform="translate(102.4 155.6)"/>
</clipPath>
</defs>
</svg>
