<svg width="148" height="76" viewBox="0 0 148 76" fill="none" xmlns="http://www.w3.org/2000/svg">
<rect width="4.48016" height="4.48016" transform="matrix(0.717792 -0.696257 0.717792 0.696257 122.388 63.4792)" stroke="#E78C89" stroke-width="1.79259" stroke-linecap="round" stroke-linejoin="round"/>
<path fill-rule="evenodd" clip-rule="evenodd" d="M16.3156 52.1207C17.5715 52.1207 18.5895 51.1331 18.5895 49.915C18.5895 48.6968 17.5715 47.7092 16.3156 47.7092C15.0598 47.7092 14.0417 48.6968 14.0417 49.915C14.0417 51.1331 15.0598 52.1207 16.3156 52.1207Z" stroke="#E78C89" stroke-width="1.79259" stroke-linecap="round" stroke-linejoin="round"/>
<path fill-rule="evenodd" clip-rule="evenodd" d="M144.726 37.524C145.982 37.524 147 36.5365 147 35.3183C147 34.1001 145.982 33.1125 144.726 33.1125C143.47 33.1125 142.452 34.1001 142.452 35.3183C142.452 36.5365 143.47 37.524 144.726 37.524Z" stroke="#E78C89" stroke-width="1.79259" stroke-linecap="round" stroke-linejoin="round"/>
<rect x="26.0801" y="8.78491" width="4.54786" height="4.41144" stroke="#E78C89" stroke-width="1.79259" stroke-linecap="round" stroke-linejoin="round"/>
<path d="M123.547 6.98929L127.088 10.4249" stroke="#E78C89" stroke-width="1.79259" stroke-linecap="round" stroke-linejoin="round"/>
<path d="M126.964 6.98929L123.422 10.4249" stroke="#E78C89" stroke-width="1.79259" stroke-linecap="round" stroke-linejoin="round"/>
<path d="M1.15532 22.5591L4.69725 25.9948" stroke="#E78C89" stroke-width="1.79259" stroke-linecap="round" stroke-linejoin="round"/>
<path d="M4.5724 22.5591L1.03051 25.9948" stroke="#E78C89" stroke-width="1.79259" stroke-linecap="round" stroke-linejoin="round"/>
<path d="M74 74.6429C94.2373 74.6429 110.643 58.2373 110.643 38C110.643 17.7627 94.2373 1.35718 74 1.35718C53.7627 1.35718 37.3571 17.7627 37.3571 38C37.3571 58.2373 53.7627 74.6429 74 74.6429Z" fill="#E78C89" stroke="#264887" stroke-width="2"/>
<path d="M95.5982 57.4709L95.6326 57.5303C95.7333 57.7283 95.7818 57.9491 95.7728 58.1718C95.7629 58.4185 95.683 58.6574 95.5424 58.8604C95.4017 59.0635 95.2061 59.2222 94.9786 59.3182C94.7512 59.414 94.5006 59.4431 94.2573 59.4022L89.5237 58.6008L88.9661 58.5064L88.7728 59.0378L87.1261 63.5642L87.1255 63.5659C87.0418 63.7977 86.8941 64.001 86.6994 64.1521C86.5048 64.3031 86.2711 64.3958 86.0258 64.4192C85.7805 64.4426 85.5336 64.396 85.3137 64.2844C85.0943 64.1731 84.9104 64.0009 84.7845 63.7896L80.9885 57.3643C85.0521 55.8488 88.5474 53.114 90.9958 49.5356L95.5982 57.4709Z" fill="#6CB4E4" stroke="#264887"/>
<path d="M56.4079 49.4854C58.8482 53.0739 62.3395 55.8206 66.403 57.3477L62.5969 63.7892C62.4712 64.0008 62.288 64.1732 62.0687 64.285C61.8493 64.3968 61.6025 64.4441 61.3573 64.4211C61.1119 64.3982 60.8782 64.3062 60.6833 64.1557C60.4883 64.0051 60.3401 63.8023 60.2558 63.5707L58.6072 59.0424L58.4138 58.511L57.8563 58.6054L53.1243 59.4069C52.881 59.4479 52.6307 59.419 52.4033 59.3233C52.1757 59.2275 51.9801 59.0688 51.8392 58.8661C51.6985 58.6632 51.6184 58.4244 51.6083 58.1777C51.5982 57.9311 51.6585 57.6867 51.7821 57.4731L56.4079 49.4854Z" fill="#6CB4E4" stroke="#264887"/>
<path d="M73.6743 20.3572C70.2493 20.3572 66.9012 21.3729 64.0534 23.2756C61.2057 25.1784 58.9861 27.8831 57.6753 31.0474C56.3646 34.2116 56.0217 37.6935 56.6899 41.0527C57.358 44.4119 59.0074 47.4976 61.4292 49.9194C63.851 52.3412 66.9368 53.9906 70.2958 54.6587C73.655 55.327 77.137 54.984 80.3012 53.6733C83.4655 52.3625 86.1702 50.1429 88.0729 47.2952C89.9757 44.4474 90.9914 41.0993 90.9914 37.6743C90.9861 33.0831 89.16 28.6816 85.9134 25.4351C82.667 22.1886 78.2655 20.3625 73.6743 20.3572ZM81.381 45.8905C81.4863 46.1444 81.5093 46.4249 81.4471 46.6927C81.3848 46.9604 81.2402 47.2019 81.0337 47.3833C80.8271 47.5648 80.569 47.6769 80.2955 47.7042C80.0219 47.7313 79.7467 47.6723 79.5085 47.5351L73.9491 44.4068C73.8656 44.3596 73.7713 44.3348 73.6754 44.3348C73.5794 44.3348 73.4852 44.3596 73.4016 44.4068L67.8424 47.5351C67.6041 47.6723 67.329 47.7313 67.0554 47.7042C66.7818 47.6769 66.5236 47.5648 66.3171 47.3833C66.1105 47.2019 65.966 46.9604 65.9037 46.6927C65.8414 46.4249 65.8646 46.1444 65.9698 45.8905L68.2311 40.6908C68.2768 40.5874 68.2897 40.4723 68.2681 40.3613C68.2467 40.2503 68.1916 40.1485 68.1104 40.0697L64.0281 36.0477C63.8381 35.8799 63.7049 35.6575 63.6465 35.4109C63.5881 35.1643 63.6075 34.9056 63.702 34.6706C63.7966 34.4355 63.9616 34.2355 64.1744 34.0978C64.3872 33.9604 64.6375 33.8921 64.8906 33.9026H69.5539C69.6604 33.9031 69.7648 33.873 69.8547 33.816C69.9446 33.759 70.0162 33.6773 70.0612 33.5808L72.4922 28.3455C72.6036 28.1282 72.7729 27.9459 72.9812 27.8186C73.1897 27.6913 73.4291 27.624 73.6732 27.624C73.9174 27.624 74.1568 27.6913 74.3651 27.8186C74.5734 27.9459 74.7426 28.1282 74.8541 28.3455L77.2852 33.5808C77.33 33.6773 77.4017 33.759 77.4917 33.816C77.5815 33.873 77.686 33.9031 77.7924 33.9026H82.4535C82.7068 33.892 82.957 33.96 83.1701 34.0972C83.3832 34.2344 83.5486 34.434 83.6437 34.6689C83.739 34.9037 83.7592 35.1623 83.7017 35.4091C83.6443 35.656 83.5118 35.879 83.3228 36.0477L79.2403 40.0697C79.1592 40.1485 79.1042 40.2503 79.0826 40.3613C79.0611 40.4723 79.074 40.5874 79.1197 40.6908L81.381 45.8905Z" fill="white"/>
<path d="M81.3809 45.8905C81.4862 46.1444 81.5093 46.4249 81.447 46.6927C81.3847 46.9605 81.2402 47.2019 81.0336 47.3834C80.8271 47.5648 80.5689 47.6769 80.2955 47.7042C80.0219 47.7313 79.7466 47.6723 79.5085 47.5351L73.9491 44.4069C73.8656 44.3596 73.7713 44.3348 73.6753 44.3348C73.5794 44.3348 73.4852 44.3596 73.4016 44.4069L67.8423 47.5351C67.604 47.6723 67.3289 47.7313 67.0553 47.7042C66.7817 47.6769 66.5236 47.5648 66.317 47.3834C66.1105 47.2019 65.9659 46.9605 65.9037 46.6927C65.8414 46.4249 65.8646 46.1444 65.9697 45.8905L68.231 40.6909C68.2768 40.5875 68.2896 40.4724 68.2681 40.3614C68.2466 40.2503 68.1915 40.1486 68.1104 40.0697L64.0281 36.0477C63.8381 35.8799 63.7048 35.6575 63.6465 35.4109C63.5881 35.1643 63.6075 34.9056 63.702 34.6706C63.7966 34.4355 63.9616 34.2355 64.1744 34.0979C64.3872 33.9604 64.6374 33.8921 64.8905 33.9026H69.5538C69.6604 33.9031 69.7647 33.873 69.8547 33.816C69.9445 33.759 70.0162 33.6773 70.0611 33.5808L72.4922 28.3455C72.6036 28.1282 72.7728 27.9459 72.9812 27.8186C73.1896 27.6913 73.429 27.624 73.6732 27.624C73.9173 27.624 74.1567 27.6913 74.365 27.8186C74.5734 27.9459 74.7426 28.1282 74.854 28.3455L77.2852 33.5808C77.33 33.6773 77.4016 33.759 77.4916 33.816C77.5815 33.873 77.686 33.9031 77.7924 33.9026H82.4535C82.7067 33.892 82.957 33.96 83.17 34.0972C83.3831 34.2344 83.5485 34.434 83.6437 34.669C83.739 34.9037 83.7592 35.1623 83.7016 35.4091C83.6442 35.656 83.5118 35.879 83.3227 36.0477L79.2403 40.0697C79.1591 40.1486 79.1042 40.2503 79.0826 40.3614C79.061 40.4724 79.0739 40.5875 79.1196 40.6909L81.3809 45.8905Z" fill="white"/>
<path d="M82.0372 45.6305L82.0328 45.6197L79.8042 40.4956L83.8177 36.5414C84.1039 36.2811 84.3042 35.9399 84.392 35.5629C84.4812 35.1798 84.4498 34.7785 84.3022 34.414C84.1544 34.0494 83.8976 33.7395 83.5669 33.5265C83.2406 33.3164 82.858 33.2108 82.4704 33.2239H77.8971L75.4989 28.0595L75.4934 28.0475L75.4873 28.0355C75.3188 27.7072 75.0632 27.4319 74.7483 27.2394C74.4334 27.0471 74.0716 26.9453 73.7026 26.9453C73.3336 26.9453 72.9718 27.0471 72.6569 27.2394C72.3421 27.4319 72.0864 27.7072 71.918 28.0355L71.9119 28.0475L71.9063 28.0595L69.5081 33.2239H64.9325C64.5445 33.2111 64.1618 33.3171 63.8355 33.5279C63.505 33.7415 63.2487 34.0521 63.102 34.4173C62.9551 34.7824 62.925 35.1841 63.0157 35.5671C63.1047 35.9434 63.3062 36.2836 63.593 36.5425L67.6055 40.4956L65.3771 45.6197L65.3725 45.6305C65.2129 46.0154 65.1779 46.4405 65.2723 46.8463C65.3666 47.2521 65.5857 47.6181 65.8988 47.8931C66.2119 48.1681 66.6031 48.338 67.0176 48.3792C67.431 48.4203 67.8468 48.3314 68.207 48.1249L68.2104 48.123L73.7049 45.0313L79.1993 48.123L79.2027 48.1249C79.563 48.3314 79.9787 48.4203 80.3921 48.3792C80.8067 48.338 81.1978 48.1681 81.5109 47.8931C81.824 47.6181 82.0431 47.2521 82.1374 46.8463C82.2318 46.4405 82.1968 46.0154 82.0372 45.6305ZM64.4598 23.8398C67.1959 22.0116 70.4126 21.0358 73.7033 21.0356C78.1147 21.0408 82.3438 22.7956 85.4631 25.9148C88.5825 29.0342 90.3372 33.2635 90.3423 37.675C90.3421 40.9656 89.3663 44.1821 87.5381 46.9181C85.7099 49.6543 83.1113 51.7869 80.071 53.0463C77.0307 54.3056 73.6852 54.6351 70.4577 53.993C67.2301 53.3511 64.2655 51.7664 61.9385 49.4394C59.6115 47.1125 58.0269 44.1478 57.3849 40.9202C56.7429 37.6927 57.0723 34.3472 58.3318 31.3069C59.591 28.2666 61.7237 25.668 64.4598 23.8398Z" fill="#6CB4E4" stroke="#264887"/>
<path fill-rule="evenodd" clip-rule="evenodd" d="M67.9341 52.571C63.4264 49.7503 60.4283 44.741 60.4283 39.0315C60.4283 30.217 67.5738 23.0715 76.3883 23.0715C78.4117 23.0715 80.3471 23.4481 82.1285 24.1348C79.6771 22.601 76.7792 21.7144 73.6743 21.7144C64.8598 21.7144 57.7143 28.8598 57.7143 37.6744C57.7143 44.4654 61.9558 50.2658 67.9341 52.571Z" fill="white"/>
<path d="M51.3975 30.3089C51.4729 29.9817 51.6388 29.6821 51.8762 29.4446C52.1137 29.207 52.4131 29.041 52.7403 28.9654L55.4376 28.3435C55.4876 28.3327 55.5323 28.3051 55.5644 28.2653C55.5964 28.2255 55.6139 28.176 55.6139 28.1248C55.6139 28.0737 55.5964 28.0242 55.5644 27.9844C55.5323 27.9446 55.4876 27.917 55.4376 27.9061L52.7403 27.2843C52.413 27.2089 52.1135 27.043 51.876 26.8056C51.6384 26.5681 51.4724 26.2687 51.3968 25.9415L50.7749 23.2478C50.7641 23.1979 50.7365 23.1532 50.6967 23.1211C50.6569 23.089 50.6073 23.0715 50.5562 23.0715C50.5051 23.0715 50.4556 23.089 50.4158 23.1211C50.376 23.1532 50.3484 23.1979 50.3375 23.2478L49.7164 25.9451C49.6402 26.2716 49.4739 26.5702 49.2366 26.8071C48.9992 27.0439 48.7003 27.2095 48.3736 27.285L45.6763 27.9061C45.6263 27.917 45.5816 27.9446 45.5496 27.9844C45.5175 28.0242 45.5 28.0737 45.5 28.1248C45.5 28.176 45.5175 28.2255 45.5496 28.2653C45.5816 28.3051 45.6263 28.3327 45.6763 28.3435L48.3736 28.9654C48.7008 29.041 49.0003 29.207 49.2377 29.4446C49.4751 29.6821 49.641 29.9817 49.7164 30.3089L50.3383 33.0063C50.3491 33.0562 50.3767 33.1009 50.4165 33.133C50.4563 33.165 50.5059 33.1825 50.557 33.1825C50.6081 33.1825 50.6576 33.165 50.6974 33.133C50.7372 33.1009 50.7648 33.0562 50.7757 33.0063L51.3975 30.3089Z" fill="white" stroke="#264887" stroke-linecap="round" stroke-linejoin="round"/>
<path d="M62.4143 16.631C62.475 16.3693 62.608 16.1299 62.7983 15.9403C62.9886 15.7507 63.2284 15.6184 63.4903 15.5586L65.6416 15.0621C65.6811 15.0532 65.7164 15.0311 65.7418 14.9995C65.7671 14.9678 65.7809 14.9285 65.7809 14.8879C65.7809 14.8474 65.7671 14.808 65.7418 14.7764C65.7164 14.7447 65.6811 14.7226 65.6416 14.7137L63.4903 14.2187C63.229 14.1586 62.99 14.0262 62.8003 13.8367C62.6107 13.6472 62.4782 13.4083 62.4179 13.1471L61.9215 10.9965C61.9125 10.9569 61.8904 10.9216 61.8588 10.8963C61.8271 10.871 61.7878 10.8572 61.7472 10.8572C61.7067 10.8572 61.6673 10.871 61.6357 10.8963C61.604 10.9216 61.5819 10.9569 61.573 10.9965L61.0765 13.1471C61.0164 13.4083 60.8841 13.6474 60.6946 13.837C60.5051 14.0266 60.2661 14.1591 60.0049 14.2194L57.8536 14.7151C57.8141 14.7241 57.7787 14.7462 57.7534 14.7778C57.7281 14.8095 57.7143 14.8488 57.7143 14.8894C57.7143 14.9299 57.7281 14.9693 57.7534 15.0009C57.7787 15.0326 57.8141 15.0547 57.8536 15.0636L60.0042 15.5601C60.2654 15.6204 60.5045 15.7529 60.6941 15.9425C60.8837 16.1321 61.0162 16.3712 61.0765 16.6324L61.573 18.7844C61.5819 18.824 61.604 18.8593 61.6357 18.8846C61.6673 18.91 61.7067 18.9238 61.7472 18.9238C61.7878 18.9238 61.8271 18.91 61.8588 18.8846C61.8904 18.8593 61.9125 18.824 61.9215 18.7844L62.4143 16.631Z" fill="white" stroke="#264887" stroke-linecap="round" stroke-linejoin="round"/>
<path d="M74.3309 14.171C74.4228 13.7748 74.6243 13.4124 74.9124 13.1253C75.2005 12.8381 75.5636 12.6378 75.9602 12.5473L79.2176 11.7956C79.2775 11.7821 79.331 11.7486 79.3694 11.7006C79.4077 11.6527 79.4286 11.5931 79.4286 11.5317C79.4286 11.4704 79.4077 11.4108 79.3694 11.3629C79.331 11.3149 79.2775 11.2814 79.2176 11.2679L75.9602 10.5184C75.5646 10.4274 75.2026 10.227 74.9155 9.94006C74.6284 9.65314 74.4277 9.29127 74.3364 8.89576L73.5847 5.63942C73.5712 5.57954 73.5377 5.52603 73.4898 5.48769C73.4418 5.44935 73.3823 5.42847 73.3209 5.42847C73.2595 5.42847 73.1999 5.44935 73.152 5.48769C73.104 5.52603 73.0706 5.57954 73.0571 5.63942L72.3053 8.89576C72.2143 9.29133 72.0139 9.65334 71.727 9.94045C71.4401 10.2276 71.0782 10.4282 70.6827 10.5195L67.4253 11.2701C67.3654 11.2836 67.3119 11.3171 67.2735 11.3651C67.2352 11.413 67.2143 11.4726 67.2143 11.534C67.2143 11.5953 67.2352 11.6549 67.2735 11.7028C67.3119 11.7508 67.3654 11.7843 67.4253 11.7978L70.6816 12.5495C71.0772 12.6408 71.4392 12.8415 71.7263 13.1286C72.0133 13.4157 72.214 13.7776 72.3053 14.1732L73.0571 17.4318C73.0706 17.4917 73.104 17.5452 73.152 17.5835C73.1999 17.6219 73.2595 17.6428 73.3209 17.6428C73.3823 17.6428 73.4418 17.6219 73.4898 17.5835C73.5377 17.5452 73.5712 17.4917 73.5847 17.4318L74.3309 14.171Z" fill="white" stroke="#264887" stroke-linecap="round" stroke-linejoin="round"/>
<path d="M95.4824 24.6448C95.5844 24.205 95.8078 23.8028 96.1273 23.4839C96.4467 23.165 96.8493 22.9422 97.2892 22.841L100.91 22.006C100.976 21.9907 101.035 21.9534 101.077 21.9002C101.12 21.847 101.143 21.781 101.143 21.713C101.143 21.645 101.12 21.5791 101.077 21.5258C101.035 21.4726 100.976 21.4353 100.91 21.42L97.2892 20.5827C96.8499 20.4813 96.4479 20.2585 96.1289 19.9398C95.81 19.621 95.5871 19.2191 95.4855 18.7797L94.6505 15.1615C94.6352 15.0952 94.5979 15.0361 94.5447 14.9938C94.4915 14.9515 94.4255 14.9285 94.3575 14.9285C94.2895 14.9285 94.2235 14.9515 94.1703 14.9938C94.1171 15.0361 94.0798 15.0952 94.0645 15.1615L93.2295 18.7797C93.1276 19.2194 92.9042 19.6216 92.5847 19.9404C92.2652 20.2592 91.8626 20.4817 91.4227 20.5827L87.8044 21.4177C87.7382 21.433 87.6791 21.4703 87.6368 21.5235C87.5944 21.5767 87.5714 21.6427 87.5714 21.7107C87.5714 21.7787 87.5944 21.8447 87.6368 21.8979C87.6791 21.9511 87.7382 21.9884 87.8044 22.0037L91.4219 22.8387C91.8614 22.9402 92.2635 23.163 92.5824 23.482C92.9013 23.8009 93.1242 24.203 93.2256 24.6424L94.0614 28.263C94.0767 28.3293 94.114 28.3884 94.1672 28.4307C94.2205 28.473 94.2864 28.496 94.3544 28.496C94.4224 28.496 94.4884 28.473 94.5416 28.4307C94.5948 28.3884 94.6321 28.3293 94.6474 28.263L95.4824 24.6448Z" fill="white" stroke="#264887" stroke-linecap="round" stroke-linejoin="round"/>
</svg>
