<svg width="56" height="56" viewBox="0 0 56 56" fill="none" xmlns="http://www.w3.org/2000/svg">
<path d="M28 55C42.9117 55 55 42.9117 55 28C55 13.0883 42.9117 1 28 1C13.0883 1 1 13.0883 1 28C1 42.9117 13.0883 55 28 55Z" fill="#E78C89" stroke="#264887" stroke-width="2"/>
<path d="M43.9145 42.347L43.9399 42.3908C44.0141 42.5367 44.0498 42.6994 44.0432 42.8635C44.0359 43.0453 43.977 43.2213 43.8734 43.3709C43.7697 43.5205 43.6256 43.6375 43.458 43.7082C43.2904 43.7788 43.1058 43.8002 42.9265 43.7701L39.4386 43.1796L39.0277 43.11L38.8853 43.5016L37.6719 46.8368L37.6715 46.8381C37.6098 47.0089 37.501 47.1587 37.3575 47.27C37.2141 47.3813 37.0419 47.4496 36.8612 47.4668C36.6804 47.4841 36.4985 47.4497 36.3365 47.3675C36.1748 47.2855 36.0393 47.1586 35.9465 47.0029L33.1495 42.2685C36.1437 41.1518 38.7192 39.1367 40.5233 36.5L43.9145 42.347Z" fill="#6CB4E4" stroke="#264887"/>
<path d="M15.0374 36.4629C16.8355 39.1071 19.408 41.131 22.4022 42.2562L19.5977 47.0026C19.5051 47.1585 19.3701 47.2855 19.2085 47.3679C19.0468 47.4503 18.865 47.4851 18.6843 47.4682C18.5035 47.4513 18.3313 47.3835 18.1877 47.2726C18.044 47.1617 17.9348 47.0122 17.8727 46.8416L16.6579 43.5049L16.5154 43.1134L16.1046 43.1829L12.6179 43.7735C12.4386 43.8037 12.2542 43.7824 12.0866 43.7119C11.9189 43.6413 11.7748 43.5244 11.671 43.375C11.5673 43.2255 11.5083 43.0496 11.5008 42.8678C11.4934 42.6861 11.5378 42.506 11.6289 42.3486L15.0374 36.4629Z" fill="#6CB4E4" stroke="#264887"/>
<path d="M27.76 15C25.2363 15 22.7693 15.7484 20.6709 17.1504C18.5726 18.5525 16.9371 20.5454 15.9713 22.877C15.0055 25.2085 14.7528 27.7741 15.2452 30.2493C15.7375 32.7245 16.9528 34.9982 18.7373 36.7827C20.5218 38.5672 22.7955 39.7825 25.2706 40.2748C27.7458 40.7672 30.3115 40.5145 32.643 39.5487C34.9746 38.5829 36.9675 36.9474 38.3695 34.8491C39.7716 32.7507 40.52 30.2837 40.52 27.76C40.5161 24.377 39.1705 21.1338 36.7783 18.7416C34.3862 16.3495 31.143 15.0039 27.76 15ZM33.4386 33.814C33.5162 34.0011 33.5332 34.2078 33.4873 34.4051C33.4414 34.6024 33.3349 34.7803 33.1827 34.914C33.0305 35.0477 32.8403 35.1303 32.6388 35.1504C32.4372 35.1704 32.2344 35.1269 32.0589 35.0258L27.9625 32.7208C27.901 32.686 27.8315 32.6677 27.7608 32.6677C27.6901 32.6677 27.6207 32.686 27.5591 32.7208L23.4628 35.0258C23.2872 35.1269 23.0845 35.1704 22.8829 35.1504C22.6813 35.1303 22.4911 35.0477 22.3389 34.914C22.1867 34.7803 22.0802 34.6024 22.0343 34.4051C21.9884 34.2078 22.0055 34.0011 22.083 33.814L23.7492 29.9827C23.7829 29.9065 23.7924 29.8217 23.7765 29.7399C23.7607 29.6581 23.7201 29.5831 23.6603 29.525L20.6523 26.5614C20.5123 26.4378 20.4141 26.2739 20.3711 26.0922C20.3281 25.9105 20.3424 25.7199 20.412 25.5467C20.4817 25.3735 20.6033 25.2261 20.7601 25.1247C20.9169 25.0234 21.1013 24.9731 21.2878 24.9808H24.7239C24.8024 24.9812 24.8793 24.959 24.9456 24.917C25.0118 24.875 25.0646 24.8148 25.0977 24.7437L26.889 20.8861C26.9711 20.726 27.0958 20.5917 27.2493 20.4979C27.4029 20.4041 27.5793 20.3545 27.7592 20.3545C27.9391 20.3545 28.1155 20.4041 28.269 20.4979C28.4225 20.5917 28.5472 20.726 28.6293 20.8861L30.4207 24.7437C30.4537 24.8148 30.5065 24.875 30.5728 24.917C30.639 24.959 30.716 24.9812 30.7944 24.9808H34.2289C34.4155 24.973 34.5999 25.0231 34.7569 25.1242C34.9139 25.2253 35.0358 25.3724 35.1059 25.5455C35.1761 25.7185 35.191 25.909 35.1486 26.0909C35.1063 26.2728 35.0087 26.4371 34.8694 26.5614L31.8613 29.525C31.8015 29.5831 31.761 29.6581 31.7451 29.7399C31.7292 29.8217 31.7387 29.9065 31.7724 29.9827L33.4386 33.814Z" fill="white"/>
<path d="M33.4386 33.814C33.5162 34.0011 33.5332 34.2078 33.4873 34.4051C33.4414 34.6024 33.3349 34.7803 33.1827 34.914C33.0305 35.0477 32.8403 35.1303 32.6388 35.1504C32.4372 35.1704 32.2344 35.1269 32.0589 35.0258L27.9625 32.7208C27.901 32.686 27.8315 32.6677 27.7608 32.6677C27.6901 32.6677 27.6207 32.686 27.5591 32.7208L23.4628 35.0258C23.2872 35.1269 23.0845 35.1704 22.8829 35.1504C22.6813 35.1303 22.4911 35.0477 22.3389 34.914C22.1867 34.7803 22.0802 34.6024 22.0343 34.4051C21.9884 34.2078 22.0055 34.0011 22.083 33.814L23.7492 29.9827C23.7829 29.9065 23.7924 29.8217 23.7765 29.7399C23.7607 29.6581 23.7201 29.5831 23.6603 29.525L20.6523 26.5614C20.5123 26.4378 20.4141 26.2739 20.3711 26.0922C20.3281 25.9105 20.3424 25.7199 20.412 25.5467C20.4817 25.3735 20.6033 25.2261 20.7601 25.1247C20.9169 25.0234 21.1013 24.9731 21.2878 24.9808H24.7239C24.8024 24.9812 24.8793 24.959 24.9456 24.917C25.0118 24.875 25.0646 24.8148 25.0977 24.7437L26.889 20.8861C26.9711 20.726 27.0958 20.5917 27.2493 20.4979C27.4029 20.4041 27.5793 20.3545 27.7592 20.3545C27.9391 20.3545 28.1155 20.4041 28.269 20.4979C28.4225 20.5917 28.5472 20.726 28.6293 20.8861L30.4207 24.7437C30.4537 24.8148 30.5065 24.875 30.5728 24.917C30.639 24.959 30.716 24.9812 30.7944 24.9808H34.2289C34.4155 24.973 34.5999 25.0231 34.7569 25.1242C34.9139 25.2253 35.0358 25.3724 35.1059 25.5455C35.1761 25.7185 35.191 25.909 35.1486 26.0909C35.1063 26.2728 35.0087 26.4371 34.8694 26.5614L31.8613 29.525C31.8015 29.5831 31.761 29.6581 31.7451 29.7399C31.7292 29.8217 31.7387 29.9065 31.7724 29.9827L33.4386 33.814Z" fill="white"/>
<path d="M33.9222 33.6225L33.9189 33.6146L32.2768 29.8389L35.2341 26.9253C35.445 26.7335 35.5926 26.4821 35.6573 26.2043C35.723 25.922 35.6999 25.6263 35.5911 25.3577C35.4822 25.0891 35.293 24.8607 35.0493 24.7038C34.8089 24.549 34.527 24.4712 34.2414 24.4808H30.8716L29.1045 20.6755L29.1004 20.6666L29.0959 20.6578C28.9718 20.4159 28.7834 20.213 28.5514 20.0712C28.3194 19.9295 28.0528 19.8545 27.7809 19.8545C27.509 19.8545 27.2424 19.9295 27.0104 20.0712C26.7784 20.213 26.59 20.4159 26.4659 20.6578L26.4614 20.6666L26.4573 20.6755L24.6902 24.4808H21.3187C21.0328 24.4714 20.7508 24.5495 20.5104 24.7048C20.2669 24.8622 20.078 25.0911 19.9699 25.3602C19.8617 25.6292 19.8395 25.9252 19.9063 26.2074C19.9719 26.4847 20.1204 26.7353 20.3317 26.9261L23.2883 29.8389L21.6463 33.6146L21.6429 33.6225C21.5253 33.9061 21.4995 34.2194 21.5691 34.5184C21.6386 34.8174 21.8 35.0871 22.0307 35.2897C22.2614 35.4923 22.5497 35.6175 22.8551 35.6479C23.1597 35.6782 23.4661 35.6127 23.7315 35.4605L23.734 35.4591L27.7826 33.181L31.8311 35.4591L31.8336 35.4605C32.0991 35.6127 32.4054 35.6782 32.71 35.6479C33.0155 35.6175 33.3037 35.4923 33.5344 35.2897C33.7651 35.0871 33.9265 34.8174 33.996 34.5184C34.0656 34.2194 34.0398 33.9061 33.9222 33.6225ZM20.9704 17.5662C22.9865 16.2191 25.3567 15.5001 27.7814 15.5C31.0319 15.5038 34.1481 16.7968 36.4465 19.0952C38.745 21.3937 40.038 24.51 40.0417 27.7606C40.0416 30.1852 39.3226 32.5553 37.9755 34.5713C36.6284 36.5874 34.7136 38.1588 32.4734 39.0868C30.2332 40.0147 27.7681 40.2575 25.3899 39.7844C23.0117 39.3114 20.8272 38.1437 19.1126 36.4291C17.398 34.7145 16.2304 32.53 15.7573 30.1518C15.2843 27.7736 15.527 25.3085 16.455 23.0683C17.3829 20.8281 18.9543 18.9133 20.9704 17.5662Z" fill="#6CB4E4" stroke="#264887"/>
<path fill-rule="evenodd" clip-rule="evenodd" d="M23.5304 38.7365C20.2089 36.6581 17.9998 32.967 17.9998 28.76C17.9998 22.2651 23.2649 17 29.7598 17C31.2507 17 32.6768 17.2775 33.9894 17.7835C32.1831 16.6533 30.0478 16 27.76 16C21.2651 16 16 21.2651 16 27.76C16 32.7639 19.1253 37.0379 23.5304 38.7365Z" fill="white"/>
<path d="M11.3455 22.3328C11.4011 22.0917 11.5233 21.871 11.6983 21.6959C11.8732 21.5209 12.0938 21.3985 12.335 21.3428L14.3225 20.8846C14.3593 20.8766 14.3922 20.8563 14.4158 20.827C14.4395 20.7977 14.4524 20.7612 14.4524 20.7235C14.4524 20.6858 14.4395 20.6493 14.4158 20.62C14.3922 20.5907 14.3593 20.5703 14.3225 20.5623L12.335 20.1042C12.0938 20.0486 11.8731 19.9263 11.6981 19.7514C11.523 19.5765 11.4007 19.3558 11.345 19.1147L10.8868 17.1299C10.8788 17.0931 10.8585 17.0601 10.8291 17.0365C10.7998 17.0129 10.7633 17 10.7256 17C10.688 17 10.6515 17.0129 10.6222 17.0365C10.5928 17.0601 10.5725 17.0931 10.5645 17.1299L10.1068 19.1174C10.0506 19.358 9.92816 19.578 9.75327 19.7525C9.57839 19.927 9.35809 20.049 9.11739 20.1047L7.12989 20.5623C7.0931 20.5703 7.06015 20.5907 7.03652 20.62C7.01289 20.6493 7 20.6858 7 20.7235C7 20.7612 7.01289 20.7977 7.03652 20.827C7.06015 20.8563 7.0931 20.8766 7.12989 20.8846L9.11739 21.3428C9.35852 21.3985 9.57914 21.5209 9.75409 21.6959C9.92904 21.871 10.0513 22.0917 10.1068 22.3328L10.565 24.3203C10.573 24.3571 10.5934 24.3901 10.6227 24.4137C10.652 24.4373 10.6885 24.4502 10.7262 24.4502C10.7638 24.4502 10.8004 24.4373 10.8297 24.4137C10.859 24.3901 10.8793 24.3571 10.8873 24.3203L11.3455 22.3328Z" fill="white" stroke="#264887" stroke-linecap="round" stroke-linejoin="round"/>
<path d="M19.4631 12.2544C19.5079 12.0615 19.6059 11.8852 19.7461 11.7455C19.8863 11.6057 20.063 11.5083 20.256 11.4642L21.8411 11.0984C21.8703 11.0918 21.8963 11.0755 21.915 11.0522C21.9336 11.0289 21.9438 10.9999 21.9438 10.97C21.9438 10.9401 21.9336 10.9112 21.915 10.8878C21.8963 10.8645 21.8703 10.8482 21.8411 10.8416L20.256 10.4769C20.0635 10.4326 19.8873 10.3351 19.7476 10.1955C19.6079 10.0558 19.5102 9.87974 19.4658 9.68728L19.1 8.10266C19.0934 8.07352 19.0772 8.04748 19.0538 8.02882C19.0305 8.01016 19.0015 8 18.9716 8C18.9418 8 18.9128 8.01016 18.8894 8.02882C18.8661 8.04748 18.8498 8.07352 18.8432 8.10266L18.4774 9.68728C18.4331 9.87977 18.3356 10.0559 18.196 10.1957C18.0564 10.3354 17.8803 10.433 17.6878 10.4774L16.1027 10.8427C16.0735 10.8493 16.0475 10.8656 16.0288 10.8889C16.0102 10.9122 16 10.9412 16 10.9711C16 11.001 16.0102 11.03 16.0288 11.0533C16.0475 11.0766 16.0735 11.0929 16.1027 11.0995L17.6873 11.4653C17.8798 11.5097 18.0559 11.6074 18.1956 11.7471C18.3353 11.8868 18.433 12.0629 18.4774 12.2554L18.8432 13.8411C18.8498 13.8703 18.8661 13.8963 18.8894 13.915C18.9128 13.9336 18.9418 13.9438 18.9716 13.9438C19.0015 13.9438 19.0305 13.9336 19.0538 13.915C19.0772 13.8963 19.0934 13.8703 19.1 13.8411L19.4631 12.2544Z" fill="white" stroke="#264887" stroke-linecap="round" stroke-linejoin="round"/>
<path d="M28.2438 10.4419C28.3115 10.1499 28.46 9.88289 28.6723 9.67132C28.8846 9.45975 29.1521 9.31217 29.4443 9.24544L31.8446 8.69155C31.8887 8.6816 31.9281 8.65693 31.9564 8.6216C31.9846 8.58627 32 8.54239 32 8.49715C32 8.45192 31.9846 8.40803 31.9564 8.3727C31.9281 8.33738 31.8887 8.31271 31.8446 8.30276L29.4443 7.75049C29.1529 7.68342 28.8861 7.53575 28.6746 7.32433C28.463 7.11292 28.3152 6.84628 28.2479 6.55485L27.694 4.15544C27.684 4.11132 27.6594 4.07189 27.624 4.04364C27.5887 4.01539 27.5448 4 27.4996 4C27.4544 4 27.4105 4.01539 27.3751 4.04364C27.3398 4.07189 27.3151 4.11132 27.3052 4.15544L26.7513 6.55485C26.6842 6.84632 26.5366 7.11306 26.3251 7.32462C26.1137 7.53618 25.8471 7.68403 25.5557 7.7513L23.1554 8.30439C23.1113 8.31434 23.0719 8.339 23.0436 8.37433C23.0154 8.40966 23 8.45355 23 8.49878C23 8.54401 23.0154 8.5879 23.0436 8.62323C23.0719 8.65856 23.1113 8.68322 23.1554 8.69317L25.5549 9.24707C25.8463 9.31438 26.1131 9.46223 26.3246 9.67377C26.5361 9.88531 26.684 10.152 26.7513 10.4435L27.3052 12.8446C27.3151 12.8887 27.3398 12.9281 27.3751 12.9564C27.4105 12.9846 27.4544 13 27.4996 13C27.5448 13 27.5887 12.9846 27.624 12.9564C27.6594 12.9281 27.684 12.8887 27.694 12.8446L28.2438 10.4419Z" fill="white" stroke="#264887" stroke-linecap="round" stroke-linejoin="round"/>
<path d="M43.8292 18.1594C43.9043 17.8354 44.0689 17.539 44.3043 17.304C44.5397 17.069 44.8364 16.9049 45.1605 16.8303L47.8283 16.2151C47.8771 16.2038 47.9207 16.1763 47.9518 16.1371C47.983 16.0979 48 16.0492 48 15.9991C48 15.949 47.983 15.9004 47.9518 15.8612C47.9207 15.822 47.8771 15.7945 47.8283 15.7832L45.1605 15.1663C44.8368 15.0916 44.5405 14.9274 44.3056 14.6925C44.0706 14.4577 43.9063 14.1615 43.8314 13.8378L43.2162 11.1717C43.2049 11.1229 43.1774 11.0793 43.1382 11.0482C43.099 11.017 43.0504 11 43.0003 11C42.9502 11 42.9016 11.017 42.8624 11.0482C42.8232 11.0793 42.7957 11.1229 42.7844 11.1717L42.1691 13.8378C42.094 14.1617 41.9294 14.4581 41.694 14.693C41.4586 14.9279 41.1619 15.0919 40.8378 15.1663L38.1717 15.7815C38.1229 15.7928 38.0793 15.8203 38.0482 15.8595C38.017 15.8987 38 15.9473 38 15.9974C38 16.0475 38.017 16.0961 38.0482 16.1354C38.0793 16.1746 38.1229 16.2021 38.1717 16.2133L40.8372 16.8286C41.161 16.9033 41.4573 17.0676 41.6923 17.3026C41.9273 17.5376 42.0915 17.8338 42.1663 18.1577L42.7821 20.8255C42.7934 20.8743 42.8209 20.9178 42.8601 20.949C42.8993 20.9802 42.9479 20.9971 42.998 20.9971C43.0481 20.9971 43.0967 20.9802 43.1359 20.949C43.1751 20.9178 43.2026 20.8743 43.2139 20.8255L43.8292 18.1594Z" fill="white" stroke="#264887" stroke-linecap="round" stroke-linejoin="round"/>
</svg>
