<svg width="98" height="296" viewBox="0 0 98 296" fill="none" xmlns="http://www.w3.org/2000/svg">
    <path d="M0.637045 288.156C0.447269 288.357 0.456032 288.673 0.656624 288.863L3.92547 291.956C4.12606 292.146 4.44252 292.137 4.63231 291.936C4.82209 291.736 4.81333 291.419 4.61273 291.23L1.7071 288.481L4.45614 285.575C4.64591 285.374 4.63715 285.058 4.43656 284.868C4.23597 284.678 3.91951 284.687 3.72973 284.888L0.637045 288.156ZM70.5001 0.999965C70.0251 1.15607 70.0251 1.15607 70.0251 1.15607C70.0251 1.15607 70.0251 1.15607 70.0251 1.15607C70.0251 1.1561 70.0251 1.15613 70.0251 1.15616C70.0252 1.15625 70.0252 1.15636 70.0252 1.15654C70.0254 1.15688 70.0255 1.15741 70.0258 1.15813C70.0262 1.15955 70.027 1.16176 70.0279 1.16469C70.0299 1.17059 70.0328 1.17947 70.0366 1.19134C70.0444 1.21507 70.056 1.25073 70.0714 1.29814C70.1022 1.39299 70.1481 1.53489 70.2084 1.7226C70.3288 2.09801 70.5066 2.65666 70.7354 3.38856L71.6898 3.09016C71.4602 2.35585 71.2817 1.79481 71.1605 1.41709C71.0999 1.22822 71.0537 1.08519 71.0225 0.989235C71.0069 0.941244 70.9951 0.90506 70.9872 0.880756C70.9832 0.86862 70.9802 0.859475 70.9782 0.853321C70.9772 0.850244 70.9764 0.847922 70.9759 0.846325C70.9757 0.845542 70.9755 0.844932 70.9753 0.844526C70.9753 0.844322 70.9752 0.844178 70.9752 0.844061C70.9752 0.844003 70.9751 0.843945 70.9751 0.843916C70.9751 0.843916 70.9751 0.843887 70.9751 0.843887C70.9751 0.843887 70.9751 0.843858 70.5001 0.999965ZM72.2462 8.34414C72.6713 9.76966 73.1476 11.3917 73.6664 13.1962L74.6275 12.9199C74.1077 11.1121 73.6305 9.48693 73.2045 8.05838L72.2462 8.34414ZM75.0098 17.946C75.4342 19.471 75.8775 21.087 76.3362 22.7885L77.3017 22.5282C76.8423 20.824 76.3983 19.2054 75.9732 17.6779L75.0098 17.946ZM77.656 27.7633C78.0592 29.308 78.471 30.9083 78.8893 32.5612L79.8587 32.3158C79.4398 30.6605 79.0274 29.0578 78.6236 27.5107L77.656 27.7633ZM80.1195 37.5007C80.5078 39.0854 80.8999 40.7105 81.2944 42.3739L82.2674 42.1431C81.8723 40.4773 81.4796 38.8497 81.0908 37.2627L80.1195 37.5007ZM82.4466 47.3146C82.8136 48.9156 83.1815 50.5472 83.549 52.2076L84.5254 51.9915C84.1573 50.3286 83.7889 48.6946 83.4213 47.0912L82.4466 47.3146ZM84.6295 57.1786C84.9724 58.7863 85.3141 60.4176 85.6536 62.0712L86.6332 61.87C86.2931 60.2139 85.9509 58.5801 85.6074 56.97L84.6295 57.1786ZM86.6625 67.0854C86.98 68.6964 87.2946 70.3261 87.6057 71.9731L88.5883 71.7875C88.2768 70.1379 87.9616 68.5056 87.6437 66.8921L86.6625 67.0854ZM88.5272 76.9649C88.8221 78.6004 89.1128 80.2511 89.3987 81.9158L90.3843 81.7466C90.0979 80.0791 89.8067 78.4257 89.5113 76.7875L88.5272 76.9649ZM90.2298 86.8841C90.4999 88.5425 90.7646 90.2133 91.0231 91.8952L92.0115 91.7433C91.7525 90.0583 91.4874 88.3847 91.2168 86.7234L90.2298 86.8841ZM91.762 96.8517C92.002 98.5139 92.2356 100.186 92.462 101.866L93.4531 101.733C93.2262 100.049 92.9922 98.374 92.7517 96.7088L91.762 96.8517ZM93.1102 106.859C93.3174 108.519 93.5172 110.186 93.7089 111.859L94.7024 111.745C94.5103 110.069 94.3101 108.398 94.1025 106.735L93.1102 106.859ZM94.2589 116.892C94.4316 118.554 94.5959 120.221 94.7511 121.893L95.7469 121.8C95.5912 120.125 95.4266 118.454 95.2536 116.789L94.2589 116.892ZM95.1894 126.918C95.3258 128.592 95.4526 130.269 95.5693 131.949L96.5669 131.88C96.4499 130.196 96.3228 128.515 96.1861 126.837L95.1894 126.918ZM95.8876 136.976C95.9833 138.653 96.0684 140.332 96.1424 142.011L97.1414 141.967C97.0673 140.283 96.9819 138.6 96.886 136.919L95.8876 136.976ZM96.3302 147.051C96.3813 148.73 96.4206 150.41 96.4477 152.088L97.4475 152.072C97.4204 150.389 97.381 148.705 97.3298 147.02L96.3302 147.051ZM96.4913 157.122C96.4931 158.807 96.4819 160.491 96.457 162.171L97.4569 162.186C97.4818 160.5 97.4931 158.811 97.4913 157.12L96.4913 157.122ZM96.3409 167.2C96.2879 168.884 96.2204 170.563 96.138 172.237L97.1367 172.286C97.2195 170.606 97.2872 168.921 97.3404 167.232L96.3409 167.2ZM95.8429 177.273C95.729 178.945 95.5993 180.612 95.4532 182.271L96.4493 182.359C96.596 180.693 96.7262 179.02 96.8406 177.341L95.8429 177.273ZM94.9563 187.307C94.773 188.98 94.5721 190.644 94.3529 192.299L95.3443 192.43C95.5644 190.768 95.7662 189.096 95.9503 187.416L94.9563 187.307ZM93.6339 197.274C93.3715 198.945 93.0894 200.605 92.7868 202.254L93.7703 202.434C94.0745 200.777 94.3581 199.108 94.6218 197.429L93.6339 197.274ZM91.8171 207.16C91.4653 208.819 91.0914 210.464 90.6947 212.094L91.6664 212.33C92.0654 210.69 92.4415 209.036 92.7953 207.367L91.8171 207.16ZM89.431 216.953C88.981 218.576 88.5068 220.183 88.0076 221.771L88.9616 222.07C89.4643 220.471 89.9417 218.854 90.3946 217.221L89.431 216.953ZM86.4085 226.552C85.8482 228.129 85.2613 229.686 84.647 231.222L85.5754 231.593C86.1948 230.045 86.7863 228.476 87.3508 226.887L86.4085 226.552ZM82.67 235.876C81.9817 237.404 81.2636 238.909 80.5151 240.388L81.4073 240.84C82.1629 239.347 82.8874 237.828 83.5818 236.287L82.67 235.876ZM78.1346 244.823C77.3045 246.282 76.4415 247.714 75.5448 249.116L76.3873 249.655C77.2935 248.238 78.1654 246.792 79.0038 245.318L78.1346 244.823ZM72.7311 253.263C71.7514 254.624 70.736 255.953 69.684 257.249L70.4604 257.88C71.5249 256.568 72.552 255.223 73.5427 253.847L72.7311 253.263ZM66.4153 261.039C65.287 262.269 64.121 263.465 62.9163 264.624L63.6096 265.345C64.8296 264.171 66.0102 262.96 67.1523 261.715L66.4153 261.039ZM59.189 267.988C57.9254 269.056 56.6232 270.088 55.2815 271.082L55.8767 271.885C57.2358 270.879 58.5548 269.834 59.8348 268.751L59.189 267.988ZM51.1368 273.947C49.7553 274.837 48.3355 275.69 46.8766 276.504L47.3637 277.377C48.8411 276.553 50.279 275.689 51.6784 274.788L51.1368 273.947ZM42.4103 278.814C40.9225 279.525 39.3971 280.2 37.8334 280.835L38.2098 281.761C39.792 281.119 41.3357 280.436 42.8418 279.716L42.4103 278.814ZM33.1634 282.577C31.5734 283.119 29.9466 283.623 28.2821 284.088L28.5514 285.051C30.2335 284.581 31.8782 284.071 33.4861 283.523L33.1634 282.577ZM23.529 285.288C21.9115 285.654 20.2608 285.984 18.5762 286.28L18.7488 287.265C20.4491 286.967 22.1158 286.633 23.7494 286.263L23.529 285.288ZM13.5865 287.037C11.9799 287.243 10.3444 287.42 8.67938 287.564L8.76593 288.56C10.4444 288.415 12.0937 288.237 13.7142 288.028L13.5865 287.037ZM3.59555 287.903C2.73333 287.944 1.86365 287.976 0.986414 288L1.0141 289C1.89766 288.975 2.77376 288.943 3.64245 288.902L3.59555 287.903ZM0.27385 287.813C-0.105717 288.214 -0.0881907 288.847 0.312992 289.226L6.85069 295.412C7.25187 295.791 7.88479 295.774 8.26436 295.373C8.64392 294.972 8.6264 294.339 8.22521 293.959L2.41392 288.461L7.91202 282.65C8.29158 282.248 8.27406 281.616 7.87287 281.236C7.47168 280.856 6.83876 280.874 6.45919 281.275L0.27385 287.813ZM70.5001 0.999965C69.5501 1.31215 69.5501 1.31215 69.5501 1.31215C69.5501 1.31215 69.5501 1.31215 69.5501 1.31215C69.5501 1.31215 69.5501 1.31218 69.5501 1.31221C69.5501 1.31227 69.5502 1.31238 69.5502 1.31253C69.5503 1.31285 69.5505 1.31334 69.5507 1.31401C69.5511 1.3154 69.5518 1.31752 69.5528 1.32039C69.5547 1.32614 69.5575 1.33488 69.5614 1.34661C69.569 1.37007 69.5806 1.40544 69.5959 1.45259C69.6265 1.54686 69.6722 1.68821 69.7323 1.87533C69.8523 2.24961 70.0297 2.8071 70.2582 3.53775L72.167 2.94095C71.9371 2.20541 71.7582 1.6432 71.6366 1.26433C71.5759 1.0749 71.5294 0.931288 71.4981 0.834783C71.4824 0.786531 71.4705 0.750056 71.4625 0.725492C71.4585 0.713209 71.4554 0.70392 71.4534 0.69762C71.4523 0.694485 71.4515 0.692076 71.451 0.690451C71.4507 0.689609 71.4505 0.68897 71.4504 0.688535C71.4503 0.688303 71.4502 0.688128 71.4502 0.688013C71.4502 0.687955 71.4502 0.687896 71.4502 0.687868C71.4501 0.687838 71.4501 0.687809 71.4501 0.687809C71.4501 0.68778 71.4501 0.68778 70.5001 0.999965ZM71.7671 8.48701C72.1917 9.91102 72.6675 11.5315 73.1859 13.3344L75.108 12.7817C74.5878 10.9723 74.1101 9.34557 73.6837 7.9155L71.7671 8.48701ZM74.5281 18.08C74.9522 19.6038 75.3951 21.2185 75.8534 22.9186L77.7845 22.398C77.3247 20.6926 76.8804 19.0727 76.4549 17.5438L74.5281 18.08ZM77.1722 27.8896C77.5751 29.4331 77.9866 31.0322 78.4046 32.6839L80.3435 32.1932C79.9242 30.5366 79.5115 28.9326 79.1073 27.3844L77.1722 27.8896ZM79.6339 37.6197C80.0219 39.2032 80.4137 40.8271 80.8079 42.4893L82.7539 42.0277C82.3586 40.3607 81.9656 38.7319 81.5764 37.1437L79.6339 37.6197ZM81.9592 47.4263C82.326 49.0262 82.6936 50.6565 83.0608 52.3157L85.0135 51.8834C84.6452 50.2193 84.2765 48.584 83.9087 46.9794L81.9592 47.4263ZM84.1405 57.283C84.4831 58.8894 84.8246 60.5195 85.1639 62.1717L87.123 61.7695C86.7827 60.1121 86.4402 58.477 86.0964 56.8657L84.1405 57.283ZM86.172 67.1821C86.4892 68.7918 86.8036 70.4202 87.1144 72.0659L89.0796 71.6948C88.7678 70.0438 88.4524 68.4102 88.1342 66.7954L86.172 67.1821ZM88.0351 77.0537C88.3298 78.6878 88.6203 80.3371 88.9059 82.0004L90.877 81.662C90.5905 79.9931 90.299 78.3383 90.0034 76.6988L88.0351 77.0537ZM89.7363 86.9645C90.0062 88.6214 90.2706 90.2907 90.5289 91.9712L92.5057 91.6674C92.2465 89.9809 91.9811 88.3057 91.7103 86.643L89.7363 86.9645ZM91.2671 96.9232C91.507 98.5838 91.7403 100.254 91.9665 101.933L93.9486 101.666C93.7215 99.9806 93.4873 98.3041 93.2466 96.6373L91.2671 96.9232ZM92.614 106.921C92.8211 108.579 93.0206 110.244 93.2122 111.916L95.1992 111.688C95.0068 110.01 94.8065 108.338 94.5986 106.673L92.614 106.921ZM93.7616 116.944C93.9341 118.604 94.0982 120.269 94.2533 121.939L96.2447 121.754C96.0889 120.077 95.9241 118.404 95.7509 116.737L93.7616 116.944ZM94.6911 126.959C94.8273 128.631 94.9539 130.306 95.0705 131.984L97.0657 131.845C96.9486 130.159 96.8213 128.476 96.6845 126.796L94.6911 126.959ZM95.3884 137.004C95.484 138.68 95.569 140.356 95.6429 142.033L97.6409 141.945C97.5667 140.259 97.4813 138.574 97.3852 136.89L95.3884 137.004ZM95.8305 147.066C95.8815 148.743 95.9208 150.42 95.9477 152.096L97.9475 152.064C97.9203 150.378 97.8808 148.692 97.8295 147.005L95.8305 147.066ZM95.9913 157.122C95.9931 158.805 95.9819 160.486 95.9571 162.163L97.9568 162.193C97.9818 160.505 97.9931 158.813 97.9913 157.12L95.9913 157.122ZM95.8412 167.185C95.7882 168.865 95.7209 170.541 95.6386 172.212L97.6361 172.31C97.719 170.628 97.7868 168.94 97.8402 167.248L95.8412 167.185ZM95.3441 177.239C95.2304 178.908 95.1009 180.571 94.9551 182.227L96.9474 182.403C97.0944 180.733 97.2249 179.057 97.3394 177.375L95.3441 177.239ZM94.4592 187.252C94.2764 188.922 94.0759 190.582 93.8573 192.234L95.84 192.496C96.0606 190.83 96.2629 189.154 96.4473 187.47L94.4592 187.252ZM93.14 197.196C92.8782 198.863 92.5968 200.52 92.295 202.163L94.2621 202.524C94.5671 200.863 94.8514 199.19 95.1158 197.506L93.14 197.196ZM91.328 207.056C90.9771 208.711 90.6044 210.351 90.2089 211.975L92.1522 212.448C92.5525 210.804 92.9296 209.144 93.2845 207.471L91.328 207.056ZM88.9491 216.82C88.5006 218.438 88.028 220.038 87.5306 221.621L89.4386 222.22C89.943 220.616 90.422 218.993 90.8764 217.354L88.9491 216.82ZM85.9374 226.385C85.3792 227.956 84.7946 229.506 84.1828 231.036L86.0397 231.779C86.6615 230.224 87.2553 228.649 87.822 227.054L85.9374 226.385ZM82.2142 235.671C81.5288 237.192 80.814 238.69 80.0689 240.162L81.8535 241.065C82.6125 239.565 83.3403 238.041 84.0377 236.492L82.2142 235.671ZM77.7 244.576C76.8741 246.028 76.0156 247.452 75.1236 248.846L76.8085 249.924C77.7195 248.5 78.5958 247.046 79.4384 245.565L77.7 244.576ZM72.3253 252.97C71.3511 254.324 70.3416 255.646 69.2958 256.934L70.8487 258.195C71.9193 256.875 72.9523 255.523 73.9485 254.139L72.3253 252.97ZM66.0468 260.701C64.9255 261.924 63.7667 263.112 62.5696 264.264L63.9563 265.705C65.184 264.524 66.3718 263.306 67.5209 262.053L66.0468 260.701ZM58.8662 267.606C57.6107 268.668 56.3169 269.693 54.9839 270.68L56.1742 272.287C57.5421 271.274 58.8695 270.222 60.1576 269.133L58.8662 267.606ZM50.866 273.527C49.4934 274.411 48.0827 275.258 46.633 276.067L47.6073 277.814C49.0939 276.984 50.5409 276.115 51.9491 275.208L50.866 273.527ZM42.1946 278.363C40.7159 279.07 39.1997 279.74 37.6452 280.372L38.398 282.225C39.9894 281.578 41.5424 280.892 43.0576 280.167L42.1946 278.363ZM33.0021 282.103C31.421 282.642 29.8031 283.144 28.1474 283.607L28.6861 285.533C30.377 285.06 32.0306 284.547 33.6474 283.996L33.0021 282.103ZM23.4187 284.8C21.8094 285.164 20.1666 285.493 18.4899 285.787L18.8352 287.757C20.5433 287.458 22.218 287.122 23.8596 286.751L23.4187 284.8ZM13.5226 286.541C11.923 286.747 10.2944 286.922 8.6361 287.066L8.80921 289.059C10.4944 288.912 12.1506 288.734 13.7781 288.524L13.5226 286.541ZM3.57209 287.404C2.71311 287.444 1.84663 287.476 0.972573 287.5L1.02794 289.5C1.91467 289.475 2.79398 289.442 3.66591 289.401L3.57209 287.404Z" fill="black"/>
</svg>
