<svg width="195" height="98" viewBox="0 0 195 98" fill="none" xmlns="http://www.w3.org/2000/svg">
    <path d="M0.700983 88.5993C0.479661 88.7644 0.434116 89.0777 0.599268 89.299L3.29046 92.9056C3.4556 93.1269 3.7689 93.1725 3.99021 93.0073C4.21153 92.8422 4.25707 92.5289 4.09192 92.3076L1.69976 89.1017L4.90561 86.7095C5.12692 86.5444 5.17246 86.2311 5.00731 86.0098C4.84218 85.7885 4.52889 85.7429 4.30757 85.9081L0.700983 88.5993ZM193.003 0.947835C192.916 1.76865 192.81 2.58669 192.684 3.40183L193.673 3.55419C193.801 2.72333 193.909 1.88939 193.997 1.05252L193.003 0.947835ZM191.702 8.24775C191.301 9.84025 190.826 11.4205 190.28 12.9876L191.224 13.3168C191.78 11.7224 192.263 10.1137 192.672 8.49179L191.702 8.24775ZM188.454 17.5924C187.788 19.0893 187.056 20.5728 186.262 22.0421L187.142 22.5177C187.948 21.0266 188.691 19.52 189.367 17.9989L188.454 17.5924ZM183.744 26.3245C182.868 27.703 181.936 29.0675 180.95 30.4171L181.758 31.0069C182.756 29.6405 183.7 28.2583 184.588 26.8611L183.744 26.3245ZM177.907 34.3325C176.866 35.5947 175.778 36.8426 174.645 38.0753L175.381 38.7522C176.526 37.5066 177.626 36.2453 178.679 34.9687L177.907 34.3325ZM171.188 41.6512C170.017 42.8044 168.807 43.943 167.558 45.0663L168.227 45.8098C169.487 44.6766 170.708 43.5277 171.89 42.3636L171.188 41.6512ZM163.789 48.3142C162.526 49.3581 161.229 50.3876 159.9 51.4019L160.507 52.1969C161.846 51.1749 163.153 50.1374 164.426 49.0851L163.789 48.3142ZM155.888 54.3495C154.542 55.3018 153.167 56.2396 151.764 57.1622L152.314 57.9977C153.726 57.069 155.11 56.1249 156.466 55.1658L155.888 54.3495ZM147.564 59.8295C146.162 60.6894 144.735 61.5348 143.285 62.3652L143.782 63.233C145.24 62.3977 146.676 61.5473 148.087 60.682L147.564 59.8295ZM138.92 64.7818C137.464 65.5611 135.988 66.3257 134.491 67.0753L134.939 67.9695C136.443 67.2159 137.928 66.4471 139.392 65.6635L138.92 64.7818ZM130.015 69.2442C128.518 69.9459 127.003 70.6329 125.471 71.3048L125.873 72.2206C127.413 71.5454 128.935 70.8549 130.44 70.1496L130.015 69.2442ZM120.879 73.2531C119.351 73.8794 117.809 74.4909 116.252 75.0873L116.61 76.0211C118.174 75.422 119.724 74.8076 121.258 74.1783L120.879 73.2531ZM111.571 76.8196C110.013 77.3764 108.442 77.9181 106.858 78.4446L107.174 79.3935C108.764 78.8647 110.343 78.3206 111.908 77.7613L111.571 76.8196ZM102.114 79.9647C100.529 80.4538 98.9335 80.9276 97.3274 81.3859L97.6018 82.3475C99.2147 81.8873 100.817 81.4114 102.409 80.9202L102.114 79.9647ZM92.5236 82.7022C90.9205 83.1235 89.3084 83.5293 87.6881 83.9193L87.9221 84.8916C89.5492 84.4999 91.168 84.0924 92.7778 83.6693L92.5236 82.7022ZM82.8233 85.0375C81.2049 85.392 79.5793 85.7308 77.9471 86.0536L78.1411 87.0346C79.7799 86.7105 81.4123 86.3703 83.0373 86.0144L82.8233 85.0375ZM73.043 86.9714C71.409 87.2601 69.7692 87.5326 68.1246 87.7887L68.2785 88.7767C69.9298 88.5196 71.5762 88.246 73.2169 87.9562L73.043 86.9714ZM63.1908 88.5054C61.5442 88.7275 59.8936 88.933 58.2397 89.1216L58.353 90.1152C60.0138 89.9258 61.6711 89.7195 63.3244 89.4965L63.1908 88.5054ZM53.2823 89.6353C51.6279 89.7895 49.971 89.9266 48.3122 90.0464L48.3842 91.0438C50.05 90.9235 51.7139 90.7858 53.3751 90.631L53.2823 89.6353ZM43.3358 90.3533C41.6759 90.438 40.0149 90.5052 38.3536 90.5545L38.3833 91.5541C40.0517 91.5046 41.7198 91.4371 43.3868 91.352L43.3358 90.3533ZM33.3693 90.6486C31.7065 90.6619 30.0442 90.657 28.3829 90.6337L28.3689 91.6336C30.0375 91.657 31.7072 91.662 33.3773 91.6486L33.3693 90.6486ZM23.3991 90.5077C21.7375 90.447 20.0779 90.3674 18.4208 90.2687L18.3613 91.2669C20.0261 91.3661 21.6934 91.446 23.3626 91.5071L23.3991 90.5077ZM13.4468 89.9138C11.79 89.776 10.1366 89.6186 8.48734 89.4413L8.38048 90.4356C10.0378 90.6137 11.6992 90.7719 13.3639 90.9104L13.4468 89.9138ZM3.53655 88.8476C2.71373 88.7385 1.89215 88.6244 1.07192 88.5052L0.928075 89.4948C1.75248 89.6146 2.57821 89.7293 3.40516 89.8389L3.53655 88.8476ZM0.401953 88.1985C-0.0406756 88.5288 -0.131752 89.1554 0.198538 89.598L5.58092 96.8112C5.91121 97.2539 6.53779 97.3449 6.98043 97.0146C7.42306 96.6844 7.51413 96.0578 7.18384 95.6151L2.3995 89.2034L8.81121 84.4191C9.25386 84.0888 9.34493 83.4622 9.01464 83.0196C8.68435 82.5769 8.05777 82.4859 7.61512 82.8162L0.401953 88.1985ZM192.505 0.895494C192.42 1.70829 192.315 2.51838 192.19 3.32565L194.167 3.63037C194.296 2.79164 194.406 1.94976 194.495 1.10487L192.505 0.895494ZM191.217 8.12573C190.82 9.7035 190.349 11.2696 189.808 12.823L191.696 13.4814C192.257 11.8734 192.745 10.2505 193.156 8.6138L191.217 8.12573ZM187.997 17.3891C187.336 18.8739 186.611 20.346 185.822 21.8043L187.582 22.7554C188.394 21.2535 189.142 19.7354 189.824 18.2022L187.997 17.3891ZM183.322 26.0563C182.452 27.4254 181.526 28.7809 180.546 30.1222L182.161 31.3017C183.165 29.927 184.116 28.5359 185.01 27.1293L183.322 26.0563ZM177.522 34.0144C176.487 35.2694 175.404 36.5105 174.277 37.7369L175.749 39.0906C176.9 37.8387 178.006 36.5705 179.065 35.2869L177.522 34.0144ZM170.837 41.295C169.672 42.4427 168.467 43.5761 167.224 44.6946L168.561 46.1816C169.826 45.0435 171.053 43.8893 172.241 42.7197L170.837 41.295ZM163.471 47.9288C162.212 48.9685 160.921 49.9939 159.597 51.0045L160.81 52.5943C162.154 51.5685 163.466 50.5271 164.745 49.4705L163.471 47.9288ZM155.599 53.9413C154.258 54.8903 152.887 55.8249 151.49 56.7445L152.589 58.4154C154.005 57.4837 155.394 56.5364 156.754 55.574L155.599 53.9413ZM147.303 59.4033C145.905 60.2605 144.482 61.1033 143.036 61.9313L144.03 63.6669C145.493 62.8292 146.933 61.9762 148.348 61.1083L147.303 59.4033ZM138.684 64.341C137.232 65.1181 135.76 65.8807 134.267 66.6283L135.163 68.4165C136.671 67.6609 138.16 66.8901 139.628 66.1043L138.684 64.341ZM129.803 68.7915C128.31 69.4914 126.799 70.1767 125.271 70.8469L126.074 72.6785C127.617 72.0016 129.144 71.3095 130.652 70.6024L129.803 68.7915ZM120.689 72.7905C119.165 73.4153 117.627 74.0254 116.073 74.6204L116.789 76.488C118.357 75.8875 119.91 75.2717 121.448 74.6409L120.689 72.7905ZM111.403 76.3488C109.848 76.9043 108.281 77.4448 106.701 77.9701L107.332 79.868C108.925 79.338 110.507 78.7927 112.076 78.2322L111.403 76.3488ZM101.967 79.4869C100.385 79.9749 98.7929 80.4478 97.1902 80.9051L97.739 82.8283C99.3553 82.3671 100.961 81.8902 102.557 81.398L101.967 79.4869ZM92.3965 82.2186C90.7968 82.639 89.1881 83.044 87.5711 83.4332L88.0392 85.3777C89.6696 84.9852 91.2917 84.5768 92.9048 84.1529L92.3965 82.2186ZM82.7163 84.5491C81.1013 84.9029 79.4789 85.241 77.8501 85.5631L78.2381 87.5251C79.8803 87.2003 81.5159 86.8595 83.1443 86.5028L82.7163 84.5491ZM72.956 86.4791C71.3253 86.7671 69.689 87.0391 68.0477 87.2946L68.3554 89.2708C70.0101 89.0132 71.6599 88.739 73.3039 88.4486L72.956 86.4791ZM63.1239 88.0099C61.4808 88.2315 59.8336 88.4366 58.183 88.6248L58.4096 90.612C60.0738 90.4222 61.7346 90.2154 63.3913 89.992L63.1239 88.0099ZM53.2359 89.1375C51.585 89.2913 49.9315 89.4282 48.2762 89.5477L48.4203 91.5425C50.0895 91.422 51.7568 91.284 53.4215 91.1288L53.2359 89.1375ZM43.3103 89.8539C41.6539 89.9385 39.9965 90.0056 38.3387 90.0548L38.3981 92.0539C40.0702 92.0042 41.7418 91.9366 43.4123 91.8513L43.3103 89.8539ZM33.3653 90.1486C31.7062 90.1619 30.0475 90.157 28.39 90.1337L28.3618 92.1335C30.0342 92.1571 31.7076 92.162 33.3813 92.1486L33.3653 90.1486ZM23.4174 90.0081C21.7596 89.9474 20.1037 89.868 18.4505 89.7695L18.3316 91.766C20.0002 91.8654 21.6714 91.9456 23.3443 92.0067L23.4174 90.0081ZM13.4882 89.4156C11.8354 89.278 10.186 89.121 8.54077 88.9442L8.32705 90.9328C9.98838 91.1113 11.6538 91.2698 13.3224 91.4087L13.4882 89.4156ZM3.60224 88.3519C2.78149 88.2431 1.96199 88.1293 1.14384 88.0104L0.856152 89.9896C1.68266 90.1097 2.51046 90.2247 3.33947 90.3346L3.60224 88.3519Z" fill="black"/>
</svg>
