<svg width="560" height="180" viewBox="0 0 560 180" fill="none" xmlns="http://www.w3.org/2000/svg">
<path opacity="0.05" d="M239.163 129.463C175.64 140.261 73.4967 126.218 81.6488 61.9588C92.5407 -23.8974 270.635 3.47204 353.83 24.4158C474.773 54.8625 489.156 110.171 419.361 113.554C349.565 116.938 302.686 118.664 239.163 129.463Z" fill="white"/>
<path d="M146.803 55.2607H413.691V165.161C413.691 170.684 409.214 175.161 403.691 175.161H156.803C151.28 175.161 146.803 170.684 146.803 165.161V55.2607Z" fill="#262626"/>
<path d="M146.726 49.9453H411.661V155.054C411.661 160.577 407.184 165.054 401.661 165.054H156.726C151.203 165.054 146.726 160.577 146.726 155.054V49.9453Z" fill="white" fill-opacity="0.12"/>
<rect x="147.763" y="49.9453" width="264.935" height="11.8992" fill="#333333"/>
<path fill-rule="evenodd" clip-rule="evenodd" d="M412.597 50.5918V147.806C412.597 153.329 408.12 157.806 402.597 157.806H157.662C153.717 157.806 150.306 155.522 148.678 152.204V155.7C148.678 161.223 153.156 165.7 158.678 165.7H403.613C409.136 165.7 413.613 161.223 413.613 155.7V50.5918H412.597Z" fill="#333333"/>
<path d="M417.716 50.916C417.716 50.916 421.812 96.9149 438.668 133.978" stroke="#85BEFF" stroke-width="2.5" stroke-miterlimit="10" stroke-linecap="round" stroke-linejoin="round"/>
<path d="M147.763 50.5908H412.698V155.699C412.698 161.222 408.221 165.699 402.698 165.699H157.763C152.24 165.699 147.763 161.222 147.763 155.699V50.5908Z" stroke="black" stroke-width="2.5" stroke-miterlimit="10" stroke-linecap="round" stroke-linejoin="round"/>
<rect x="432.762" y="130.12" width="8.87027" height="20.8261" rx="4.43513" transform="rotate(-24.3075 432.762 130.12)" fill="#85BEFF"/>
<path d="M415.91 51.0781C415.91 51.0781 414.657 97.242 427.112 136.006" stroke="black" stroke-width="2.5" stroke-miterlimit="10" stroke-linecap="round" stroke-linejoin="round"/>
<rect x="137.939" y="12.9609" width="284.615" height="36.7574" rx="6" fill="#6C6C6C" stroke="black" stroke-width="2.5" stroke-miterlimit="10" stroke-linecap="round" stroke-linejoin="round"/>
<rect x="422.555" y="20.21" width="7.96353" height="22.2594" fill="black"/>
<rect x="129.976" y="20.21" width="7.96353" height="22.2594" fill="black"/>
<rect x="421.692" y="131.491" width="8.87027" height="20.8261" rx="4.43513" transform="rotate(-17.6638 421.692 131.491)" fill="black"/>
<path d="M148.678 103.352H411.661" stroke="black" stroke-width="2.5" stroke-miterlimit="10" stroke-linejoin="round"/>
<path d="M148.678 112.938H411.661" stroke="black" stroke-width="2.5" stroke-miterlimit="10" stroke-linejoin="round"/>
<path d="M280.184 79.6305C295.929 79.5958 308.726 92.3369 308.761 108.082C308.796 123.827 296.054 136.624 280.309 136.659C264.564 136.694 251.767 123.953 251.732 108.208C251.698 92.4627 264.41 79.6653 280.184 79.6305Z" fill="#F7F7F7" stroke="black" stroke-width="2.5" stroke-miterlimit="10" stroke-linecap="round" stroke-linejoin="round"/>
<path d="M280.2 86.9983C291.872 86.9726 301.368 96.4275 301.394 108.099C301.42 119.771 291.965 129.267 280.293 129.293C268.622 129.319 259.125 119.864 259.099 108.192C259.045 96.5209 268.5 87.0241 280.2 86.9983Z" stroke="#0572EC" stroke-width="4" stroke-miterlimit="10" stroke-linecap="round" stroke-linejoin="round"/>
<path d="M283.02 95.7171L277.387 95.7295C276.693 95.731 276.117 96.339 276.061 97.1192L276.061 97.2058L276.074 103.099C276.075 103.331 276.162 103.533 276.278 103.706L276.336 103.763L277.175 104.686C277.494 105.061 277.524 105.61 277.236 106.015L277.179 106.073L276.343 106.999C276.199 107.173 276.112 107.375 276.084 107.606L276.084 107.693L276.109 119.105C276.111 119.885 276.661 120.519 277.355 120.575L277.442 120.575L283.075 120.563C283.769 120.561 284.345 119.953 284.401 119.173L284.401 119.087L284.389 113.626C284.388 113.395 284.301 113.164 284.185 112.991L284.127 112.933L283.288 112.011C282.969 111.636 282.939 111.087 283.227 110.682L283.284 110.624L284.12 109.698C284.264 109.524 284.351 109.322 284.379 109.09L284.379 109.004L284.353 97.1587C284.351 96.3786 283.743 95.7155 283.02 95.7171Z" fill="black"/>
<path fill-rule="evenodd" clip-rule="evenodd" d="M311.726 40.8529C313.173 40.8529 314.347 39.6795 314.347 38.2319C314.347 36.7847 313.173 35.6113 311.726 35.6113C310.278 35.6113 309.105 36.7847 309.105 38.2319C309.105 39.6795 310.278 40.8529 311.726 40.8529Z" fill="black"/>
<path fill-rule="evenodd" clip-rule="evenodd" d="M311.609 28.8164C314.494 28.8164 317.075 30.1279 318.794 32.1908C319.415 32.9351 319.111 34.018 318.273 34.5048V34.5048C317.412 35.0052 316.32 34.6709 315.597 33.9858C314.555 32.9994 313.152 32.395 311.609 32.395C310.088 32.395 308.703 32.9822 307.667 33.9438C306.941 34.6166 305.858 34.941 305.002 34.444V34.444C304.157 33.9529 303.855 32.8575 304.489 32.1134C306.208 30.0952 308.761 28.8164 311.609 28.8164Z" fill="black"/>
<path fill-rule="evenodd" clip-rule="evenodd" d="M311.702 21.8271C317.161 21.8271 321.998 24.4689 324.987 28.5345C325.591 29.3569 325.277 30.4939 324.392 31.0016V31.0016C323.505 31.5099 322.384 31.1915 321.753 30.3873C319.424 27.4168 315.788 25.5057 311.702 25.5057C307.646 25.5057 304.033 27.389 301.703 30.3226C301.07 31.1192 299.954 31.4318 299.071 30.9259V30.9259C298.181 30.4158 297.868 29.2711 298.481 28.4486C301.475 24.4314 306.282 21.8271 311.702 21.8271Z" fill="black"/>
<rect x="341.42" y="22.752" width="23.255" height="17.1754" rx="3" fill="#333333" stroke="black" stroke-width="2.5" stroke-miterlimit="10" stroke-linecap="round" stroke-linejoin="round"/>
<rect x="343.97" y="24.9004" width="11.9157" height="12.8787" rx="3" fill="#85BEFF"/>
<path d="M369.765 26.082V36.5966" stroke="black" stroke-width="2.5" stroke-miterlimit="10" stroke-linecap="round" stroke-linejoin="round"/>
<circle cx="152.285" cy="31.3404" r="5.55919" fill="#333333"/>
<circle cx="169.509" cy="31.3404" r="5.55919" fill="black"/>
<path d="M400.1 26.8154L382.343 38.944L400.1 38.944V26.8154Z" fill="black"/>
<path d="M406.186 23.4805L382.031 39.2007H406.186V23.4805Z" stroke="black" stroke-width="2.5" stroke-miterlimit="10" stroke-linecap="round" stroke-linejoin="round"/>
</svg>
