<svg width="16" height="16" viewBox="0 0 16 16" data-path-count="1" xmlns="http://www.w3.org/2000/svg">
<path data-path-style="onLight" fill-rule="evenodd" clip-rule="evenodd" d="M13 0H11.0542H9H7.05421C6.50193 0 6.05421 0.447715 6.05421 1C6.05421 1.51284 6.44025 1.93551 6.93759 1.99327L7.05421 2H9H11.0542H13C13.5128 2 13.9355 2.38604 13.9933 2.88338L14 3V13C14 13.5128 13.614 13.9355 13.1166 13.9933L13 14H11.0542H9H7.05421C6.50193 14 6.05421 14.4477 6.05421 15C6.05421 15.5128 6.44025 15.9355 6.93759 15.9933L7.05421 16H9H11.0542H13C14.6569 16 16 14.6569 16 13V3C16 1.34315 14.6569 0 13 0ZM4.70711 4.29289C5.09763 4.68342 5.09763 5.31658 4.70711 5.70711L2.41421 8L4.70711 10.2929C5.09763 10.6834 5.09763 11.3166 4.70711 11.7071C4.31658 12.0976 3.68342 12.0976 3.29289 11.7071L0.292893 8.70711C-0.0976311 8.31658 -0.0976311 7.68342 0.292893 7.29289L3.29289 4.29289C3.68342 3.90237 4.31658 3.90237 4.70711 4.29289ZM8.70711 4.29289C9.09763 4.68342 9.09763 5.31658 8.70711 5.70711L6.41421 8L8.70711 10.2929C9.09763 10.6834 9.09763 11.3166 8.70711 11.7071C8.31658 12.0976 7.68342 12.0976 7.29289 11.7071L4.29289 8.70711C3.90237 8.31658 3.90237 7.68342 4.29289 7.29289L7.29289 4.29289C7.68342 3.90237 8.31658 3.90237 8.70711 4.29289Z" />
</svg>
