<svg width="16" height="16" viewBox="0 0 16 16" data-path-count="1" xmlns="http://www.w3.org/2000/svg">
<path data-path-style="onLight" d="M11 5C11 6.0919 10.4179 7.04887 9.54576 7.57366C9.51579 7.71107 9.5 7.85372 9.5 8C9.5 8.46572 9.66003 8.89462 9.9281 9.2348C11.4452 9.57205 13 10.2723 13 11.3333V14H3V11.3333C3 10.2715 4.55694 9.57109 6.07501 9.23411C6.34138 8.89404 6.5 8.4654 6.5 8C6.5 7.852 6.48396 7.70771 6.45351 7.56881C5.58283 7.04298 5 6.08855 5 5C5 3.345 6.34725 2 8.00501 2C9.66277 2 11 3.345 11 5Z" />
</svg>
