<svg width="16" height="16" viewBox="0 0 16 16" fill="none" xmlns="http://www.w3.org/2000/svg">
<path d="M9 1C9 0.447715 8.55228 0 8 0C7.44772 0 7 0.447715 7 1V4C7 4.55228 7.44772 5 8 5C8.55228 5 9 4.55228 9 4V1Z" fill="#262626"/>
<path opacity="0.8" d="M5.90002 4.49996C6.30002 4.89996 6.30002 5.49996 5.90002 5.89996C5.50002 6.29996 4.90002 6.29996 4.50002 5.89996L2.30002 3.79996C2.00002 3.39996 1.90002 2.69996 2.30002 2.29996C2.70002 1.99996 3.40002 1.89996 3.80002 2.29996L5.90002 4.49996Z" fill="#262626"/>
<path opacity="0.6" d="M4 7C4.6 7 5 7.4 5 8C5 8.6 4.6 9 4 9H1C0.4 9 0 8.6 0 8C0 7.4 0.4 7 1 7H4Z" fill="#262626"/>
<path opacity="0.4" d="M4.50002 10.0998C4.90002 9.6998 5.50002 9.6998 5.90002 10.0998C6.30002 10.4998 6.30002 11.0998 5.90002 11.4998L3.80002 13.6998C3.40002 13.9998 2.70002 14.0998 2.30002 13.6998C2.00002 13.2998 1.90002 12.5998 2.30002 12.1998L4.50002 10.0998Z" fill="#262626"/>
<path opacity="0.2" d="M9 12C9 11.4477 8.55228 11 8 11C7.44772 11 7 11.4477 7 12V15C7 15.5523 7.44772 16 8 16C8.55228 16 9 15.5523 9 15V12Z" fill="#262626"/>
<path opacity="0.2" d="M13.7 12.1998C14 12.5998 14.1 13.2998 13.7 13.6998C13.3 13.9998 12.6 14.0998 12.2 13.6998L10.1 11.4998C9.69999 11.0998 9.69999 10.4998 10.1 10.0998C10.5 9.6998 11.1 9.6998 11.5 10.0998L13.7 12.1998Z" fill="#262626"/>
<path opacity="0.2" d="M15 7C15.6 7 16 7.4 16 8C16 8.6 15.6 9 15 9H12C11.4 9 11 8.6 11 8C11 7.4 11.4 7 12 7H15Z" fill="#262626"/>
<path opacity="0.2" d="M12.2 2.29996C12.6 1.99996 13.3 1.89996 13.7 2.29996C14 2.69996 14.1 3.39996 13.7 3.79996L11.5 5.89996C11.1 6.29996 10.5 6.29996 10.1 5.89996C9.69999 5.49996 9.69999 4.89996 10.1 4.49996L12.2 2.29996Z" fill="#262626"/>
</svg>
