<svg width="16" height="16" viewBox="0 0 16 16" data-path-count="2" xmlns="http://www.w3.org/2000/svg">
<path data-path-style="onLight" fill-rule="evenodd" clip-rule="evenodd" d="M8 2C4.68629 2 2 4.68629 2 8C2 11.3137 4.68629 14 8 14C11.3137 14 14 11.3137 14 8C14 4.68629 11.3137 2 8 2ZM0 8C0 3.58172 3.58172 0 8 0C12.4183 0 16 3.58172 16 8C16 12.4183 12.4183 16 8 16C3.58172 16 0 12.4183 0 8ZM9 11C9 11.5523 8.55228 12 8 12C7.44772 12 7 11.5523 7 11C7 10.4477 7.44772 10 8 10C8.55228 10 9 10.4477 9 11ZM8.87391 8.81181C8.7754 9.23215 8.51996 9.47213 8.0705 9.51145C7.51014 9.56048 7.11505 9.21273 7.06654 8.65821L7.06347 8.62318C7.00781 7.98694 7.31492 7.5307 7.9195 7.11314C8.67248 6.57672 8.85482 6.30785 8.8109 5.80587C8.76954 5.33306 8.36102 5.03354 7.83568 5.0795C7.36872 5.12036 7.07241 5.36391 6.92874 5.80584C6.79266 6.20006 6.4768 6.4218 6.0682 6.45754C5.51952 6.50555 5.13967 6.19764 5.09955 5.67179C5.07759 5.4208 5.11604 5.18804 5.21922 4.95551C5.54596 4.18582 6.47683 3.59855 7.80185 3.48263C9.57048 3.32789 10.8127 4.14852 10.9368 5.56693C11.0119 6.42499 10.6612 7.0556 9.8466 7.62683C9.08726 8.15792 8.95388 8.38133 8.87391 8.81181Z" />
<path data-path-style="onDark" fill-rule="evenodd" clip-rule="evenodd" d="M8 0C12.4183 0 16 3.58172 16 8C16 12.4183 12.4183 16 8 16C3.58172 16 0 12.4183 0 8C0 3.58172 3.58172 0 8 0ZM8.87383 8.8119C8.77532 9.23224 8.51988 9.47222 8.07042 9.51154C7.51006 9.56056 7.11497 9.21282 7.06645 8.65829L7.06339 8.62327C7.00773 7.98703 7.31483 7.53079 7.91941 7.11323C8.6724 6.57681 8.85474 6.30794 8.81082 5.80595C8.76946 5.33315 8.36094 5.03363 7.8356 5.07959C7.36863 5.12045 7.07233 5.364 6.92866 5.80593C6.79258 6.20015 6.47672 6.42189 6.06812 6.45763C5.51943 6.50564 5.13959 6.19773 5.09947 5.67188C5.07751 5.42088 5.11596 5.18813 5.21913 4.9556C5.54587 4.18591 6.47675 3.59864 7.80176 3.48272C9.5704 3.32798 10.8127 4.14861 10.9368 5.56702C11.0118 6.42507 10.6612 7.05569 9.84652 7.62691C9.08718 8.15801 8.9538 8.38142 8.87383 8.8119ZM7.99992 12.0001C8.5522 12.0001 8.99992 11.5524 8.99992 11.0001C8.99992 10.4478 8.5522 10.0001 7.99992 10.0001C7.44763 10.0001 6.99992 10.4478 6.99992 11.0001C6.99992 11.5524 7.44763 12.0001 7.99992 12.0001Z" />
</svg>
