<svg width="16" height="16" viewBox="0 0 16 16" data-path-count="1" xmlns="http://www.w3.org/2000/svg">
<path data-path-style="onLight" fill-rule="evenodd" clip-rule="evenodd" d="M7.29289 0.292893C7.65338 -0.0675907 8.22061 -0.0953203 8.6129 0.209705L8.70711 0.292893L11.7071 3.29289C12.0976 3.68342 12.0976 4.31658 11.7071 4.70711C11.3466 5.06759 10.7794 5.09532 10.3871 4.7903L10.2929 4.70711L9 3.41466V10C9 10.5523 8.55228 11 8 11C7.44772 11 7 10.5523 7 10V3.41466L5.70711 4.70711C5.34662 5.06759 4.77939 5.09532 4.3871 4.7903L4.29289 4.70711C3.93241 4.34662 3.90468 3.77939 4.2097 3.3871L4.29289 3.29289L7.29289 0.292893ZM4 6C2.89543 6 2 6.89543 2 8V14C2 15.1046 2.89543 16 4 16H12C13.1046 16 14 15.1046 14 14V8C14 6.89543 13.1046 6 12 6C11.4477 6 11 6.44772 11 7C11 7.55229 11.4477 8 12 8V14H4V8C4.55228 8 5 7.55229 5 7C5 6.44772 4.55228 6 4 6Z" />
</svg>
