<svg width="16" height="16" viewBox="0 0 16 16" data-path-count="1" xmlns="http://www.w3.org/2000/svg">
<path data-path-style="onLight" fill-rule="evenodd" clip-rule="evenodd" d="M8 0C7.44772 0 7 0.447715 7 1V2.5C7 3.05228 7.44772 3.5 8 3.5C8.55228 3.5 9 3.05228 9 2.5V2.08296C11.8377 2.55904 14 5.027 14 8C14 11.3137 11.3137 14 8 14C4.68629 14 2 11.3137 2 8C2 7.07795 2.2073 6.20711 2.57689 5.42909C2.81387 4.93024 2.60158 4.33372 2.10272 4.09674C1.60387 3.85976 1.00735 4.07205 0.77037 4.57091C0.276084 5.61141 0 6.77486 0 8C0 12.4183 3.58172 16 8 16C12.4183 16 16 12.4183 16 8C16 3.58172 12.4183 0 8 0ZM9.50003 9.99997C10.2811 9.21892 10.1906 7.86214 9.298 6.96951C8.57006 6.24157 5.4017 4.95424 4.25736 4.50399C4.0968 4.44082 3.94088 4.59674 4.00406 4.7573C4.4543 5.90164 5.74163 9.07 6.46957 9.79794C7.3622 10.6906 8.71898 10.781 9.50003 9.99997Z" />
</svg>
