<svg width="16" height="16" viewBox="0 0 16 16" data-path-count="1" xmlns="http://www.w3.org/2000/svg">
<path data-path-style="onLight" fill-rule="evenodd" clip-rule="evenodd" d="M12.0267 6.11935C11.7132 5.73677 11.3724 5.35994 11.0061 4.99371C10.64 4.62756 10.2632 4.28678 9.88074 3.97335C9.56381 4.10629 9.23311 4.27127 8.89453 4.46761C9.36923 4.83096 9.84122 5.24302 10.299 5.70081C10.7569 6.15869 11.169 6.63077 11.5324 7.10556C11.7288 6.76698 11.8937 6.43628 12.0267 6.11935ZM13.1602 10.0586C13.611 11.4288 13.4735 12.4273 12.9501 12.9506C12.4236 13.4772 11.4158 13.6131 10.0324 13.1522C8.68056 12.7018 7.12199 11.7212 5.70032 10.2995C5.24255 9.84173 4.83051 9.36977 4.46717 8.89509C4.27084 9.23368 4.10587 9.56439 3.97295 9.88133C4.28635 10.2638 4.6271 10.6405 4.99322 11.0066C6.50089 12.5143 8.18821 13.5918 9.71625 14.1009C11.2126 14.5995 12.7187 14.5963 13.6573 13.6577C14.5958 12.7192 14.599 11.2131 14.1004 9.71674C14.0289 9.50195 13.9461 9.28401 13.8524 9.06386C13.6404 9.39796 13.4093 9.73032 13.1602 10.0586ZM2.14709 6.93688C2.35906 6.60278 2.59023 6.27041 2.83925 5.94216C2.38835 4.57171 2.52583 3.57304 3.04919 3.04968C3.57255 2.52632 4.57119 2.38885 5.94162 2.83972C6.26987 2.5907 6.60223 2.35953 6.93631 2.14755C6.71605 2.05385 6.49799 1.971 6.28309 1.8994C4.78672 1.40083 3.28066 1.404 2.34208 2.34257C1.40351 3.28115 1.40034 4.7872 1.89891 6.28357C1.97052 6.49851 2.05338 6.71659 2.14709 6.93688ZM5.70057 5.70081C7.12223 4.27915 8.6808 3.29852 10.0326 2.84812C11.4161 2.38717 12.4238 2.5231 12.9504 3.04968C13.477 3.57626 13.6129 4.584 13.1519 5.96747C12.7016 7.31927 11.7209 8.87784 10.2993 10.2995C9.8414 10.7574 9.36935 11.1695 8.89458 11.5329C9.23318 11.7292 9.56389 11.8942 9.88083 12.0271C10.2634 11.7136 10.6402 11.3728 11.0064 11.0066C12.514 9.49894 13.5916 7.81162 14.1007 6.28357C14.5992 4.7872 14.5961 3.28115 13.6575 2.34257C12.7189 1.404 11.2129 1.40083 9.7165 1.8994C8.18845 2.40852 6.50113 3.48603 4.99346 4.99371C3.48579 6.50138 2.40827 8.1887 1.89915 9.71674C1.40058 11.2131 1.40375 12.7192 2.34233 13.6577C3.28091 14.5963 4.78696 14.5995 6.28333 14.1009C6.49815 14.0293 6.71612 13.9465 6.93629 13.8529C6.60219 13.6409 6.26981 13.4097 5.94155 13.1607C4.57129 13.6114 3.57275 13.474 3.04943 12.9506C2.52286 12.4241 2.38692 11.4163 2.84788 10.0328C3.29828 8.68104 4.2789 7.12248 5.70057 5.70081ZM6.99829 8.00019C6.99829 7.44699 7.44675 6.99854 7.99994 6.99854C8.55314 6.99854 9.00159 7.44699 9.00159 8.00019C9.00159 8.55338 8.55314 9.00184 7.99994 9.00184C7.44675 9.00184 6.99829 8.55338 6.99829 8.00019ZM7.99994 5.99854C6.89446 5.99854 5.99829 6.8947 5.99829 8.00019C5.99829 9.10567 6.89446 10.0018 7.99994 10.0018C9.10542 10.0018 10.0016 9.10567 10.0016 8.00019C10.0016 6.8947 9.10542 5.99854 7.99994 5.99854Z" />
</svg>
