<svg width="16" height="16" viewBox="0 0 16 16" data-path-count="2" xmlns="http://www.w3.org/2000/svg">
<path data-path-style="onLight" d="M8.07066 9.51142C8.52012 9.47209 8.77557 9.23212 8.87407 8.81178C8.95405 8.3813 9.08743 8.15788 9.84676 7.62679C10.6614 7.05557 11.0121 6.42495 10.937 5.5669C10.8129 4.14849 9.57064 3.32786 7.80201 3.48259C6.47699 3.59852 5.54612 4.18579 5.21938 4.95548C5.11621 5.18801 5.07775 5.42076 5.09971 5.67176C5.13983 6.1976 5.51968 6.50551 6.06836 6.45751C6.47696 6.42176 6.79282 6.20003 6.9289 5.80581C7.07257 5.36387 7.36888 5.12032 7.83585 5.07947C8.36118 5.03351 8.7697 5.33303 8.81107 5.80583C8.85498 6.30782 8.67265 6.57669 7.91966 7.11311C7.31508 7.53067 7.00797 7.98691 7.06363 8.62315L7.0667 8.65817C7.11521 9.21269 7.5103 9.56044 8.07066 9.51142Z M9.00041 11C9.00041 11.5523 8.55269 12 8.00041 12C7.44812 12 7.00041 11.5523 7.00041 11C7.00041 10.4477 7.44812 9.99997 8.00041 9.99997C8.55269 9.99997 9.00041 10.4477 9.00041 11Z M8 0C12.4183 0 16 3.58172 16 8C16 12.4183 12.4183 16 8 16C6.87752 16 5.80904 15.7688 4.83957 15.3515C4.54857 15.2262 4.21811 15.2252 3.92595 15.3478C3.03181 15.7227 1.89775 16 0.5 16C-0.000422895 16 -0.268198 15.184 0.467813 15C1.41953 14.7621 2.02097 13.4138 1.43201 12.5687C0.529322 11.2734 0 9.69851 0 8C0 3.58172 3.58172 0 8 0ZM14 8C14 4.68629 11.3137 2 8 2C4.68629 2 2 4.68629 2 8C2 11.3137 4.68629 14 8 14C11.3137 14 14 11.3137 14 8Z" />
<path data-path-style="onDark" fill-rule="evenodd" clip-rule="evenodd" d="M16 8C16 3.58172 12.4183 0 8 0C3.58172 0 0 3.58172 0 8C0 9.69856 0.529355 11.2735 1.43209 12.5688C2.02106 13.4139 1.41957 14.7621 0.467901 15C-0.268111 15.184 -0.000335336 16 0.500088 16C1.89782 16 3.03187 15.7227 3.92601 15.3478C4.21816 15.2253 4.54862 15.2262 4.83961 15.3515C5.80907 15.7688 6.87754 16 8 16C12.4183 16 16 12.4183 16 8ZM8.07067 9.51142C8.52012 9.47209 8.77557 9.23212 8.87407 8.81178C8.95405 8.3813 9.08743 8.15788 9.84676 7.62679C10.6614 7.05557 11.0121 6.42495 10.937 5.5669C10.8129 4.14849 9.57064 3.32786 7.80201 3.48259C6.47699 3.59852 5.54612 4.18579 5.21938 4.95548C5.11621 5.18801 5.07775 5.42076 5.09971 5.67176C5.13984 6.1976 5.51968 6.50551 6.06836 6.45751C6.47696 6.42176 6.79282 6.20003 6.9289 5.80581C7.07257 5.36387 7.36888 5.12032 7.83585 5.07947C8.36118 5.03351 8.7697 5.33303 8.81107 5.80583C8.85499 6.30782 8.67265 6.57669 7.91966 7.11311C7.31508 7.53067 7.00797 7.98691 7.06363 8.62315L7.0667 8.65817C7.11521 9.21269 7.51031 9.56044 8.07067 9.51142ZM9.00041 11C9.00041 11.5523 8.55269 12 8.00041 12C7.44812 12 7.00041 11.5523 7.00041 11C7.00041 10.4477 7.44812 9.99997 8.00041 9.99997C8.55269 9.99997 9.00041 10.4477 9.00041 11Z" />
</svg>
