<svg width="16" height="16" viewBox="0 0 16 16" data-path-count="1" xmlns="http://www.w3.org/2000/svg">
<path data-path-style="onLight" fill-rule="evenodd" clip-rule="evenodd" d="M10.8572 10.2861C13.6975 10.2861 16 7.98356 16 5.14324C16 2.30293 13.6975 0.000408173 10.8572 0.000408173C8.01685 0.000408173 5.71433 2.30293 5.71433 5.14324C5.71433 5.58172 5.7692 6.00739 5.87246 6.41374L5.31715 6.96905L8.83596 10.8788L9.58682 10.128C9.99312 10.2312 10.4187 10.2861 10.8572 10.2861ZM1.14441e-05 12.2862L3.90098 8.38522L6.64845 11.438H5.83929L5.83929 13.7192H3.21623V16.0005H3.71434L3.71432 16.0005H1.25101L1.14441e-05 14.7366L1.14441e-05 12.2862ZM13.5 3.75016C13.5 4.44052 12.9404 5.00016 12.25 5.00016C11.5597 5.00016 11 4.44052 11 3.75016C11 3.05981 11.5597 2.50016 12.25 2.50016C12.9404 2.50016 13.5 3.05981 13.5 3.75016ZM11.8536 15.854C11.6583 16.0492 11.3417 16.0492 11.1465 15.854L9.14646 13.854C8.9512 13.6587 8.9512 13.3421 9.14646 13.1469C9.34172 12.9516 9.6583 12.9516 9.85356 13.1469L11.8536 15.1469C12.0488 15.3421 12.0488 15.6587 11.8536 15.854ZM8.00001 15.5004V14.0004C8.00001 13.7243 7.77615 13.5004 7.50001 13.5004C7.22387 13.5004 7.00001 13.7243 7.00001 14.0004V15.5004C7.00001 15.7766 7.22387 16.0004 7.50001 16.0004C7.77615 16.0004 8.00001 15.7766 8.00001 15.5004ZM1.14441e-05 7.50041C1.14441e-05 7.22427 0.223869 7.00041 0.500011 7.00041H2.00001C2.27615 7.00041 2.50001 7.22427 2.50001 7.50041C2.50001 7.77655 2.27615 8.00041 2.00001 8.00041H0.500011C0.223869 8.00041 1.14441e-05 7.77655 1.14441e-05 7.50041ZM0.853565 3.14685L2.85357 5.14685C3.04883 5.34212 3.04883 5.6587 2.85357 5.85396C2.6583 6.04922 2.34172 6.04922 2.14646 5.85396L0.146458 3.85396C-0.0488052 3.6587 -0.0488052 3.34212 0.146458 3.14685C0.341721 2.95159 0.658302 2.95159 0.853565 3.14685Z" />
</svg>
