<svg width="16" height="16" viewBox="0 0 16 16" data-path-count="1" xmlns="http://www.w3.org/2000/svg">
<path data-path-style="onLight" d="M14.8893 1.5066C14.7245 1.19411 14.4044 1 14.0524 1H1.94758C1.59628 1 1.27552 1.19411 1.11068 1.5066C0.944574 1.82226 0.966849 2.2003 1.16796 2.49369L5.94021 9.60894C5.97713 9.66304 5.99686 9.72541 5.99686 9.79032V15.0455C5.99686 15.5718 6.42517 15.9995 6.9515 15.9995C7.1227 15.9995 7.29135 15.9524 7.44091 15.8626L9.53698 14.7152C9.8221 14.5433 9.99902 14.2302 9.99902 13.898V9.79032C9.99902 9.72541 10.0188 9.66304 10.0563 9.60831L14.832 2.49433C15.0332 2.20094 15.0554 1.82226 14.8893 1.5066Z" />
</svg>
