<svg width="32" height="32" viewBox="0 0 32 32" data-path-count="1" xmlns="http://www.w3.org/2000/svg"><path data-path-style="onLight" fill-rule="evenodd" clip-rule="evenodd" d="M26 9V27C26 29.2091 24.2091 31 22 31H10C7.79086 31 6 29.2091 6 27V9H26ZM11 12C10.4872 12 10.0645 12.386 10.0067 12.8834L10 13V27C10 27.5523 10.4477 28 11 28C11.5128 28 11.9355 27.614 11.9933 27.1166L12 27V13C12 12.4477 11.5523 12 11 12ZM16 12C15.4872 12 15.0645 12.386 15.0067 12.8834L15 13V27C15 27.5523 15.4477 28 16 28C16.5128 28 16.9355 27.614 16.9933 27.1166L17 27V13C17 12.4477 16.5523 12 16 12ZM21 12C20.4872 12 20.0645 12.386 20.0067 12.8834L20 13V27C20 27.5523 20.4477 28 21 28C21.5128 28 21.9355 27.614 21.9933 27.1166L22 27V13C22 12.4477 21.5523 12 21 12ZM16 2C14.3431 2 13 3.34315 13 5H11C11 2.23858 13.2386 0 16 0C18.7614 0 21 2.23858 21 5H26.5C27.3284 5 28 5.67157 28 6.5C28 7.32843 27.3284 8 26.5 8H5.5C4.67157 8 4 7.32843 4 6.5C4 5.67157 4.67157 5 5.5 5H19C19 3.34315 17.6569 2 16 2Z" />
</svg>
