<svg width="16" height="16" viewBox="0 0 16 16" data-path-count="1" xmlns="http://www.w3.org/2000/svg">
<path data-path-style="onLight" fill-rule="evenodd" clip-rule="evenodd" d="M14 11C13.4477 11 13 10.5523 13 10C13 9.44771 13.4477 9 14 9V2H7C7 2.55228 6.55228 3 6 3C5.44772 3 5 2.55228 5 2C5 0.89543 5.89543 0 7 0H14C15.1046 0 16 0.89543 16 2V9C16 10.1046 15.1046 11 14 11ZM3 5C3.55228 5 4 5.44772 4 6C4 6.55228 3.55228 7 3 7H2V14H9V13C9 12.4477 9.44771 12 10 12C10.5523 12 11 12.4477 11 13V14C11 15.1046 10.1046 16 9 16H2C0.89543 16 0 15.1046 0 14V7C0 5.89543 0.89543 5 2 5H3ZM6 7H7.58579L4.17157 10.4142C3.78105 10.8047 3.78105 11.4379 4.17157 11.8284C4.5621 12.219 5.19526 12.219 5.58579 11.8284L9 8.41421V10C9 10.5523 9.44771 11 10 11C10.5523 11 11 10.5523 11 10V6C11 5.44772 10.5523 5 10 5H6C5.44772 5 5 5.44772 5 6C5 6.55228 5.44772 7 6 7Z" />
</svg>
