<svg width="16" height="16" viewBox="0 0 16 16" data-path-count="1" xmlns="http://www.w3.org/2000/svg">
<path data-path-style="onLight" d="M0.814852 9.0584C0.828037 9.19584 0.950142 9.29657 1.08758 9.28338L7.04001 8.71236C7.17745 8.69917 7.27818 8.57707 7.26499 8.43963L7.1858 7.61413C7.17262 7.47669 7.05051 7.37596 6.91307 7.38914L3.14983 7.75015C2.94876 7.76944 2.80901 7.55466 2.90811 7.37865L6.48321 1.02852C6.50828 0.983994 6.5191 0.932858 6.51422 0.881997L6.4513 0.226144C6.43812 0.088704 6.31601 -0.0120248 6.17857 0.00115996L0.226144 0.572183C0.0887042 0.585368 -0.0120248 0.707473 0.00115996 0.844914L0.0803511 1.67041C0.0935359 1.80785 0.215642 1.90858 0.353082 1.8954L4.12032 1.534C4.32144 1.51471 4.46119 1.72959 4.36199 1.90561L0.783006 8.25599C0.7579 8.30053 0.747058 8.35171 0.751941 8.40261L0.814852 9.0584Z" />
<path data-path-style="onLight" d="M7.99775 11.155C7.98647 11.2926 8.08888 11.4133 8.22649 11.4246L13.0064 11.8164C13.144 11.8277 13.2647 11.7253 13.276 11.5877L13.3381 10.8303C13.3493 10.6927 13.2469 10.572 13.1093 10.5607L10.1342 10.3168C10.1118 10.315 10.0951 10.2953 10.0969 10.2729C10.0977 10.2639 10.1014 10.2555 10.1074 10.2488L13.5315 6.49553C13.5688 6.45467 13.5915 6.40259 13.596 6.34746L13.6534 5.64778C13.6646 5.51017 13.5622 5.38947 13.4246 5.37819L8.86238 5.00419C8.72477 4.99291 8.60407 5.09532 8.59279 5.23293L8.5307 5.99032C8.51942 6.12793 8.62183 6.24863 8.75944 6.25991L11.6762 6.49903C11.6985 6.50085 11.7151 6.52038 11.7133 6.54264C11.7125 6.55177 11.7087 6.56038 11.7024 6.56705L8.1162 10.3777C8.07738 10.419 8.05373 10.4722 8.0491 10.5286L7.99775 11.155Z" />
<path data-path-style="onLight" d="M4.17634 14.8986C4.18633 15.0363 4.30607 15.1398 4.44378 15.1298L6.43853 14.9851C6.57624 14.9751 6.67978 14.8553 6.66978 14.7176L6.66356 14.6319C6.65357 14.4942 6.53383 14.3907 6.39612 14.4007L5.12195 14.4931C5.11156 14.4939 5.10252 14.4861 5.10176 14.4757C5.10146 14.4715 5.10257 14.4673 5.10493 14.4638L6.40602 12.5314C6.43726 12.485 6.45204 12.4294 6.44799 12.3736L6.43741 12.2279C6.42742 12.0902 6.30768 11.9867 6.16997 11.9967L4.27804 12.134C4.14033 12.144 4.0368 12.2637 4.04679 12.4014L4.05301 12.4871C4.06301 12.6248 4.18274 12.7284 4.32045 12.7184L5.56706 12.6279C5.57739 12.6272 5.58637 12.6349 5.58712 12.6453C5.58743 12.6495 5.58626 12.6538 5.58381 12.6573L4.21249 14.6273C4.17977 14.6743 4.16418 14.7311 4.16833 14.7882L4.17634 14.8986Z" />
</svg>
