<svg width="16" height="16" viewBox="0 0 16 16" data-path-count="1" xmlns="http://www.w3.org/2000/svg">
<path data-path-style="onLight" fill-rule="evenodd" clip-rule="evenodd" d="M9.77695 1.50944L9.47954 1.21833C9.18214 0.927223 8.69995 0.927223 8.40255 1.21833L2.37175 7.1215C1.87608 7.60668 1.87608 8.39332 2.37175 8.8785L8.40255 14.7817C8.69995 15.0728 9.18214 15.0728 9.47954 14.7817L9.77695 14.4906C10.0744 14.1994 10.0744 13.7275 9.77695 13.4364L5.24467 9H13.8333C14.1095 9 14.3333 8.77614 14.3333 8.5V7.5C14.3333 7.22386 14.1095 7 13.8333 7H5.24467L9.77695 2.56364C10.0744 2.27253 10.0744 1.80055 9.77695 1.50944Z" />
</svg>
