<svg width="16" height="16" viewBox="0 0 16 16" data-path-count="2" xmlns="http://www.w3.org/2000/svg">
<path data-path-style="onLight" fill-rule="evenodd" clip-rule="evenodd" d="M8 16C8 16 15 12.5 15 7.99996V3.99997V1.99997H14.1556C12.4154 1.99997 10.7052 1.54583 9.19428 0.682433L8 0L6.80569 0.682456C5.29475 1.54584 3.58465 1.99998 1.84443 1.99999L1 2V7.99996C1 12.5 8 16 8 16ZM3 3.94422V7.99996C3 8.59622 3.23253 9.26958 3.74536 10.0205C4.25789 10.771 4.98023 11.4937 5.76948 12.142C6.55077 12.7838 7.34251 13.3079 7.94421 13.6732L8 13.707L8.05579 13.6732C8.65749 13.3079 9.44923 12.7838 10.2305 12.142C11.0198 11.4937 11.7421 10.771 12.2546 10.0205C12.7675 9.26958 13 8.59622 13 7.99996V3.9442C11.3152 3.7812 9.67926 3.26306 8.20201 2.41893L8 2.30349L7.79795 2.41895C6.32071 3.26307 4.68483 3.78121 3 3.94422ZM5.29289 4.79289C5.68342 4.40237 6.31658 4.40237 6.70711 4.79289L8 6.08579L9.29289 4.79289C9.68342 4.40237 10.3166 4.40237 10.7071 4.79289C11.0976 5.18342 11.0976 5.81658 10.7071 6.20711L9.41421 7.5L10.7071 8.79289C11.0976 9.18342 11.0976 9.81658 10.7071 10.2071C10.3166 10.5976 9.68342 10.5976 9.29289 10.2071L8 8.91421L6.70711 10.2071C6.31658 10.5976 5.68342 10.5976 5.29289 10.2071C4.90237 9.81658 4.90237 9.18342 5.29289 8.79289L6.58579 7.5L5.29289 6.20711C4.90237 5.81658 4.90237 5.18342 5.29289 4.79289Z" />
<path data-path-style="onDark" fill-rule="evenodd" clip-rule="evenodd" d="M8 16C8 16 15 12.5 15 7.99996V1.99997H14.1556C12.4154 1.99997 10.7052 1.54583 9.19428 0.682433L8 0L6.80569 0.682456C5.29475 1.54584 3.58465 1.99998 1.84443 1.99999L1 2V7.99996C1 12.5 8 16 8 16ZM4.79289 4.29289C5.18342 3.90237 5.81658 3.90237 6.20711 4.29289L8 6.08579L9.79289 4.29289C10.1834 3.90237 10.8166 3.90237 11.2071 4.29289C11.5976 4.68342 11.5976 5.31658 11.2071 5.70711L9.41421 7.5L11.2071 9.29289C11.5976 9.68342 11.5976 10.3166 11.2071 10.7071C10.8166 11.0976 10.1834 11.0976 9.79289 10.7071L8 8.91421L6.20711 10.7071C5.81658 11.0976 5.18342 11.0976 4.79289 10.7071C4.40237 10.3166 4.40237 9.68342 4.79289 9.29289L6.58579 7.5L4.79289 5.70711C4.40237 5.31658 4.40237 4.68342 4.79289 4.29289Z" />
</svg>
