<svg width="16" height="16" viewBox="0 0 16 16" data-path-count="1" xmlns="http://www.w3.org/2000/svg">
<path data-path-style="onLight" fill-rule="evenodd" clip-rule="evenodd" d="M6 2.67386C3.85828 3.47365 2.33333 5.5147 2.33333 7.91304V9.56159C2.33333 10.6543 1.77336 13 0 13H16C14.4803 13 13.6667 10.6543 13.6667 9.56159V7.91304C13.6667 5.51569 12.1403 3.47534 10 2.67486V1.97826C10 0.885698 9.10457 0 8 0C6.89543 0 6 0.885698 6 1.97826V2.67386ZM8 16C9.104 16 10 15.1047 10 14H6C6 15.1047 6.894 16 8 16Z" />
</svg>
