<svg width="16" height="16" viewBox="0 0 16 16" data-path-count="1" xmlns="http://www.w3.org/2000/svg">
<path data-path-style="onLight" fill-rule="evenodd" clip-rule="evenodd" d="M6.55639 1.50944L6.85379 1.21833C7.15119 0.927223 7.63338 0.927223 7.93078 1.21833L13.9616 7.1215C14.4573 7.60668 14.4573 8.39332 13.9616 8.8785L7.93078 14.7817C7.63338 15.0728 7.15119 15.0728 6.85379 14.7817L6.55639 14.4906C6.25898 14.1994 6.25898 13.7275 6.55639 13.4364L11.0887 9H2.5C2.22386 9 2 8.77614 2 8.5V7.5C2 7.22386 2.22386 7 2.5 7H11.0887L6.55639 2.56364C6.25898 2.27253 6.25898 1.80055 6.55639 1.50944Z" />
</svg>
