<svg width="16" height="16" viewBox="0 0 16 16" data-path-count="2" xmlns="http://www.w3.org/2000/svg">
<path data-path-style="onLight" fill-rule="evenodd" clip-rule="evenodd" d="M3 2C3 0.895432 3.89543 0 5 0H11C12.1046 0 13 0.89543 13 2V3.99999H3V2ZM0 6.99996C0 5.89539 0.895431 4.99996 2 4.99996H14C15.1046 4.99996 16 5.89539 16 6.99996V10.9999C16 11.5522 15.5523 11.9999 15 11.9999H13V13.9999C13 15.1045 12.1046 15.9999 11 15.9999H5C3.89543 15.9999 3 15.1045 3 13.9999V11.9999H1C0.447715 11.9999 0 11.5522 0 10.9999V6.99996ZM11 9.99988H5V13.9999H11V9.99988ZM4 7.99997C4 8.55226 3.55228 8.99997 3 8.99997C2.44772 8.99997 2 8.55226 2 7.99997C2 7.44769 2.44772 6.99998 3 6.99998C3.55228 6.99998 4 7.44769 4 7.99997Z" />
<path data-path-style="onDark" fill-rule="evenodd" clip-rule="evenodd" d="M3 2C3 0.895432 3.89543 0 5 0H11C12.1046 0 13 0.89543 13 2V3.99999H3V2ZM2 4.99996C0.895431 4.99996 0 5.89539 0 6.99996V10.9999C0 11.5522 0.447715 11.9999 1 11.9999H3V8.99996H13V11.9999H15C15.5523 11.9999 16 11.5522 16 10.9999V6.99996C16 5.89539 15.1046 4.99996 14 4.99996H2ZM4 14V13V13V10H12V13V13V14C12 15.1045 11.1046 16 10 16H6C4.89543 16 4 15.1045 4 14ZM3 7C3 7.55228 2.55228 7.99999 2 7.99999C1.44772 7.99999 1 7.55228 1 7C1 6.44771 1.44772 6 2 6C2.55228 6 3 6.44771 3 7Z" />
</svg>
