<svg width="16" height="16" viewBox="0 0 16 16" data-path-count="1" xmlns="http://www.w3.org/2000/svg">
<path data-path-style="onLight" fill-rule="evenodd" clip-rule="evenodd" d="M7.50386 2.43547C7.81129 2.25979 8.18871 2.25979 8.49614 2.43547L13.4961 5.29261C13.8077 5.47065 14 5.802 14 6.16085V6.43402L9.65712 9.03975C9.49762 9.01359 9.33529 9.00021 9.17157 9.00021H6.82843C6.66471 9.00021 6.50238 9.01359 6.34288 9.03975L2 6.43402V6.16085C2 5.802 2.19229 5.47065 2.50386 5.29261L7.50386 2.43547ZM11.6128 10.1987L14 12.586V8.7664L11.6128 10.1987ZM2 8.7664L4.38725 10.1987L2 12.586V8.7664ZM3.41421 14.0002H12.5858L9.87868 11.2931C9.69114 11.1056 9.43679 11.0002 9.17157 11.0002H6.82843C6.56321 11.0002 6.30886 11.1056 6.12132 11.2931L3.41421 14.0002ZM9.48842 0.698982C8.56612 0.171954 7.43388 0.171954 6.51158 0.698982L1.51158 3.55612C0.576858 4.09025 0 5.08428 0 6.16085V14.0002C0 15.1048 0.89543 16.0002 2 16.0002H14C15.1046 16.0002 16 15.1048 16 14.0002V6.16085C16 5.08428 15.4231 4.09025 14.4884 3.55612L9.48842 0.698982Z" />
</svg>
