<svg width="16" height="16" data-path-count="1" viewBox="0 0 16 16" xmlns="http://www.w3.org/2000/svg">
<path data-path-style="onLight" fill-rule="evenodd" clip-rule="evenodd" d="M3 3C3 2.44772 3.44772 2 4 2H12C12.5523 2 13 2.44772 13 3V13C13 13.5523 12.5523 14 12 14H4C3.44772 14 3 13.5523 3 13V12C3 11.4477 2.55228 11 2 11C1.44772 11 1 11.4477 1 12V13C1 14.6569 2.34315 16 4 16H12C13.6569 16 15 14.6569 15 13V3C15 1.34315 13.6569 0 12 0H4C2.34315 0 1 1.34315 1 3V4C1 4.55228 1.44772 5 2 5C2.55228 5 3 4.55228 3 4V3ZM6.79289 4.79289C7.18342 4.40237 7.81658 4.40237 8.20711 4.79289L10.7071 7.29289C11.0976 7.68342 11.0976 8.31658 10.7071 8.70711L8.20711 11.2071C7.81658 11.5976 7.18342 11.5976 6.79289 11.2071C6.40237 10.8166 6.40237 10.1834 6.79289 9.79289L7.58579 9H1C0.447715 9 0 8.55229 0 8C0 7.44772 0.447715 7 1 7H7.58579L6.79289 6.20711C6.40237 5.81658 6.40237 5.18342 6.79289 4.79289Z" />
</svg>
