<svg width="16" height="16" viewBox="0 0 16 16" data-path-count="1" xmlns="http://www.w3.org/2000/svg">
<path data-path-style="onLight" d="M14 11C14.5128 11 14.9355 11.386 14.9933 11.8834L15 12V14C15 15.1046 14.1046 16 13 16H3C1.89543 16 1 15.1046 1 14V12L1.00673 11.8834C1.06449 11.386 1.48716 11 2 11C2.51284 11 2.93551 11.386 2.99327 11.8834L3 12V14H13V12L13.0067 11.8834C13.0601 11.4243 13.4243 11.0601 13.8834 11.0067L14 11ZM8 0C8.55228 0 9 0.447715 9 1V8.585L11.2929 6.29289C11.6534 5.93241 12.2206 5.90468 12.6129 6.2097L12.7071 6.29289C13.0676 6.65338 13.0953 7.22061 12.7903 7.6129L12.7071 7.70711L8.70711 11.7071C8.34662 12.0676 7.77939 12.0953 7.3871 11.7903L7.29289 11.7071L3.29289 7.70711C2.90237 7.31658 2.90237 6.68342 3.29289 6.29289C3.65338 5.93241 4.22061 5.90468 4.6129 6.2097L4.70711 6.29289L7 8.585V1C7 0.447715 7.44772 0 8 0Z" />
</svg>
