<svg xmlns="http://www.w3.org/2000/svg" width="16" height="16" viewBox="0 0 16 16">
  <path d="M6.5,-1.0658141e-14 C10.0898509,-1.0658141e-14 13,2.91014913 13,6.5 C13,7.75162893 12.646236,8.92063185 12.0332424,9.91247444 L15.3241636,13.2028432 C15.8750733,13.753753 15.9144132,14.6206529 15.4311404,15.2129017 L15.3275144,15.3275144 C14.741728,15.9133009 13.7942838,15.9156041 13.2028432,15.3241636 L9.91247444,12.0332424 C8.92063185,12.646236 7.75162893,13 6.5,13 C2.91014913,13 -1.42108547e-14,10.0898509 -1.42108547e-14,6.5 C-1.42108547e-14,2.91014913 2.91014913,-1.0658141e-14 6.5,-1.0658141e-14 Z M6.5,2 C4.01471863,2 2,4.01471863 2,6.5 C2,8.98528137 4.01471863,11 6.5,11 C8.98528137,11 11,8.98528137 11,6.5 C11,4.01471863 8.98528137,2 6.5,2 Z"/>
</svg>
