<svg width="16" height="16" viewBox="0 0 16 16" data-path-count="1" xmlns="http://www.w3.org/2000/svg">
<path data-path-style="onLight" fill-rule="evenodd" clip-rule="evenodd" d="M16 7.38936V8.61064C16 9.00733 15.6782 9.32911 15.2808 9.32911H15.0832C14.6227 9.32911 14.2211 9.62663 14.072 10.0622C13.9826 10.325 13.8758 10.5802 13.7537 10.8264C13.5477 11.2418 13.6192 11.7391 13.9472 12.0671L14.0887 12.2086C14.3689 12.4894 14.3689 12.9444 14.0887 13.2253L13.2253 14.0887C12.9444 14.3689 12.4894 14.3689 12.2086 14.0887L12.0567 13.9368C11.7307 13.6102 11.2356 13.5373 10.8209 13.7405C10.5774 13.8598 10.3257 13.9645 10.0663 14.0526C9.62871 14.201 9.32911 14.6033 9.32911 15.0651V15.2808C9.32911 15.6782 9.00733 16 8.61064 16H7.38936C6.99267 16 6.67089 15.6782 6.67089 15.2808V15.0436C6.67089 14.5845 6.37476 14.1837 5.94062 14.0332C5.68749 13.9458 5.44129 13.8425 5.20342 13.7246C4.78731 13.5186 4.29006 13.59 3.96203 13.9181L3.79143 14.0887C3.51055 14.3689 3.05561 14.3689 2.77474 14.0887L1.91201 13.2253C1.63114 12.9444 1.63114 12.4894 1.91201 12.2086L2.09232 12.0276C2.41897 11.7009 2.49109 11.2058 2.28789 10.791C2.17346 10.5559 2.07221 10.3132 1.98622 10.0635C1.83711 9.62733 1.43557 9.32911 0.974383 9.32911H0.719171C0.322483 9.32911 0 9.00733 0 8.61064V7.38936C0 6.99267 0.322483 6.67089 0.719171 6.67089H0.974383C1.43557 6.67089 1.83711 6.37268 1.98622 5.93646C2.07221 5.68679 2.17346 5.44406 2.28789 5.20896C2.49109 4.79424 2.41897 4.29908 2.09232 3.97243L1.91201 3.79143C1.63114 3.51055 1.63114 3.05561 1.91201 2.77474L2.77474 1.91201C3.05561 1.63114 3.51055 1.63114 3.79143 1.91201L3.96203 2.08192C4.29006 2.40995 4.78731 2.48138 5.20342 2.27541C5.44129 2.15751 5.68749 2.05418 5.94062 1.9668C6.37476 1.81631 6.67089 1.41546 6.67089 0.956352V0.719171C6.67089 0.321789 6.99267 0 7.38936 0H8.61064C9.00733 0 9.32911 0.321789 9.32911 0.719171V0.934853C9.32911 1.39673 9.62871 1.79897 10.0663 1.94738C10.3257 2.03546 10.5774 2.14018 10.8209 2.25946C11.2356 2.46266 11.7307 2.38984 12.0567 2.0632L12.2086 1.91201C12.4894 1.63114 12.9444 1.63114 13.2253 1.91201L14.0887 2.77474C14.3689 3.05561 14.3689 3.51055 14.0887 3.79143L13.9472 3.9329C13.6192 4.26093 13.5477 4.75818 13.7537 5.17359C13.8758 5.41979 13.9826 5.675 14.072 5.93784C14.2211 6.37337 14.6227 6.67089 15.0832 6.67089H15.2808C15.6782 6.67089 16 6.99267 16 7.38936ZM7.08479 4.10144C5.61468 4.42769 4.42785 5.61387 4.10161 7.08469C3.45449 10.0028 5.99731 12.545 8.91538 11.8986C10.3862 11.5723 11.5723 10.3855 11.8986 8.91531C12.545 5.99718 10.0029 3.45498 7.08479 4.10144Z" />
</svg>
