<svg width="16" height="16" viewBox="0 0 16 16" data-path-count="1" xmlns="http://www.w3.org/2000/svg">
<path data-path-style="onLight" fill-rule="evenodd" clip-rule="evenodd" d="M5.58297 0C5.00884 0 4.45822 0.228075 4.05224 0.63405L0.634051 4.05224C0.228075 4.45822 0 5.00884 0 5.58297V10.417C0 10.9912 0.228075 11.5418 0.63405 11.9478L4.05224 15.3659C4.45822 15.7719 5.00884 16 5.58297 16H10.417C10.9912 16 11.5418 15.7719 11.9478 15.3659L15.3659 11.9478C15.7719 11.5418 16 10.9912 16 10.417V5.58297C16 5.00884 15.7719 4.45822 15.3659 4.05224L11.9478 0.634051C11.5418 0.228075 10.9912 0 10.417 0H5.58297ZM12.5858 7C13.1381 7 13.5858 7.44772 13.5858 8C13.5858 8.55229 13.1381 9 12.5858 9H3.41421C2.86193 9 2.41421 8.55229 2.41421 8C2.41421 7.44772 2.86193 7 3.41421 7H12.5858Z" />
</svg>
