<svg width="16" height="16" viewBox="0 0 16 16" data-path-count="2" xmlns="http://www.w3.org/2000/svg">
<path data-path-style="onLight" fill-rule="evenodd" clip-rule="evenodd" d="M0 2C0 1.44772 0.447715 1 1 1H2H14H15C15.5523 1 16 1.44772 16 2V4H15V14C15 14.5523 14.5523 15 14 15H2C1.44772 15 1 14.5523 1 14V4H0V2ZM13 13V4H3V13H13ZM6 6C5.44772 6 5 6.44772 5 7C5 7.55228 5.44772 8 6 8H10C10.5523 8 11 7.55228 11 7C11 6.44772 10.5523 6 10 6H6Z" />
<path data-path-style="onDark" fill-rule="evenodd" clip-rule="evenodd" d="M1 1C0.447715 1 0 1.44772 0 2V3H16V2C16 1.44772 15.5523 1 15 1H14H2H1ZM15 4V14C15 14.5523 14.5523 15 14 15H2C1.44772 15 1 14.5523 1 14V4H15ZM5 7C5 6.44772 5.44772 6 6 6H10C10.5523 6 11 6.44772 11 7C11 7.55228 10.5523 8 10 8H6C5.44772 8 5 7.55228 5 7Z" />
</svg>
