<svg width="16" height="16" viewBox="0 0 16 16" data-path-count="2" xmlns="http://www.w3.org/2000/svg">
<path data-path-style="onLight" fill-rule="evenodd" clip-rule="evenodd" d="M2 8C2 4.68629 4.68629 2 8 2C11.3137 2 14 4.68629 14 8C14 11.3137 11.3137 14 8 14C4.68629 14 2 11.3137 2 8ZM8 0C3.58172 0 0 3.58172 0 8C0 12.4183 3.58172 16 8 16C12.4183 16 16 12.4183 16 8C16 3.58172 12.4183 0 8 0ZM12 8C12 7.448 11.552 7 11 7H5C4.448 7 4 7.448 4 8C4 8.552 4.448 9 5 9H11C11.552 9 12 8.552 12 8Z" />
<path data-path-style="onDark" fill-rule="evenodd" clip-rule="evenodd" d="M16 8C16 12.4183 12.4183 16 8 16C3.58172 16 0 12.4183 0 8C0 3.58172 3.58172 0 8 0C12.4183 0 16 3.58172 16 8ZM12 8C12 7.448 11.552 7 11 7H5C4.448 7 4 7.448 4 8C4 8.552 4.448 9 5 9H11C11.552 9 12 8.552 12 8Z" />
</svg>
