<svg width="16" height="16" viewBox="0 0 16 16" data-path-count="1" xmlns="http://www.w3.org/2000/svg">
<path data-path-style="onLight" fill-rule="evenodd" clip-rule="evenodd" d="M3.0542 0H4.99999H7.0542H8.99999C9.55227 0 9.99999 0.447715 9.99999 1C9.99999 1.51284 9.61395 1.93551 9.11661 1.99327L8.99999 2H7.0542H4.99999H3.0542C2.54136 2 2.11869 2.38604 2.06093 2.88338L2.0542 3V13C2.0542 13.5128 2.44024 13.9355 2.93758 13.9933L3.0542 14H4.99999H7.0542H8.99999C9.55227 14 9.99999 14.4477 9.99999 15C9.99999 15.5128 9.61395 15.9355 9.11661 15.9933L8.99999 16H7.0542H4.99999H3.0542C1.39734 16 0.0541992 14.6569 0.0541992 13V3C0.0541992 1.34315 1.39734 0 3.0542 0ZM7.29289 4.29289C6.90237 4.68342 6.90237 5.31658 7.29289 5.70711L9.58579 8L7.29289 10.2929C6.90237 10.6834 6.90237 11.3166 7.29289 11.7071C7.68342 12.0976 8.31658 12.0976 8.70711 11.7071L11.7071 8.70711C12.0976 8.31658 12.0976 7.68342 11.7071 7.29289L8.70711 4.29289C8.31658 3.90237 7.68342 3.90237 7.29289 4.29289ZM11.2929 4.29289C10.9024 4.68342 10.9024 5.31658 11.2929 5.70711L13.5858 8L11.2929 10.2929C10.9024 10.6834 10.9024 11.3166 11.2929 11.7071C11.6834 12.0976 12.3166 12.0976 12.7071 11.7071L15.7071 8.70711C16.0976 8.31658 16.0976 7.68342 15.7071 7.29289L12.7071 4.29289C12.3166 3.90237 11.6834 3.90237 11.2929 4.29289Z" />
</svg>
