<svg width="16" height="16" viewBox="0 0 16 16" data-path-count="1" xmlns="http://www.w3.org/2000/svg">
<path data-path-style="onLight" fill-rule="evenodd" clip-rule="evenodd" d="M4.66822 5.50076C5.53425 4.00363 7.15048 3 8.99994 3C11.7614 3 13.9999 5.23858 13.9999 8C13.9999 10.7614 11.7614 13 8.99994 13C7.51955 13 6.19046 12.3579 5.27351 11.3338C4.90511 10.9224 4.2729 10.8875 3.86145 11.2559C3.44999 11.6243 3.41509 12.2565 3.7835 12.6679C5.06379 14.0978 6.92717 15 8.99994 15C12.8659 15 15.9999 11.866 15.9999 8C15.9999 4.13401 12.8659 1 8.99994 1C6.40768 1 4.14582 2.4096 2.937 4.49932C2.66046 4.97738 2.82383 5.58911 3.30189 5.86565C3.77996 6.14219 4.39168 5.97882 4.66822 5.50076ZM7.79289 4.79289C8.18342 4.40237 8.81658 4.40237 9.20711 4.79289L11.7071 7.29289C11.8852 7.47097 11.9821 7.69951 11.9977 7.93248C12.0022 7.99775 12.0002 8.06364 11.9917 8.12918C11.9673 8.31746 11.8893 8.50013 11.7578 8.65254C11.7399 8.67329 11.7213 8.69325 11.7018 8.71239L9.20711 11.2071C8.81658 11.5976 8.18342 11.5976 7.79289 11.2071C7.40237 10.8166 7.40237 10.1834 7.79289 9.79289L8.58579 9H1C0.447715 9 0 8.55228 0 8C0 7.44772 0.447715 7 1 7H8.58579L7.79289 6.20711C7.40237 5.81658 7.40237 5.18342 7.79289 4.79289Z" />
</svg>
