<svg width="16" height="16" viewBox="0 0 16 16" data-path-count="2" xmlns="http://www.w3.org/2000/svg">
<path data-path-style="onLight" fill-rule="evenodd" clip-rule="evenodd" d="M16 8C16 3.58172 12.4183 0 8 0C3.58172 0 0 3.58172 0 8C0 9.69851 0.529322 11.2734 1.43201 12.5687C2.02097 13.4138 1.41953 14.7621 0.467813 15C-0.268198 15.184 -0.000422895 16 0.5 16C1.89775 16 3.03181 15.7227 3.92595 15.3478C4.21811 15.2252 4.54857 15.2262 4.83957 15.3515C5.80904 15.7688 6.87752 16 8 16C12.4183 16 16 12.4183 16 8ZM8 2C11.3137 2 14 4.68629 14 8C14 11.3137 11.3137 14 8 14C4.68629 14 2 11.3137 2 8C2 4.68629 4.68629 2 8 2ZM8.35418 4.27122C8.1757 3.90959 7.66003 3.90959 7.48156 4.27122L6.53457 6.19006L4.41712 6.49773C4.01804 6.55571 3.85869 7.04615 4.14747 7.32764L5.67968 8.82117L5.31794 10.9301C5.24977 11.3276 5.66696 11.6307 6.02391 11.443L7.91787 10.4473L9.81183 11.443C10.1688 11.6307 10.586 11.3276 10.5178 10.9301L10.1561 8.82117L11.6883 7.32764C11.977 7.04615 11.8177 6.55571 11.4186 6.49773L9.30117 6.19006L8.35418 4.27122Z" />
<path data-path-style="onDark" fill-rule="evenodd" clip-rule="evenodd" d="M16 8C16 3.58172 12.4183 0 8 0C3.58172 0 0 3.58172 0 8C0 9.69851 0.529322 11.2734 1.43201 12.5687C2.02097 13.4138 1.41953 14.7621 0.467813 15C-0.268198 15.184 -0.000422895 16 0.5 16C1.89775 16 3.03181 15.7227 3.92595 15.3478C4.21811 15.2252 4.54857 15.2262 4.83957 15.3515C5.80904 15.7688 6.87752 16 8 16C12.4183 16 16 12.4183 16 8ZM8.38363 4.03724C8.19315 3.65128 7.64279 3.65128 7.45231 4.03724L6.44163 6.08514L4.18175 6.4135C3.75583 6.47539 3.58575 6.99881 3.89396 7.29924L5.52923 8.89323L5.14316 11.144C5.0704 11.5682 5.51566 11.8917 5.89662 11.6914L7.91797 10.6287L9.93932 11.6914C10.3203 11.8917 10.7655 11.5682 10.6928 11.144L10.3067 8.89323L11.942 7.29924C12.2502 6.99881 12.0801 6.47539 11.6542 6.4135L9.39431 6.08514L8.38363 4.03724Z" />
</svg>