<svg width="16" height="16" viewBox="0 0 16 16" data-path-count="2" xmlns="http://www.w3.org/2000/svg">
<path data-path-style="onLight" fill-rule="evenodd" clip-rule="evenodd" d="M5 2H2V10H4V12H1C0.447715 12 0 11.5523 0 11V1C0 0.447715 0.447715 0 1 0H5H6L7 1L8 2H7C6.23165 2 5.53076 2.28885 5 2.76389V2ZM8 6H11V7.9C11 8.50751 11.4925 9 12.1 9H14V14H8V6ZM16 9V8L15 7L13 5L12 4H11H7C6.44772 4 6 4.44771 6 5V15C6 15.5523 6.44772 16 7 16H15C15.5523 16 16 15.5523 16 15V9Z" />
<path data-path-style="onDark" d="M1 12H4V4C4 3.25972 4.4022 2.61337 5 2.26756V0H1C0.447715 0 0 0.447715 0 1V11C0 11.5523 0.447716 12 1 12Z M6 0L8 2H6V0Z M16 8.99991H13C11.8954 8.99991 11 8.10448 11 6.99991V4H7C6.44772 4 6 4.44771 6 5V15C6 15.5523 6.44772 16 7 16H15C15.5523 16 16 15.5523 16 15V8.99991Z M16 8L12 4V7C12 7.55228 12.4477 8 13 8H16Z" />
</svg>
