<svg width="16" height="16" viewBox="0 0 16 16" data-path-count="1" xmlns="http://www.w3.org/2000/svg">
<path data-path-style="onLight" fill-rule="evenodd" clip-rule="evenodd" d="M6.159 1.10843L0.244935 12.2794C-0.489535 13.6668 0.516178 15.3372 2.08594 15.3372H13.9141C15.4838 15.3372 16.4895 13.6668 15.7551 12.2794L9.841 1.10843C9.05858 -0.369475 6.94142 -0.36948 6.159 1.10843ZM6.95843 5.1743C6.95843 4.62201 7.40615 4.1743 7.95843 4.1743H8.04151C8.5938 4.1743 9.04151 4.62201 9.04151 5.1743V8.90684C9.04151 9.45912 8.5938 9.90684 8.04151 9.90684H7.95843C7.40615 9.90684 6.95843 9.45912 6.95843 8.90684V5.1743ZM7.95843 10.9443C7.40615 10.9443 6.95843 11.392 6.95843 11.9443V12.0274C6.95843 12.5797 7.40615 13.0274 7.95843 13.0274H8.04151C8.5938 13.0274 9.04151 12.5797 9.04151 12.0274V11.9443C9.04151 11.392 8.5938 10.9443 8.04151 10.9443H7.95843Z" />
</svg>
