<svg width="16" height="16" viewBox="0 0 16 16" data-path-count="1" xmlns="http://www.w3.org/2000/svg">
<path data-path-style="onLight" fill-rule="evenodd" clip-rule="evenodd" d="M13.7071 2.29289C13.3166 1.90237 12.6834 1.90237 12.2929 2.29289L8 6.58579L3.70711 2.29289L3.6129 2.2097C3.22061 1.90468 2.65338 1.93241 2.29289 2.29289C1.90237 2.68342 1.90237 3.31658 2.29289 3.70711L6.58579 8L2.29289 12.2929L2.2097 12.3871C1.90468 12.7794 1.93241 13.3466 2.29289 13.7071C2.68342 14.0976 3.31658 14.0976 3.70711 13.7071L8 9.41421L12.2929 13.7071L12.3871 13.7903C12.7794 14.0953 13.3466 14.0676 13.7071 13.7071C14.0976 13.3166 14.0976 12.6834 13.7071 12.2929L9.41421 8L13.7071 3.70711L13.7903 3.6129C14.0953 3.22061 14.0676 2.65338 13.7071 2.29289Z" />
</svg>
