<svg width="16" height="16" viewBox="0 0 16 16" data-path-count="2" xmlns="http://www.w3.org/2000/svg">
<path data-path-style="onLight" d="M7 7C7 6.58579 6.66421 6.25 6.25 6.25C5.83579 6.25 5.5 6.58579 5.5 7V12C5.5 12.4142 5.83579 12.75 6.25 12.75C6.66421 12.75 7 12.4142 7 12V7Z M10.5 7C10.5 6.58579 10.1642 6.25 9.75 6.25C9.33579 6.25 9 6.58579 9 7V12C9 12.4142 9.33579 12.75 9.75 12.75C10.1642 12.75 10.5 12.4142 10.5 12V7Z M12 3H14.5C15.0523 3 15.5 3.44772 15.5 4V5H14V13.5C14 14.8807 12.8807 16 11.5 16H4.5C3.11929 16 2 14.8807 2 13.5V5H0.5V4C0.5 3.44772 0.947715 3 1.5 3H4V2C4 0.89543 4.89543 0 6 0H10C11.1046 0 12 0.895431 12 2V3ZM10 2H6V3H10V2ZM4 6V13.5C4 13.7761 4.22386 14 4.5 14H11.5C11.7761 14 12 13.7761 12 13.5V6H4" />
<path data-path-style="onDark" fill-rule="evenodd" clip-rule="evenodd" d="M4 2V3H1.5C0.947715 3 0.5 3.44772 0.5 4V5H15.5V4C15.5 3.44772 15.0523 3 14.5 3H12V2C12 0.895431 11.1046 0 10 0H6C4.89543 0 4 0.89543 4 2ZM10 1.5H6C5.72386 1.5 5.5 1.72386 5.5 2V3H10.5V2C10.5 1.72386 10.2761 1.5 10 1.5Z M2 6H14V13.5C14 14.8807 12.8807 16 11.5 16H4.5C3.11929 16 2 14.8807 2 13.5V6ZM7 8C7 7.44772 6.55228 7 6 7C5.44772 7 5 7.44772 5 8V13C5 13.5523 5.44772 14 6 14C6.55228 14 7 13.5523 7 13V8ZM11 8C11 7.44772 10.5523 7 10 7C9.44772 7 9 7.44772 9 8V13C9 13.5523 9.44772 14 10 14C10.5523 14 11 13.5523 11 13V8Z" />
</svg>
