<svg width="16" height="16" viewBox="0 0 16 16" data-path-count="1" xmlns="http://www.w3.org/2000/svg">
<path data-path-style="onLight" fill-rule="evenodd" clip-rule="evenodd" d="M7.9458 5C7.9458 6.0919 7.36373 7.04887 6.49155 7.57366C6.46159 7.71107 6.4458 7.85372 6.4458 8C6.4458 8.46572 6.60583 8.89462 6.8739 9.2348C8.39098 9.57205 9.9458 10.2723 9.9458 11.3333V14H-0.0541992V11.3333C-0.0541992 10.2715 1.50274 9.57109 3.02081 9.23411C3.28718 8.89404 3.4458 8.4654 3.4458 8C3.4458 7.852 3.42976 7.70771 3.39931 7.56881C2.52863 7.04298 1.9458 6.08855 1.9458 5C1.9458 3.345 3.29305 2 4.95081 2C6.60857 2 7.9458 3.345 7.9458 5ZM13.9458 7C13.9458 7.59691 13.6849 8.13333 13.2704 8.5C13.2814 8.50976 13.2923 8.51964 13.3031 8.52964C13.0803 8.79135 12.9458 9.1302 12.9458 9.5C12.9458 9.71764 12.9924 9.92455 13.0762 10.1113C14.4021 10.3475 15.9458 10.9594 15.9458 11.9444V14H11.9458V11.3333C11.9458 10.2538 11.4715 9.37839 10.7182 8.70435C10.68 8.64329 10.6375 8.58517 10.5912 8.53042C10.6024 8.52015 10.6136 8.51001 10.625 8.5C10.2087 8.13333 9.9458 7.59691 9.9458 7C9.9458 5.89667 10.844 5 11.9491 5C13.0543 5 13.9458 5.89667 13.9458 7Z" />
</svg>
