<svg width="16" height="16" viewBox="0 0 16 16" data-path-count="1" xmlns="http://www.w3.org/2000/svg">
<path data-path-style="onLight" fill-rule="evenodd" clip-rule="evenodd" d="M15.7894 1.61399C16.1284 1.17804 16.0499 0.549764 15.6139 0.210694C15.178 -0.128376 14.5497 -0.0498418 14.2106 0.386105L7.96239 8.41958L5.75926 5.84925C5.39983 5.42993 4.76853 5.38137 4.34921 5.74079C3.92988 6.10021 3.88132 6.73151 4.24074 7.15084L7.24074 10.6508C7.43614 10.8788 7.72363 11.0069 8.02379 10.9998C8.32395 10.9926 8.60502 10.851 8.78935 10.614L15.7894 1.61399ZM4 1.00005H11.1994L9.64386 3.00005H4C3.44772 3.00005 3 3.44776 3 4.00005V12C3 12.5523 3.44772 13 4 13H12C12.5523 13 13 12.5523 13 12V8.45794L15 5.88651V12C15 13.6569 13.6569 15 12 15H4C2.34315 15 1 13.6569 1 12V4.00005C1 2.34319 2.34315 1.00005 4 1.00005Z" />
</svg>
