<svg width="16" height="16" viewBox="0 0 16 16" data-path-count="1" xmlns="http://www.w3.org/2000/svg">
<path data-path-style="onLight" d="M11 6C10.448 6 10 5.552 10 5C10 4.487 10.386 4.064 10.883 4.007L11 4H12.635C11.493 2.764 9.798 2 8 2C4.686 2 2 4.686 2 8C2 11.314 4.686 14 8 14C10.96 14 13.465 11.843 13.925 8.952C14.012 8.407 14.525 8.035 15.07 8.122C15.615 8.209 15.987 8.722 15.9 9.267C15.286 13.125 11.946 16 8 16C3.582 16 0 12.418 0 8C0 3.582 3.582 0 8 0C10.307 0 12.487 0.956 14.001 2.534L14 1C14 0.487 14.386 0.064 14.883 0.007L15 0C15.513 0 15.936 0.386 15.993 0.883L16 1V5C16 5.513 15.614 5.936 15.117 5.993L15 6H11Z" />
</svg>
