<svg width="16" height="16" viewBox="0 0 16 16" data-path-count="1" xmlns="http://www.w3.org/2000/svg">
<path data-path-style="onLight" fill-rule="evenodd" clip-rule="evenodd" d="M16 8C16 12.4183 12.4183 16 8 16C3.58172 16 0 12.4183 0 8C0 3.58172 3.58172 0 8 0C12.4183 0 16 3.58172 16 8ZM5.46447 4.05025C5.07394 3.65973 4.44078 3.65973 4.05025 4.05025C3.65973 4.44078 3.65973 5.07394 4.05025 5.46447L6.58579 8L4.05025 10.5355C3.65973 10.9261 3.65973 11.5592 4.05025 11.9497C4.44078 12.3403 5.07394 12.3403 5.46447 11.9497L8 9.41421L10.5355 11.9497C10.9261 12.3403 11.5592 12.3403 11.9497 11.9497C12.3403 11.5592 12.3403 10.9261 11.9497 10.5355L9.41421 8L11.9497 5.46447C12.3403 5.07394 12.3403 4.44078 11.9497 4.05025C11.5592 3.65973 10.9261 3.65973 10.5355 4.05025L8 6.58579L5.46447 4.05025Z" />
</svg>
