<svg width="16" height="16" viewBox="0 0 16 16" data-path-count="1" xmlns="http://www.w3.org/2000/svg">
<path data-path-style="onLight" fill-rule="evenodd" clip-rule="evenodd" d="M9.39238 7.95061C11.5879 7.95061 13.3677 6.1708 13.3677 3.9753C13.3677 1.7798 11.5879 0 9.39238 0C7.19688 0 5.41708 1.7798 5.41708 3.9753C5.41708 4.31422 5.45949 4.64323 5.5393 4.95732L1 9.49662V11.3907L1.967 12.3677H3.4862L3.48611 12.3677V10.6043H5.51368V8.84096H7.41138L8.41627 7.82988C8.72857 7.90872 9.05559 7.95061 9.39238 7.95061ZM10.469 3.86476C11.0027 3.86476 11.4353 3.43217 11.4353 2.89854C11.4353 2.36491 11.0027 1.93231 10.469 1.93231C9.9354 1.93231 9.50281 2.36491 9.50281 2.89854C9.50281 3.43217 9.9354 3.86476 10.469 3.86476ZM15 7.29631C15 6.42613 14.678 5.6271 14.1407 5C14.0645 7.40007 11.984 9.32358 9.42857 9.32358C9.2018 9.32358 8.97839 9.30837 8.75951 9.2789L7.84836 10.1409H6.52234V11.7596H4.55505V13.3782H3V14.1032L3.93825 15H5.41219V13.3814H7.37949V11.7627H9.20761L10.1901 10.8332C10.4948 10.9065 10.8141 10.9454 11.1429 10.9454C13.2731 10.9454 15 9.31163 15 7.29631Z" />
</svg>
