<svg width="16" height="16" viewBox="0 0 16 16" data-path-count="1" xmlns="http://www.w3.org/2000/svg">
<path data-path-style="onLight" fill-rule="evenodd" clip-rule="evenodd" d="M8.95895 2.29375C8.56843 2.68427 8.56843 3.31744 8.95895 3.70796C9.34948 4.09848 9.98264 4.09848 10.3732 3.70796L10.7071 3.37403C11.2371 2.84407 12.0963 2.84407 12.6262 3.37403C13.1562 3.90398 13.1562 4.76319 12.6262 5.29314L9.29289 8.62648C8.82954 9.08982 8.11236 9.14877 7.58584 8.80007C7.12538 8.49512 6.50489 8.62119 6.19994 9.08165C5.895 9.54211 6.02106 10.1626 6.48152 10.4675C7.78528 11.331 9.55801 11.1898 10.7071 10.0407L14.0404 6.70736C15.3514 5.39636 15.3514 3.27081 14.0404 1.95981C12.7294 0.648813 10.6039 0.648813 9.29289 1.95981L8.95895 2.29375ZM3.37378 12.6265C2.84383 12.0966 2.84383 11.2374 3.37378 10.7074L6.70711 7.37407C7.1706 6.91059 7.88806 6.85175 8.41462 7.20079C8.87496 7.50593 9.4955 7.38012 9.80064 6.91978C10.1058 6.45945 9.97997 5.83891 9.51963 5.53377C8.21577 4.66948 6.44233 4.81044 5.2929 5.95986L1.95957 9.29319C0.648569 10.6042 0.648569 12.7297 1.95957 14.0407C3.27057 15.3517 5.39612 15.3517 6.70711 14.0407L7.04045 13.7074C7.43097 13.3169 7.43097 12.6837 7.04045 12.2932C6.64992 11.9027 6.01676 11.9027 5.62623 12.2932L5.2929 12.6265C4.76295 13.1565 3.90373 13.1565 3.37378 12.6265Z" />
</svg>
