<svg width="32" height="32" viewBox="0 0 32 32" data-path-count="1" xmlns="http://www.w3.org/2000/svg">
<path fill-rule="evenodd" clip-rule="evenodd" data-path-style="onLight" d="M12 10C12 11.104 11.104 12 10 12H2L1.766 11.986C0.772001 11.872 0 11.026 0 10V2L0.0139999 1.766C0.128 0.772 0.974 0 2 0L2.234 0.014C3.228 0.128 4 0.974 4 2L3.998 5.068C7.026 1.912 11.386 0 16 0C24.836 0 32 7.164 32 16C32 24.836 24.836 32 16 32C8.108 32 1.428 26.25 0.200001 18.534C0.0260008 17.444 0.770001 16.418 1.86 16.244C2.95 16.07 3.976 16.814 4.15 17.904C5.07 23.686 10.08 28 16 28C22.628 28 28 22.628 28 16C28 9.372 22.628 4 16 4C12.404 4 9.014 5.528 6.73 8H10L10.234 8.014C11.228 8.128 12 8.974 12 10ZM10.3432 18.8285C9.56212 19.6095 9.56212 20.8758 10.3432 21.6569C11.1242 22.4379 12.3905 22.4379 13.1716 21.6569L21.6569 13.1716C22.4379 12.3906 22.4379 11.1242 21.6569 10.3432C20.8758 9.56213 19.6095 9.56213 18.8284 10.3432L10.3432 18.8285Z" />
</svg>
