<svg width="16" height="16" viewBox="0 0 16 16" data-path-count="1" xmlns="http://www.w3.org/2000/svg">
<path data-path-style="onLight" fill-rule="evenodd" clip-rule="evenodd" d="M10 2H6V4H10V2ZM4 2V4H3C1.89543 4 1 4.89543 1 6V13C1 14.1046 1.89543 15 3 15H13C14.1046 15 15 14.1046 15 13V6C15 4.89543 14.1046 4 13 4H12V2C12 0.895431 11.1046 0 10 0H6C4.89543 0 4 0.895431 4 2ZM7 7C7 6.44772 7.44772 6 8 6C8.55228 6 9 6.44772 9 7V8.5H10.5C11.0523 8.5 11.5 8.94772 11.5 9.5C11.5 10.0523 11.0523 10.5 10.5 10.5H9V12C9 12.5523 8.55228 13 8 13C7.44772 13 7 12.5523 7 12V10.5H5.5C4.94772 10.5 4.5 10.0523 4.5 9.5C4.5 8.94772 4.94772 8.5 5.5 8.5H7V7Z"/>
</svg>
