<svg width="16" height="16" viewBox="0 0 16 16" data-path-count="1" xmlns="http://www.w3.org/2000/svg">
<path data-path-style="onLight" fill-rule="evenodd" clip-rule="evenodd" d="M14.3175 4.55198C10.6737 1.14934 5.32631 1.14934 1.68251 4.55198C1.27886 4.92892 0.646062 4.90726 0.269124 4.5036C-0.107814 4.09995 -0.0861564 3.46716 0.317497 3.09022C4.72982 -1.03007 11.2702 -1.03007 15.6825 3.09022C16.0862 3.46716 16.1078 4.09995 15.7309 4.5036C15.3539 4.90726 14.7212 4.92892 14.3175 4.55198ZM11.8043 6.71837C9.62576 4.60863 6.37425 4.60863 4.19567 6.71837C3.79893 7.10257 3.16584 7.09241 2.78164 6.69567C2.39743 6.29892 2.4076 5.66584 2.80434 5.28163C5.75845 2.42087 10.2416 2.42087 13.1957 5.28163C13.5924 5.66584 13.6026 6.29892 13.2184 6.69567C12.8342 7.09241 12.2011 7.10257 11.8043 6.71837ZM4 11.9999C4 11.4476 4.44772 10.9999 5 10.9999V9.5C5 7.84315 6.34315 6.5 8 6.5C9.65686 6.5 11 7.84315 11 9.5V10.9999C11.5523 10.9999 12 11.4476 12 11.9999V14.9999C12 15.5522 11.5523 15.9999 11 15.9999H5C4.44772 15.9999 4 15.5522 4 14.9999V11.9999ZM9 10.9999V9.5C9 8.94772 8.55229 8.5 8 8.5C7.44772 8.5 7 8.94772 7 9.5V10.9999H9Z" />
</svg>
