<svg width="560" height="180" viewBox="0 0 560 180" fill="none" xmlns="http://www.w3.org/2000/svg">
<path opacity="0.8" d="M239.509 129.463C175.985 140.261 73.8424 126.218 81.9945 61.9588C92.8864 -23.8974 270.98 3.47204 354.176 24.4158C475.119 54.8625 489.502 110.171 419.707 113.554C349.911 116.938 303.032 118.664 239.509 129.463Z" fill="#DCEDFF"/>
<path d="M149.101 54.5625H411.491V162.442C411.491 167.965 407.014 172.442 401.491 172.442H159.101C153.578 172.442 149.101 167.965 149.101 162.442V54.5625Z" fill="#E3F1FF"/>
<path d="M149.025 49.3369H409.495V152.506C409.495 158.029 405.018 162.506 399.495 162.506H159.025C153.502 162.506 149.025 158.029 149.025 152.506V49.3369Z" fill="white"/>
<rect opacity="0.6" x="150.044" y="49.3369" width="260.471" height="11.6987" fill="#C2EAFF"/>
<path fill-rule="evenodd" clip-rule="evenodd" d="M410.416 49.9717V145.38C410.416 150.902 405.938 155.38 400.416 155.38H159.945C155.986 155.38 152.564 153.079 150.944 149.742V153.14C150.944 158.663 155.421 163.14 160.944 163.14H401.415C406.937 163.14 411.415 158.663 411.415 153.14V49.9717H410.416Z" fill="#0077FF" fill-opacity="0.24"/>
<path d="M150.044 49.9707H410.515V153.139C410.515 158.662 406.038 163.139 400.515 163.139H160.044C154.521 163.139 150.044 158.662 150.044 153.139V49.9707Z" stroke="#034EA6" stroke-width="2.5" stroke-miterlimit="10" stroke-linecap="round" stroke-linejoin="round"/>
<path d="M414.636 50.2178C414.636 50.2178 412.329 95.5619 423.668 133.952" stroke="#E3F1FF" stroke-width="2.5" stroke-miterlimit="10" stroke-linecap="round" stroke-linejoin="round"/>
<rect x="418.446" y="129.388" width="8.7208" height="20.4752" rx="4.3604" transform="rotate(-16.3064 418.446 129.388)" fill="#E3F1FF"/>
<path d="M416.415 50.0996C416.415 50.0996 419.369 95.4061 435.073 132.227" stroke="#034EA6" stroke-width="2.5" stroke-miterlimit="10" stroke-linecap="round" stroke-linejoin="round"/>
<rect x="429.358" y="128.298" width="8.7208" height="20.4752" rx="4.3604" transform="rotate(-22.9501 429.358 128.298)" fill="#034EA6"/>
<rect x="139.453" y="14.7041" width="281.652" height="36.1381" rx="6" fill="#C2EAFF" stroke="#034EA6" stroke-width="2.5" stroke-miterlimit="10" stroke-linecap="round" stroke-linejoin="round"/>
<rect x="421.919" y="21.8311" width="7.82934" height="21.8843" fill="#034EA6"/>
<rect x="132.438" y="20.8145" width="7.82934" height="21.8843" fill="#034EA6"/>
<path d="M150.944 101.843H409.495" stroke="#034EA6" stroke-width="2.5" stroke-miterlimit="10" stroke-linejoin="round"/>
<path d="M150.944 111.268H409.495" stroke="#034EA6" stroke-width="2.5" stroke-miterlimit="10" stroke-linejoin="round"/>
<path d="M280.233 78.5212C295.713 78.4871 308.295 91.0135 308.329 106.493C308.363 121.973 295.837 134.555 280.357 134.589C264.877 134.623 252.295 122.096 252.261 106.617C252.227 91.1372 264.725 78.5554 280.233 78.5212Z" fill="white" stroke="#034EA6" stroke-width="2.5" stroke-miterlimit="10" stroke-linecap="round" stroke-linejoin="round"/>
<path d="M280.249 85.7647C291.724 85.7394 301.061 95.0351 301.086 106.51C301.111 117.985 291.816 127.321 280.341 127.347C268.866 127.372 259.529 118.076 259.504 106.602C259.45 95.1268 268.746 85.7901 280.249 85.7647Z" stroke="#85BEFF" stroke-width="4" stroke-miterlimit="10" stroke-linecap="round" stroke-linejoin="round"/>
<path d="M283.022 94.3365L277.483 94.3487C276.801 94.3502 276.235 94.9479 276.18 95.7149L276.18 95.8001L276.192 101.594C276.193 101.822 276.279 102.02 276.393 102.191L276.45 102.247L277.275 103.154C277.589 103.523 277.618 104.062 277.335 104.461L277.278 104.518L276.457 105.428C276.315 105.599 276.23 105.798 276.202 106.025L276.202 106.111L276.227 117.33C276.229 118.097 276.77 118.721 277.452 118.776L277.537 118.776L283.076 118.764C283.757 118.762 284.324 118.164 284.379 117.397L284.379 117.312L284.367 111.944C284.367 111.717 284.281 111.49 284.167 111.319L284.11 111.263L283.284 110.356C282.971 109.987 282.941 109.447 283.225 109.049L283.281 108.992L284.103 108.082C284.245 107.911 284.329 107.712 284.357 107.484L284.357 107.399L284.331 95.7538C284.33 94.9869 283.732 94.3349 283.022 94.3365Z" fill="#034EA6"/>
<path fill-rule="evenodd" clip-rule="evenodd" d="M315.16 42.1259C316.584 42.1259 317.737 40.9723 317.737 39.5491C317.737 38.1263 316.584 36.9727 315.16 36.9727C313.738 36.9727 312.584 38.1263 312.584 39.5491C312.584 40.9723 313.738 42.1259 315.16 42.1259Z" fill="#034EA6"/>
<path fill-rule="evenodd" clip-rule="evenodd" d="M315.046 30.292C317.883 30.292 320.42 31.5814 322.111 33.6095C322.721 34.3412 322.422 35.406 321.598 35.8845V35.8845C320.751 36.3765 319.678 36.0478 318.967 35.3743C317.943 34.4045 316.564 33.8102 315.046 33.8102C313.551 33.8102 312.19 34.3876 311.17 35.333C310.457 35.9945 309.392 36.3133 308.551 35.8247V35.8247C307.72 35.3419 307.423 34.265 308.046 33.5334C309.736 31.5492 312.246 30.292 315.046 30.292Z" fill="#034EA6"/>
<path fill-rule="evenodd" clip-rule="evenodd" d="M315.138 23.4209C320.504 23.4209 325.26 26.0181 328.198 30.0152C328.793 30.8237 328.484 31.9416 327.613 32.4407V32.4407C326.742 32.9405 325.639 32.6275 325.019 31.8368C322.729 28.9164 319.155 27.0375 315.138 27.0375C311.15 27.0375 307.598 28.889 305.307 31.7732C304.684 32.5564 303.587 32.8637 302.719 32.3663V32.3663C301.844 31.8648 301.537 30.7395 302.14 29.9308C305.083 25.9813 309.809 23.4209 315.138 23.4209Z" fill="#034EA6"/>
<rect x="344.354" y="24.3301" width="22.8631" height="16.886" rx="3" fill="white" stroke="#034EA6" stroke-width="2.5" stroke-miterlimit="10" stroke-linecap="round" stroke-linejoin="round"/>
<rect x="346.861" y="26.4424" width="11.7149" height="12.6617" rx="3" fill="#85BEFF"/>
<path d="M372.222 27.6045V37.9419" stroke="#034EA6" stroke-width="2.5" stroke-miterlimit="10" stroke-linecap="round" stroke-linejoin="round"/>
<circle cx="156.409" cy="31.9079" r="5.46551" fill="#034EA6"/>
<circle cx="173.342" cy="31.9079" r="5.46551" fill="#85BEFF"/>
<path d="M402.045 28.3252L384.588 40.2494L402.045 40.2494V28.3252Z" fill="#034EA6"/>
<path d="M408.029 25.0459L384.281 40.5012H408.029V25.0459Z" stroke="#034EA6" stroke-width="2.5" stroke-miterlimit="10" stroke-linecap="round" stroke-linejoin="round"/>
</svg>
