<svg width="30" height="30" viewBox="0 0 30 30" fill="none" xmlns="http://www.w3.org/2000/svg">
<rect width="30" height="30" fill="#369FF5"/>
<path fill-rule="evenodd" clip-rule="evenodd" d="M17 6C17 5.44772 16.5523 5 16 5H14C13.4477 5 13 5.44772 13 6V6.42451C13 6.89153 12.6746 7.29066 12.2302 7.43426C11.7702 7.5829 11.3264 7.76756 10.9021 7.98492C10.4864 8.19786 9.97413 8.14569 9.64389 7.81545L9.34315 7.51471C8.95262 7.12419 8.31946 7.12419 7.92893 7.51471L6.51472 8.92893C6.12419 9.31945 6.12419 9.95261 6.51472 10.3431L6.81546 10.6439C7.1457 10.9741 7.19787 11.4864 6.98492 11.9021C6.76756 12.3264 6.5829 12.7702 6.43426 13.2302C6.29066 13.6746 5.89153 14 5.42451 14H5C4.44772 14 4 14.4477 4 15V17C4 17.5523 4.44772 18 5 18H5.42451C5.89153 18 6.29066 18.3254 6.43426 18.7698C6.5829 19.2298 6.76756 19.6736 6.98492 20.0979C7.19786 20.5136 7.14569 21.0259 6.81545 21.3561L6.51472 21.6568C6.12419 22.0474 6.12419 22.6805 6.51472 23.0711L7.92893 24.4853C8.31946 24.8758 8.95262 24.8758 9.34314 24.4853L9.64387 24.1845C9.97412 23.8543 10.4864 23.8021 10.9021 24.0151C11.3264 24.2324 11.7702 24.4171 12.2302 24.5657C12.6746 24.7093 13 25.1085 13 25.5755V26C13 26.5523 13.4477 27 14 27H16C16.5523 27 17 26.5523 17 26V25.5755C17 25.1085 17.3254 24.7093 17.7698 24.5657C18.2298 24.4171 18.6736 24.2324 19.0979 24.0151C19.5136 23.8021 20.0259 23.8543 20.3561 24.1845L20.6569 24.4853C21.0474 24.8758 21.6805 24.8758 22.0711 24.4853L23.4853 23.0711C23.8758 22.6805 23.8758 22.0474 23.4853 21.6568L23.1845 21.3561C22.8543 21.0259 22.8021 20.5136 23.0151 20.0979C23.2324 19.6736 23.4171 19.2298 23.5657 18.7698C23.7093 18.3254 24.1085 18 24.5755 18H25C25.5523 18 26 17.5523 26 17V15C26 14.4477 25.5523 14 25 14H24.5755C24.1085 14 23.7093 13.6746 23.5657 13.2302C23.4171 12.7702 23.2324 12.3264 23.0151 11.9021C22.8021 11.4864 22.8543 10.9741 23.1845 10.6439L23.4853 10.3431C23.8758 9.95261 23.8758 9.31945 23.4853 8.92892L22.0711 7.51471C21.6805 7.12418 21.0474 7.12418 20.6569 7.51471L20.3561 7.81545C20.0259 8.14569 19.5136 8.19786 19.0979 7.98492C18.6736 7.76756 18.2298 7.5829 17.7698 7.43426C17.3254 7.29066 17 6.89153 17 6.42451V6ZM15 21C17.7614 21 20 18.7614 20 16C20 13.2386 17.7614 11 15 11C12.2386 11 10 13.2386 10 16C10 18.7614 12.2386 21 15 21Z" fill="#186AEF"/>
<path fill-rule="evenodd" clip-rule="evenodd" d="M17 5C17 4.44772 16.5523 4 16 4H14C13.4477 4 13 4.44772 13 5V5.42451C13 5.89153 12.6746 6.29066 12.2302 6.43426C11.7702 6.5829 11.3264 6.76756 10.9021 6.98492C10.4864 7.19786 9.97413 7.14569 9.64389 6.81545L9.34315 6.51471C8.95262 6.12419 8.31946 6.12419 7.92893 6.51471L6.51472 7.92893C6.12419 8.31945 6.12419 8.95261 6.51472 9.34314L6.81546 9.64388C7.1457 9.97412 7.19787 10.4864 6.98492 10.9021C6.76756 11.3264 6.5829 11.7702 6.43426 12.2302C6.29066 12.6746 5.89153 13 5.42451 13H5C4.44772 13 4 13.4477 4 14V16C4 16.5523 4.44772 17 5 17H5.42451C5.89153 17 6.29066 17.3254 6.43426 17.7698C6.5829 18.2298 6.76756 18.6736 6.98492 19.0979C7.19786 19.5136 7.14569 20.0259 6.81545 20.3561L6.51472 20.6568C6.12419 21.0474 6.12419 21.6805 6.51472 22.0711L7.92893 23.4853C8.31946 23.8758 8.95262 23.8758 9.34314 23.4853L9.64387 23.1845C9.97412 22.8543 10.4864 22.8021 10.9021 23.0151C11.3264 23.2324 11.7702 23.4171 12.2302 23.5657C12.6746 23.7093 13 24.1085 13 24.5755V25C13 25.5523 13.4477 26 14 26H16C16.5523 26 17 25.5523 17 25V24.5755C17 24.1085 17.3254 23.7093 17.7698 23.5657C18.2298 23.4171 18.6736 23.2324 19.0979 23.0151C19.5136 22.8021 20.0259 22.8543 20.3561 23.1845L20.6569 23.4853C21.0474 23.8758 21.6805 23.8758 22.0711 23.4853L23.4853 22.0711C23.8758 21.6805 23.8758 21.0474 23.4853 20.6568L23.1845 20.3561C22.8543 20.0259 22.8021 19.5136 23.0151 19.0979C23.2324 18.6736 23.4171 18.2298 23.5657 17.7698C23.7093 17.3254 24.1085 17 24.5755 17H25C25.5523 17 26 16.5523 26 16V14C26 13.4477 25.5523 13 25 13H24.5755C24.1085 13 23.7093 12.6746 23.5657 12.2302C23.4171 11.7702 23.2324 11.3264 23.0151 10.9021C22.8021 10.4864 22.8543 9.97412 23.1845 9.64387L23.4853 9.34314C23.8758 8.95261 23.8758 8.31945 23.4853 7.92892L22.0711 6.51471C21.6805 6.12418 21.0474 6.12418 20.6569 6.51471L20.3561 6.81545C20.0259 7.14569 19.5136 7.19786 19.0979 6.98492C18.6736 6.76756 18.2298 6.5829 17.7698 6.43426C17.3254 6.29066 17 5.89153 17 5.42451V5ZM15 20C17.7614 20 20 17.7614 20 15C20 12.2386 17.7614 10 15 10C12.2386 10 10 12.2386 10 15C10 17.7614 12.2386 20 15 20Z" fill="#F1FAFF"/>
<path fill-rule="evenodd" clip-rule="evenodd" d="M21 15C20.4477 15 20.0105 14.5478 19.9013 14.0064C19.4405 11.721 17.4212 10 15 10C12.5788 10 10.5596 11.721 10.0988 14.0064C9.9896 14.5478 9.55232 15 9.00003 15V15C8.44775 15 7.99253 14.5497 8.0705 14.003C8.55445 10.6092 11.4725 8 15 8C18.5275 8 21.4456 10.6092 21.9296 14.003C22.0075 14.5497 21.5523 15 21 15V15Z" fill="#C2EAFF"/>
</svg>
