<svg width="30" height="30" viewBox="0 0 30 30" fill="none" xmlns="http://www.w3.org/2000/svg">
<rect width="30" height="30" fill="#F58E02"/>
<path fill-rule="evenodd" clip-rule="evenodd" d="M8 12C8 8.13401 11.134 5 15 5C18.866 5 22 8.13401 22 12V14.3333C22 14.7015 22.2985 15 22.6667 15V15C23.403 15 24 15.597 24 16.3333V24.6667C24 25.403 23.403 26 22.6667 26H7.33333C6.59695 26 6 25.403 6 24.6667V16.3333C6 15.597 6.59695 15 7.33333 15V15C7.70152 15 8 14.7015 8 14.3333V12ZM11 14C11 14.5523 11.4477 15 12 15H18C18.5523 15 19 14.5523 19 14V12C19 9.79086 17.2091 8 15 8C12.7909 8 11 9.79086 11 12V14ZM14 18.5C14 18.2239 14.2239 18 14.5 18H15.5C15.7761 18 16 18.2239 16 18.5V22.5C16 22.7761 15.7761 23 15.5 23H14.5C14.2239 23 14 22.7761 14 22.5V18.5Z" fill="#EF5001"/>
<path fill-rule="evenodd" clip-rule="evenodd" d="M15 4C11.134 4 8 7.13401 8 11V14H11V11C11 8.79086 12.7909 7 15 7C17.2091 7 19 8.79086 19 11V14H22V11C22 7.13401 18.866 4 15 4Z" fill="#FFFAEF"/>
<path fill-rule="evenodd" clip-rule="evenodd" d="M7.33333 14C6.59695 14 6 14.597 6 15.3333V23.6667C6 24.403 6.59695 25 7.33333 25H22.6667C23.403 25 24 24.403 24 23.6667V15.3333C24 14.597 23.403 14 22.6667 14H7.33333ZM14.5 17C14.2239 17 14 17.2239 14 17.5V21.5C14 21.7761 14.2239 22 14.5 22H15.5C15.7761 22 16 21.7761 16 21.5V17.5C16 17.2239 15.7761 17 15.5 17H14.5Z" fill="#FFFAEF"/>
<path opacity="0.5" fill-rule="evenodd" clip-rule="evenodd" d="M11 12H8V14H11V12ZM22 12H19V14H22V12Z" fill="#FFD480"/>
</svg>
