<svg width="30" height="30" viewBox="0 0 30 30" fill="none" xmlns="http://www.w3.org/2000/svg">
<rect width="30" height="30" fill="#656E76"/>
<rect x="4" y="9" width="22" height="14" rx="2" fill="#474D53"/>
<rect x="4" y="8" width="22" height="14" rx="2" fill="#F8F8F9"/>
<path fill-rule="evenodd" clip-rule="evenodd" d="M8 10.25C8 10.1119 7.88807 10 7.75 10H6.25C6.11193 10 6 10.1119 6 10.25V11.75C6 11.8881 6.11193 12 6.25 12H7.75C7.88807 12 8 11.8881 8 11.75V10.25ZM8 18.25C8 18.1119 7.88807 18 7.75 18H6.25C6.11193 18 6 18.1119 6 18.25V19.75C6 19.8881 6.11193 20 6.25 20H7.75C7.88807 20 8 19.8881 8 19.75V18.25ZM10 10.25C10 10.1119 10.1119 10 10.25 10H11.75C11.8881 10 12 10.1119 12 10.25V11.75C12 11.8881 11.8881 12 11.75 12H10.25C10.1119 12 10 11.8881 10 11.75V10.25ZM10 14.25C10 14.1119 9.88807 14 9.75 14H8.25C8.11193 14 8 14.1119 8 14.25V15.75C8 15.8881 8.11193 16 8.25 16H9.75C9.88807 16 10 15.8881 10 15.75V14.25ZM14 10.25C14 10.1119 14.1119 10 14.25 10H15.75C15.8881 10 16 10.1119 16 10.25V11.75C16 11.8881 15.8881 12 15.75 12H14.25C14.1119 12 14 11.8881 14 11.75V10.25ZM14 14.25C14 14.1119 13.8881 14 13.75 14H12.25C12.1119 14 12 14.1119 12 14.25V15.75C12 15.8881 12.1119 16 12.25 16H13.75C13.8881 16 14 15.8881 14 15.75V14.25ZM10 18.25C10 18.1119 10.1119 18 10.25 18H19.75C19.8881 18 20 18.1119 20 18.25V19.75C20 19.8881 19.8881 20 19.75 20H10.25C10.1119 20 10 19.8881 10 19.75V18.25ZM20 10.25C20 10.1119 19.8881 10 19.75 10H18.25C18.1119 10 18 10.1119 18 10.25V11.75C18 11.8881 18.1119 12 18.25 12H19.75C19.8881 12 20 11.8881 20 11.75V10.25ZM16 14.25C16 14.1119 16.1119 14 16.25 14H17.75C17.8881 14 18 14.1119 18 14.25V15.75C18 15.8881 17.8881 16 17.75 16H16.25C16.1119 16 16 15.8881 16 15.75V14.25ZM24 10.25C24 10.1119 23.8881 10 23.75 10H22.25C22.1119 10 22 10.1119 22 10.25V11.75C22 11.8881 22.1119 12 22.25 12H23.75C23.8881 12 24 11.8881 24 11.75V10.25ZM20 14.25C20 14.1119 20.1119 14 20.25 14H21.75C21.8881 14 22 14.1119 22 14.25V15.75C22 15.8881 21.8881 16 21.75 16H20.25C20.1119 16 20 15.8881 20 15.75V14.25ZM24 18.25C24 18.1119 23.8881 18 23.75 18H22.25C22.1119 18 22 18.1119 22 18.25V19.75C22 19.8881 22.1119 20 22.25 20H23.75C23.8881 20 24 19.8881 24 19.75V18.25Z" fill="#B9BDC2"/>
</svg>
