<svg width="30" height="30" viewBox="0 0 30 30" fill="none" xmlns="http://www.w3.org/2000/svg">
<rect width="30" height="30" fill="#369FF5"/>
<path fill-rule="evenodd" clip-rule="evenodd" d="M12.6191 5.26077C18.5502 3.94588 24.4243 7.68811 25.7392 13.6192C27.0542 19.5505 23.3119 25.4244 17.3808 26.7393C11.4497 28.0542 5.57566 24.3122 4.26072 18.3809C2.94583 12.4498 6.68806 6.57565 12.6191 5.26077ZM13.1027 7.44218C8.37642 8.48998 5.39433 13.1709 6.44213 17.8973C7.48997 22.6238 12.1709 25.6057 16.8972 24.5579C21.6235 23.5101 24.6057 18.8293 23.5578 14.1028C22.51 9.37647 17.8291 6.39438 13.1027 7.44218ZM13.5864 9.62359C17.1079 8.84288 20.5957 11.0648 21.3764 14.5864C22.1572 18.1081 19.9352 21.5957 16.4136 22.3765C12.892 23.1572 9.40429 20.9354 8.62354 17.4136C7.84283 13.8921 10.0648 10.4043 13.5864 9.62359ZM15.0243 11.2413L12.9668 11.6975C12.7104 11.7543 12.5503 12.024 12.5981 12.3088L12.6042 12.3405L13.0809 14.4907C13.1015 14.5698 13.1465 14.6445 13.2089 14.6979L13.2332 14.7168L13.6084 14.9853C13.7564 15.0912 13.8093 15.3 13.7342 15.464L13.7204 15.4909L13.4939 15.8928C13.4536 15.9642 13.4383 16.0499 13.4502 16.1347L13.4559 16.1664L14.3753 20.3292C14.4386 20.6148 14.6908 20.8038 14.9471 20.7641L14.9756 20.7587L17.0332 20.3026C17.2896 20.2457 17.4496 19.976 17.4019 19.6913L17.3957 19.6596L16.9551 17.6722C16.9364 17.5879 16.8917 17.5126 16.8293 17.4592L16.8051 17.4402L16.4299 17.1718C16.2818 17.0658 16.229 16.8571 16.3041 16.6931L16.3178 16.6662L16.5444 16.2643C16.5847 16.1928 16.5999 16.1071 16.5881 16.0224L16.5823 15.9907L15.6247 11.6709C15.559 11.3747 15.2902 11.1824 15.0243 11.2413Z" fill="#186AEF"/>
<path fill-rule="evenodd" clip-rule="evenodd" d="M12.6191 4.26077C18.5502 2.94588 24.4243 6.68811 25.7392 12.6192C27.0542 18.5505 23.3119 24.4244 17.3808 25.7393C11.4497 27.0542 5.57566 23.3122 4.26072 17.3809C2.94583 11.4498 6.68806 5.57565 12.6191 4.26077ZM13.1027 6.44218C8.37642 7.48998 5.39433 12.1709 6.44213 16.8973C7.48997 21.6238 12.1709 24.6057 16.8972 23.5579C21.6235 22.5101 24.6057 17.8293 23.5578 13.1028C22.51 8.37647 17.8291 5.39438 13.1027 6.44218ZM13.5864 8.62359C17.1079 7.84288 20.5957 10.0648 21.3764 13.5864C22.1572 17.1081 19.9352 20.5957 16.4136 21.3765C12.892 22.1572 9.40429 19.9354 8.62354 16.4136C7.84283 12.8921 10.0648 9.4043 13.5864 8.62359ZM15.0243 10.2413L12.9668 10.6975C12.7104 10.7543 12.5503 11.024 12.5981 11.3088L12.6042 11.3405L13.0809 13.4907C13.1015 13.5698 13.1465 13.6445 13.2089 13.6979L13.2332 13.7168L13.6084 13.9853C13.7564 14.0912 13.8093 14.3 13.7342 14.464L13.7204 14.4909L13.4939 14.8928C13.4536 14.9642 13.4383 15.0499 13.4502 15.1347L13.4559 15.1664L14.3753 19.3292C14.4386 19.6148 14.6908 19.8038 14.9471 19.7641L14.9756 19.7587L17.0332 19.3026C17.2896 19.2457 17.4496 18.976 17.4019 18.6913L17.3957 18.6596L16.9551 16.6722C16.9364 16.5879 16.8917 16.5126 16.8293 16.4592L16.8051 16.4402L16.4299 16.1718C16.2818 16.0658 16.229 15.8571 16.3041 15.6931L16.3178 15.6662L16.5444 15.2643C16.5847 15.1928 16.5999 15.1071 16.5881 15.0224L16.5823 14.9907L15.6247 10.6709C15.559 10.3747 15.2902 10.1824 15.0243 10.2413Z" fill="white"/>
</svg>
