<svg width="30" height="30" viewBox="0 0 30 30" fill="none" xmlns="http://www.w3.org/2000/svg">
<rect width="30" height="30" fill="#D44B52"/>
<path fill-rule="evenodd" clip-rule="evenodd" d="M11.9958 8.41746C11.9958 8.63181 11.8584 8.82078 11.659 8.89932C8.87568 9.99538 6.99583 12.6964 6.99582 15.7518L6.99581 19.4425C6.99581 20.6518 6.17307 21.7061 5 22C5 22.5523 5.44772 23 6 23H11.9958C11.9958 24.6569 13.339 26 14.9958 26C16.6527 26 17.9958 24.6569 17.9958 23H24C24.4174 23 24.7752 22.7442 24.9249 22.3808C25.0124 22.1686 24.8414 21.9656 24.6292 21.878C23.6525 21.4745 22.9958 20.5164 22.9958 19.4344L22.9958 15.7482C22.9958 12.6933 21.116 9.99287 18.3328 8.89762C18.1333 8.81911 17.9958 8.6301 17.9958 8.41571L17.9958 8C17.9958 6.34315 16.6527 5 14.9958 5C13.339 5 11.9958 6.34315 11.9958 8L11.9958 8.00242V8.41746ZM15.9958 8C15.9958 8.55228 15.5481 9 14.9958 9C14.4436 9 13.9958 8.55228 13.9958 8C13.9958 7.44772 14.4436 7 14.9958 7C15.5481 7 15.9958 7.44772 15.9958 8Z" fill="#BC2225"/>
<path fill-rule="evenodd" clip-rule="evenodd" d="M14.9958 25C16.6527 25 17.9958 23.6569 17.9958 22C17.9958 20.3431 16.6527 19 14.9958 19C13.339 19 11.9958 20.3431 11.9958 22C11.9958 23.6569 13.339 25 14.9958 25Z" fill="#FFF9F9"/>
<path fill-rule="evenodd" clip-rule="evenodd" d="M12.7598 24H17.232C17.707 23.4692 17.9959 22.7684 17.9959 22C17.9959 20.3431 16.6527 19 14.9959 19C13.393 19 12.0837 20.257 12.0001 21.8391V22.1609C12.0374 22.866 12.3181 23.5065 12.7598 24Z" fill="#FFDBDB"/>
<path fill-rule="evenodd" clip-rule="evenodd" d="M11.659 7.89932C11.8584 7.82078 11.9958 7.63181 11.9958 7.41746V7.00242L11.9958 7C11.9958 5.34315 13.339 4 14.9958 4C16.6527 4 17.9958 5.34315 17.9958 7V7.41571C17.9958 7.63011 18.1333 7.81911 18.3328 7.89762C21.116 8.99288 22.9958 11.6933 22.9958 14.7482L22.9958 18.4344C22.9958 19.6482 23.8222 20.7062 25 21L25 21C25 21.5523 24.5523 22 24 22H6C5.44772 22 5 21.5523 5 21C6.17307 20.7061 6.99581 19.6518 6.99581 18.4425L6.99582 14.7518C6.99583 11.6964 8.87568 8.99538 11.659 7.89932ZM14.9958 8C15.5481 8 15.9958 7.55228 15.9958 7C15.9958 6.44772 15.5481 6 14.9958 6C14.4436 6 13.9958 6.44772 13.9958 7C13.9958 7.55228 14.4436 8 14.9958 8Z" fill="#FFF9F9"/>
<path opacity="0.65" fill-rule="evenodd" clip-rule="evenodd" d="M18.9958 19.3779L18.9958 12.743C18.9958 11.4763 18.6982 10.2657 18.162 9.18677C18.1142 9.09043 18.2274 8.99298 18.3104 9.06135C19.9694 10.427 20.9958 12.4908 20.9958 14.7482L20.9958 18.4344C20.9958 19.3706 21.4874 20.214 22.2525 20.6857C22.3529 20.7476 22.304 21 22.186 21H20.0235C20.008 21 19.9927 20.9965 19.9789 20.9894C19.3758 20.6791 18.9958 20.0574 18.9958 19.3779Z" fill="#FFDBDB"/>
</svg>
