<svg width="30" height="30" viewBox="0 0 30 30" fill="none" xmlns="http://www.w3.org/2000/svg">
<rect width="30" height="30" fill="#66B03F"/>
<path fill-rule="evenodd" clip-rule="evenodd" d="M15 6C15 5.44772 14.5523 5 14 5V5C13.4477 5 13 5.44772 13 6V14.5C13 14.7761 12.7761 15 12.5 15V15C12.2239 15 12 14.7761 12 14.5V7C12 6.44772 11.5523 6 11 6V6C10.4477 6 10 6.44772 10 7V14.6396C10 14.8548 9.86228 15.0459 9.65811 15.114V15.114C9.33435 15.2219 9 14.9809 9 14.6396V10C9 9.44772 8.55228 9 8 9V9C7.44772 9 7 9.44772 7 10V16V19.0845C7 20.3379 7.34064 21.5677 7.9855 22.6425C9.23529 24.7255 11.4863 26 13.9155 26H14.2352C15.712 26 17.1557 25.5629 18.3844 24.7437L18.7707 24.4862C20.2098 23.5268 21.2609 22.0869 21.736 20.4238C21.9113 19.8106 22.1662 19.223 22.4943 18.6761L22.5725 18.5459C23.0314 17.781 23.6137 17.0998 24.2939 16.5291C24.6802 16.2049 24.8443 15.6308 24.4446 15.3233C23.8005 14.8278 22.8874 14.7783 22.2161 15.3466C21.9674 15.5571 21.7214 15.7786 21.5 16C21.1948 16.3052 20.9361 16.7968 20.724 17.3326C20.3306 18.3264 18.9386 18.6732 18.2708 17.8385C18.0955 17.6194 18 17.3471 18 17.0665V15V7C18 6.44772 17.5523 6 17 6V6C16.4477 6 16 6.44772 16 7V14.5C16 14.7761 15.7761 15 15.5 15V15C15.2239 15 15 14.7761 15 14.5V6Z" fill="#2E851C"/>
<path fill-rule="evenodd" clip-rule="evenodd" d="M15 5C15 4.44772 14.5523 4 14 4V4C13.4477 4 13 4.44772 13 5V13.5C13 13.7761 12.7761 14 12.5 14V14C12.2239 14 12 13.7761 12 13.5V6C12 5.44772 11.5523 5 11 5V5C10.4477 5 10 5.44772 10 6V13.6396C10 13.8548 9.86228 14.0459 9.65811 14.114V14.114C9.33435 14.2219 9 13.9809 9 13.6396V9C9 8.44772 8.55228 8 8 8V8C7.44772 8 7 8.44772 7 9V15V18.0845C7 19.3379 7.34064 20.5677 7.9855 21.6425C9.23529 23.7255 11.4863 25 13.9155 25H14.2352C15.712 25 17.1557 24.5629 18.3844 23.7437L18.7707 23.4862C20.2098 22.5268 21.2609 21.0869 21.736 19.4238C21.9113 18.8106 22.1662 18.223 22.4943 17.6761L22.5725 17.5459C23.0314 16.781 23.6137 16.0998 24.2939 15.5291C24.6802 15.2049 24.8443 14.6308 24.4446 14.3233C23.8005 13.8278 22.8874 13.7783 22.2161 14.3466C21.9674 14.5571 21.7214 14.7786 21.5 15C21.1948 15.3052 20.9361 15.7968 20.724 16.3326C20.3306 17.3264 18.9386 17.6732 18.2708 16.8385C18.0955 16.6194 18 16.3471 18 16.0665V14V6C18 5.44772 17.5523 5 17 5V5C16.4477 5 16 5.44772 16 6V13.5C16 13.7761 15.7761 14 15.5 14V14C15.2239 14 15 13.7761 15 13.5V5Z" fill="#F6FFEC"/>
<path opacity="0.65" fill-rule="evenodd" clip-rule="evenodd" d="M13.0392 21.181C13.0134 21.04 13 20.8961 13 20.75C13 18.9551 15.0147 17.5 17.5 17.5C17.8771 17.5 18.2434 17.5335 18.5935 17.5966C17.8951 17.2246 16.9895 17 16 17C13.7909 17 12 18.1193 12 19.5C12 20.1472 12.3935 20.737 13.0392 21.181Z" fill="#C1F380"/>
<path opacity="0.5" fill-rule="evenodd" clip-rule="evenodd" d="M19.9456 17.1521C20.8236 17.4435 21.5216 18.1296 21.8292 19.0001H21.8712C22.0338 18.5394 22.2425 18.0958 22.4943 17.6762L22.5724 17.5459C22.7021 17.3297 22.8417 17.1202 22.9906 16.918C22.8368 16.9712 22.6718 17.0001 22.4999 17.0001C21.7383 17.0001 21.1093 16.4325 21.0128 15.6973C20.9084 15.8946 20.8122 16.1098 20.724 16.3326C20.5756 16.7073 20.2854 16.99 19.9456 17.1521Z" fill="#C1F380"/>
</svg>
