<svg width="30" height="30" viewBox="0 0 30 30" fill="none" xmlns="http://www.w3.org/2000/svg">
<path d="M0 0H30V30H0V0Z" fill="#21A5AD"/>
<path fill-rule="evenodd" clip-rule="evenodd" d="M5 10.5C5 10.091 5.054 9.696 5.156 9.32C5.326 8.695 6.098 8.598 6.556 9.055L8.793 11.293C9.184 11.683 9.817 11.683 10.207 11.293L10.293 11.207C10.683 10.816 10.683 10.183 10.293 9.793L8.056 7.555C7.598 7.098 7.695 6.326 8.32 6.156C8.696 6.054 9.092 6 9.5 6C11.985 6 14 8.015 14 10.5C14 10.91 13.945 11.307 13.843 11.684C13.719 12.137 13.827 12.643 14.198 12.932L15.447 13.903L20 10L20.5 8.5L23 6L25 8L22.5 10.5L21 11L17.286 15.333L23.709 20.329C25.191 21.482 25.328 23.672 24 25C22.673 26.327 20.482 26.191 19.329 24.709L15.366 19.613L15 19.979H14.021V20.979L9.414 25.586C8.633 26.367 7.367 26.367 6.586 25.586L5.414 24.414C4.633 23.633 4.633 22.367 5.414 21.586L10 17H11V15.979L11.862 15.117C11.566 14.812 11.103 14.729 10.684 14.843C10.307 14.945 9.91 15 9.5 15C7.015 15 5 12.985 5 10.5ZM23 23C23 23.552 22.552 24 22 24C21.448 24 21 23.552 21 23C21 22.448 21.448 22 22 22C22.552 22 23 22.448 23 23Z" fill="#0F7480"/>
<path fill-rule="evenodd" clip-rule="evenodd" d="M25 7L23 5L20.5 7.5L20 9L13.011 14.991L12 13.979L11 14.979V16H10L5.414 20.586C4.633 21.367 4.633 22.633 5.414 23.414L6.586 24.586C7.367 25.367 8.633 25.367 9.414 24.586L14.021 19.979V18.979H15L16 17.979L15.01 16.989L21 10L22.5 9.5L25 7Z" fill="#F3FEFF"/>
<path d="M12.854 19.354C13.049 19.158 13.049 18.842 12.854 18.646C12.658 18.451 12.342 18.451 12.146 18.646L12.854 19.354ZM8.14601 22.646C7.95101 22.842 7.95101 23.158 8.14601 23.354C8.34201 23.549 8.65801 23.549 8.85401 23.354L8.14601 22.646ZM12.146 18.646L8.14601 22.646L8.85401 23.354L12.854 19.354L12.146 18.646Z" fill="#29ADB5" fill-opacity="0.2"/>
<path d="M17 11.6L13 15L12 14L11 15V16H10.8L13.9 20.1L14 20V19H15L16 18L15 17L18.6 12.8L17 11.6Z" fill="#29ADB5" fill-opacity="0.25"/>
<path fill-rule="evenodd" clip-rule="evenodd" d="M5.156 8.32C5.054 8.696 5 9.091 5 9.5C5 11.985 7.015 14 9.5 14C9.91 14 10.307 13.945 10.684 13.843C11.138 13.719 11.643 13.827 11.932 14.198L19.329 23.709C20.482 25.191 22.673 25.327 24 24C25.328 22.672 25.191 20.482 23.709 19.329L14.198 11.932C13.827 11.643 13.719 11.137 13.843 10.684C13.945 10.307 14 9.91 14 9.5C14 7.015 11.985 5 9.5 5C9.092 5 8.696 5.054 8.32 5.156C7.695 5.326 7.598 6.098 8.056 6.555L10.293 8.793C10.683 9.183 10.683 9.816 10.293 10.207L10.207 10.293C9.817 10.683 9.184 10.683 8.793 10.293L6.556 8.055C6.098 7.598 5.326 7.695 5.156 8.32ZM22 23C22.552 23 23 22.552 23 22C23 21.448 22.552 21 22 21C21.448 21 21 21.448 21 22C21 22.552 21.448 23 22 23Z" fill="#F3FEFF"/>
</svg>
