<svg width="30" height="30" viewBox="0 0 30 30" fill="none" xmlns="http://www.w3.org/2000/svg">
<rect width="30" height="30" fill="#656E76"/>
<path d="M5 9C5 7.89543 5.89543 7 7 7H23C24.1046 7 25 7.89543 25 9V23C25 24.1046 24.1046 25 23 25H7C5.89543 25 5 24.1046 5 23V9Z" fill="#474D53"/>
<mask id="mask0" mask-type="alpha" maskUnits="userSpaceOnUse" x="4" y="6" width="22" height="18">
<path d="M4 8C4 6.89543 4.89543 6 6 6H24C25.1046 6 26 6.89543 26 8V23C26 23.5523 25.5523 24 25 24H5C4.44772 24 4 23.5523 4 23V8Z" fill="#F1FAFF"/>
</mask>
<g mask="url(#mask0)">
<path d="M5 8C5 6.89543 5.89543 6 7 6H23C24.1046 6 25 6.89543 25 8V23C25 23.5523 24.5523 24 24 24H6C5.44772 24 5 23.5523 5 23V8Z" fill="#F8F8F9"/>
<rect x="7" y="11" width="16" height="11" fill="#B9BDC2"/>
<path fill-rule="evenodd" clip-rule="evenodd" d="M20.6257 16.9746C19.1978 18.2171 17.2274 19.0001 15 19.0001C12.7725 19.0001 10.8021 18.2171 9.37422 16.9746C9.11206 17.1848 8.86193 17.4094 8.625 17.6471C10.2545 19.1006 12.5091 20.0001 15 20.0001C17.4908 20.0001 19.7454 19.1006 21.3749 17.6471C21.138 17.4094 20.8879 17.1848 20.6257 16.9746Z" fill="#F8F8F9"/>
<path d="M24 24H6" stroke="white"/>
<circle cx="15" cy="24" r="8.5" stroke="#F8F8F9"/>
<path d="M18.5 24C18.5 26.4321 18.0609 28.6099 17.3715 30.1609C17.0266 30.937 16.6288 31.5342 16.2123 31.9305C15.7984 32.3244 15.3896 32.5 15 32.5C14.6104 32.5 14.2016 32.3244 13.7877 31.9305C13.3712 31.5342 12.9734 30.937 12.6285 30.1609C11.9391 28.6099 11.5 26.4321 11.5 24C11.5 21.5679 11.9391 19.3901 12.6285 17.8391C12.9734 17.063 13.3712 16.4658 13.7877 16.0695C14.2016 15.6756 14.6104 15.5 15 15.5C15.3896 15.5 15.7984 15.6756 16.2123 16.0695C16.6288 16.4658 17.0266 17.063 17.3715 17.8391C18.0609 19.3901 18.5 21.5679 18.5 24Z" stroke="#F8F8F9"/>
<path fill-rule="evenodd" clip-rule="evenodd" d="M9 8.5C9 8.22386 8.77614 8 8.5 8H7.5C7.22386 8 7 8.22386 7 8.5V9.5C7 9.77614 7.22386 10 7.5 10H8.5C8.77614 10 9 9.77614 9 9.5V8.5ZM13 8.5C13 8.22386 12.7761 8 12.5 8H11.5C11.2239 8 11 8.22386 11 8.5V9.5C11 9.77614 11.2239 10 11.5 10H12.5C12.7761 10 13 9.77614 13 9.5V8.5Z" fill="#B9BDC2"/>
</g>
</svg>
