<svg width="181" height="180" viewBox="0 0 181 180" fill="none" xmlns="http://www.w3.org/2000/svg">
  <circle opacity="0.2" cx="90.9375" cy="90" r="90" fill="#FF842D"/>
  <path d="M128.812 65H115.062V51.25C115.062 50.625 114.438 50 113.812 50H111.312C110.531 50 110.062 50.625 110.062 51.25V65H96.3125C95.5312 65 95.0625 65.625 95.0625 66.25V68.75C95.0625 69.5312 95.5312 70 96.3125 70H110.062V83.75C110.062 84.5312 110.531 85 111.312 85H113.812C114.438 85 115.062 84.5312 115.062 83.75V70H128.812C129.438 70 130.062 69.5312 130.062 68.75V66.25C130.062 65.625 129.438 65 128.812 65ZM127.719 107.344L112.094 100.625L127.719 93.9062C128.969 93.4375 129.594 91.875 128.969 90.625C128.5 89.375 126.938 88.75 125.688 89.2188L90.375 104.375C90.0625 104.531 89.9062 104.531 89.5938 104.375L57.0938 90.4688L87.25 77.5C88.6562 76.875 89.125 75.4688 88.6562 74.0625C88.0312 72.8125 86.625 72.1875 85.2188 72.8125L52.25 86.875C50.8438 87.5 50.0625 88.9062 50.0625 90.4688C50.0625 92.0312 50.8438 93.4375 52.25 93.9062L67.875 100.625L52.25 107.344C50.8438 107.969 50.0625 109.375 50.0625 110.938C50.0625 112.5 50.8438 113.906 52.25 114.375L87.5625 129.531C88.3438 129.844 89.125 130.156 89.9062 130.156C90.8438 130.156 91.625 129.844 92.4062 129.531L127.719 114.375C129.125 113.906 129.906 112.5 129.906 110.938C130.062 109.375 129.125 107.969 127.719 107.344ZM90.375 124.844C90.0625 125 89.9062 125 89.5938 124.844L57.0938 110.938L74.4375 103.438L87.5625 109.062C88.3438 109.375 89.125 109.688 90.0625 109.688C90.8438 109.688 91.625 109.531 92.4062 109.062L105.688 103.438L122.875 110.938L90.375 124.844Z" fill="#FF842D"/>
</svg>
