<svg width="181" height="180" viewBox="0 0 181 180" fill="none" xmlns="http://www.w3.org/2000/svg">
  <circle opacity="0.2" cx="90.9375" cy="90" r="90" fill="#FF842D"/>
  <path d="M90.0625 115.625C91.7812 115.625 93.1875 114.219 93.1875 112.5V102.5C93.1875 100.781 91.7812 99.375 90.0625 99.375C88.3438 99.375 86.9375 100.781 86.9375 102.5V112.5C86.9375 114.219 88.3438 115.625 90.0625 115.625ZM125.062 92.5C125.062 88.4375 121.625 85 117.562 85H115.062V75.3125C115.062 61.5625 103.812 50.1562 90.0625 50C76.3125 50 65.0625 61.25 65.0625 75V85H62.5625C58.3438 85 55.0625 88.4375 55.0625 92.5V122.5C55.0625 126.719 58.3438 130 62.5625 130H117.562C121.625 130 125.062 126.719 125.062 122.5V92.5ZM70.0625 85V75C70.0625 64.0625 78.9688 55 90.0625 55C101 55 110.062 64.0625 110.062 75V85H70.0625ZM120.062 122.5C120.062 123.906 118.812 125 117.562 125H62.5625C61.1562 125 60.0625 123.906 60.0625 122.5V92.5C60.0625 91.25 61.1562 90 62.5625 90H117.562C118.812 90 120.062 91.25 120.062 92.5V122.5Z" fill="#FF842D"/>
</svg>
