<svg width="251" height="205" viewBox="0 0 251 205" fill="none" xmlns="http://www.w3.org/2000/svg">
  <g opacity="0.7">
    <path d="M111.409 96.4734L47.2365 133.526C44.8491 134.904 41.3855 133.416 39.5397 130.219L4.18952 68.9864C2.34371 65.7892 2.78688 62.0454 5.17434 60.6668L69.3465 23.6144C71.734 22.2359 75.1976 23.724 77.0434 26.9212L112.394 88.1539C114.239 91.3511 113.796 95.0949 111.409 96.4734Z" fill="url(#paint0_linear)" fill-opacity="0.7"/>
    <path d="M204.43 133.526L140.258 96.4735C137.871 95.095 137.428 91.3512 139.273 88.1539L174.623 26.9213C176.469 23.724 179.933 22.2359 182.32 23.6144L246.493 60.6669C248.88 62.0454 249.323 65.7892 247.477 68.9865L212.127 130.219C210.281 133.416 206.818 134.904 204.43 133.526Z" fill="url(#paint1_linear)"/>
    <path d="M162.398 104.397H87.5576C84.7732 104.397 82.4951 100.682 82.4951 96.1407V9.17311C82.4951 4.63208 84.7732 0.916687 87.5576 0.916687L162.398 0.916687C165.183 0.916687 167.461 4.63208 167.461 9.17311V96.1407C167.461 100.682 165.183 104.397 162.398 104.397Z" fill="url(#paint2_linear)"/>
  </g>
  <path d="M50.4678 75.3571L57.1615 86.9518C57.672 87.836 58.9557 87.811 59.4277 86.8968L65.1903 75.8398C65.6321 75.0027 65.0506 73.9954 64.0983 73.9484L51.6485 73.4219C50.6209 73.3736 49.9574 74.473 50.4678 75.3571Z" fill="white" fill-opacity="0.6"/>
  <rect x="7.48877" y="63.1835" width="4" height="3.75" rx="1" transform="rotate(-30 7.48877 63.1835)" fill="white" fill-opacity="0.4"/>
  <rect x="13.5508" y="59.6833" width="4" height="3.75" rx="1" transform="rotate(-30 13.5508 59.6833)" fill="white" fill-opacity="0.4"/>
  <rect x="19.6133" y="56.183" width="4" height="3.75" rx="1" transform="rotate(-30 19.6133 56.183)" fill="white" fill-opacity="0.4"/>
  <rect x="25.6753" y="52.6828" width="4" height="3.75" rx="1" transform="rotate(-30 25.6753 52.6828)" fill="white" fill-opacity="0.4"/>
  <rect x="31.7373" y="49.1826" width="4" height="3.75" rx="1" transform="rotate(-30 31.7373 49.1826)" fill="white" fill-opacity="0.4"/>
  <rect x="37.7998" y="45.6823" width="4" height="3.75" rx="1" transform="rotate(-30 37.7998 45.6823)" fill="white" fill-opacity="0.4"/>
  <rect x="43.8618" y="42.1821" width="4" height="3.75" rx="1" transform="rotate(-30 43.8618 42.1821)" fill="white" fill-opacity="0.4"/>
  <rect x="49.9238" y="38.6818" width="4" height="3.75" rx="1" transform="rotate(-30 49.9238 38.6818)" fill="white" fill-opacity="0.4"/>
  <rect x="55.9863" y="35.1816" width="4" height="3.75" rx="1" transform="rotate(-30 55.9863 35.1816)" fill="white" fill-opacity="0.4"/>
  <rect x="62.0483" y="31.6813" width="4" height="3.75" rx="1" transform="rotate(-30 62.0483 31.6813)" fill="white" fill-opacity="0.4"/>
  <rect x="68.1104" y="28.181" width="4" height="3.75" rx="1" transform="rotate(-30 68.1104 28.181)" fill="white" fill-opacity="0.4"/>
  <rect x="74.1729" y="24.6808" width="4" height="3.75" rx="1" transform="rotate(-30 74.1729 24.6808)" fill="white" fill-opacity="0.4"/>
  <rect x="80.2349" y="21.1805" width="4" height="3.75" rx="1" transform="rotate(-30 80.2349 21.1805)" fill="white" fill-opacity="0.4"/>
  <rect x="43.6621" y="127.964" width="4" height="3.75" rx="1" transform="rotate(-30 43.6621 127.964)" fill="white" fill-opacity="0.4"/>
  <rect x="49.7241" y="124.464" width="4" height="3.75" rx="1" transform="rotate(-30 49.7241 124.464)" fill="white" fill-opacity="0.4"/>
  <rect x="55.7866" y="120.964" width="4" height="3.75" rx="1" transform="rotate(-30 55.7866 120.964)" fill="white" fill-opacity="0.4"/>
  <rect x="61.8486" y="117.463" width="4" height="3.75" rx="1" transform="rotate(-30 61.8486 117.463)" fill="white" fill-opacity="0.4"/>
  <rect x="67.9106" y="113.963" width="4" height="3.75" rx="1" transform="rotate(-30 67.9106 113.963)" fill="white" fill-opacity="0.4"/>
  <rect x="73.9731" y="110.463" width="4" height="3.75" rx="1" transform="rotate(-30 73.9731 110.463)" fill="white" fill-opacity="0.4"/>
  <rect x="80.0352" y="106.963" width="4" height="3.75" rx="1" transform="rotate(-30 80.0352 106.963)" fill="white" fill-opacity="0.4"/>
  <rect x="86.0972" y="103.462" width="4" height="3.75" rx="1" transform="rotate(-30 86.0972 103.462)" fill="white" fill-opacity="0.4"/>
  <rect x="92.1597" y="99.962" width="4" height="3.75" rx="1" transform="rotate(-30 92.1597 99.962)" fill="white" fill-opacity="0.4"/>
  <rect x="98.2217" y="96.4617" width="4" height="3.75" rx="1" transform="rotate(-30 98.2217 96.4617)" fill="white" fill-opacity="0.4"/>
  <rect x="104.284" y="92.9615" width="4" height="3.75" rx="1" transform="rotate(-30 104.284 92.9615)" fill="white" fill-opacity="0.4"/>
  <rect x="110.346" y="89.4612" width="4" height="3.75" rx="1" transform="rotate(-30 110.346 89.4612)" fill="white" fill-opacity="0.4"/>
  <rect x="116.408" y="85.961" width="4" height="3.75" rx="1" transform="rotate(-30 116.408 85.961)" fill="white" fill-opacity="0.4"/>
  <path d="M157.952 65.6968H92.0035C89.5499 65.6968 87.5425 63.5521 87.5425 60.9309V10.7301C87.5425 8.10883 89.5499 5.96417 92.0035 5.96417L157.952 5.96417C160.406 5.96417 162.413 8.10883 162.413 10.7301V60.9309C162.413 63.5521 160.406 65.6968 157.952 65.6968Z" fill="url(#paint3_linear)" fill-opacity="0.7"/>
  <path fill-rule="evenodd" clip-rule="evenodd" d="M143.809 43.612C142.695 42.2612 140.656 42.1748 139.432 43.4266L126.571 56.5809C124.771 58.4218 121.931 58.7578 119.751 57.3876L110.28 51.4342C109.273 50.8007 107.983 50.8363 107.012 51.5243L89.1135 64.203L87.6548 62.1434L105.553 49.4647C107.356 48.187 109.752 48.121 111.623 49.2973L121.094 55.2508C122.268 55.9885 123.797 55.8076 124.766 54.8164L137.627 41.6621C139.9 39.3373 143.687 39.4976 145.756 42.0063L162.276 62.1004C162.276 62.1004 162.12 62.7657 161.89 63.1765C161.464 63.9371 161.014 64.3912 161.014 64.3912L143.809 43.612Z" fill="white" fill-opacity="0.7"/>
  <ellipse cx="193.376" cy="78.5702" rx="24.3961" ry="24.3978" fill="url(#paint4_linear)" fill-opacity="0.7"/>
  <path d="M192.246 70.1878L185.552 81.7824C185.042 82.6666 185.705 83.766 186.733 83.7176L199.189 83.18C200.135 83.1442 200.717 82.1369 200.281 81.2886L194.512 70.2427C194.04 69.3286 192.756 69.3036 192.246 70.1878Z" fill="#B6B6B6"/>
  <path d="M149.047 28.84C149.261 28.84 149.434 29.0115 149.434 29.223C149.434 29.4344 149.261 29.6059 149.047 29.6059C148.833 29.6059 148.66 29.4344 148.66 29.223C148.66 29.0115 148.833 28.84 149.047 28.84ZM148.627 10.5487C148.816 10.5643 148.969 10.7077 148.994 10.8935L149.455 14.2393C149.609 15.3447 150.942 15.8236 151.765 15.0725L156.379 10.8732C156.49 10.7719 156.663 10.7789 156.766 10.8889C156.86 10.9898 156.863 11.1442 156.772 11.2484L152.749 15.8892C152.009 16.742 152.555 18.0737 153.684 18.1688L157.234 18.511C157.41 18.528 157.54 18.6835 157.523 18.8581C157.508 19.0022 157.397 19.1186 157.253 19.1412L153.523 19.7236C152.44 19.8712 151.95 21.1537 152.654 21.9868L153.965 23.5327C154.071 23.6573 154.054 23.8429 153.928 23.9472C153.821 24.0357 153.667 24.0391 153.556 23.9555L151.94 22.7347C151.067 22.0787 149.81 22.6362 149.718 23.722L149.362 27.9563C149.347 28.1311 149.192 28.2611 149.015 28.2466C148.864 28.2343 148.743 28.1205 148.723 27.9729L148.158 23.8827C148.006 22.7773 146.673 22.2984 145.847 23.0496L140.939 27.5186C140.838 27.6111 140.68 27.6047 140.586 27.5043C140.5 27.4122 140.497 27.2712 140.58 27.1761L144.863 22.2328C145.604 21.38 145.06 20.0483 143.931 19.9532L140.381 19.6109C140.204 19.5939 140.075 19.4385 140.092 19.2638C140.106 19.1197 140.217 19.0034 140.362 18.9808L144.089 18.3984C145.172 18.2508 145.666 16.9684 144.962 16.1352L144.069 15.0829C143.938 14.9284 143.959 14.6983 144.115 14.5689C144.247 14.4592 144.439 14.455 144.577 14.5587L145.673 15.3873C146.545 16.0434 147.802 15.4858 147.894 14.4001L148.189 10.9141C148.208 10.6939 148.404 10.5303 148.627 10.5487ZM139.184 18.8725C139.398 18.8725 139.572 19.0439 139.572 19.2554C139.572 19.4669 139.398 19.6383 139.184 19.6383C138.971 19.6383 138.797 19.4669 138.797 19.2554C138.797 19.0439 138.971 18.8725 139.184 18.8725ZM158.6 18.4837C158.814 18.4837 158.987 18.6551 158.987 18.8666C158.987 19.0781 158.814 19.2495 158.6 19.2495C158.386 19.2495 158.213 19.0781 158.213 18.8666C158.213 18.6551 158.386 18.4837 158.6 18.4837ZM148.571 9.3291C148.784 9.3291 148.958 9.50054 148.958 9.71202C148.958 9.92349 148.784 10.0949 148.571 10.0949C148.357 10.0949 148.184 9.92349 148.184 9.71202C148.184 9.50054 148.357 9.3291 148.571 9.3291Z" fill="url(#paint5_linear)"/>
  <line x1="87.4268" y1="69.4553" x2="161.036" y2="69.4553" stroke="white" stroke-opacity="0.2" stroke-width="3"/>
  <line x1="87.4268" y1="74.5031" x2="132.644" y2="74.5031" stroke="white" stroke-opacity="0.2" stroke-width="3"/>
  <g filter="url(#filter0_d)">
    <path d="M175.453 159.587H74.5033C69.8764 159.587 66.0908 155.801 66.0908 151.174V74.4467C66.0908 67.4639 71.7272 61.8271 78.7095 61.8271H96.1232C99.2358 61.8271 102.348 63.005 104.62 65.1082L116.734 76.2135C119.089 78.3167 122.118 79.4945 125.23 79.4945H177.135C180.836 79.4945 183.865 82.5232 183.865 86.225V151.174C183.865 155.801 180.079 159.587 175.453 159.587Z" fill="url(#paint6_linear)"/>
  </g>
  <defs>
    <filter id="filter0_d" x="36.0908" y="46.8271" width="177.774" height="157.76" filterUnits="userSpaceOnUse" color-interpolation-filters="sRGB">
      <feFlood flood-opacity="0" result="BackgroundImageFix"/>
      <feColorMatrix in="SourceAlpha" type="matrix" values="0 0 0 0 0 0 0 0 0 0 0 0 0 0 0 0 0 0 127 0"/>
      <feOffset dy="15"/>
      <feGaussianBlur stdDeviation="15"/>
      <feColorMatrix type="matrix" values="0 0 0 0 0 0 0 0 0 0 0 0 0 0 0 0 0 0 0.05 0"/>
      <feBlend mode="normal" in2="BackgroundImageFix" result="effect1_dropShadow"/>
      <feBlend mode="normal" in="SourceGraphic" in2="effect1_dropShadow" result="shape"/>
    </filter>
    <linearGradient id="paint0_linear" x1="37.2604" y1="42.1406" x2="79.3272" y2="114.997" gradientUnits="userSpaceOnUse">
      <stop stop-color="#808080"/>
      <stop offset="1" stop-color="#808080" stop-opacity="0.5"/>
    </linearGradient>
    <linearGradient id="paint1_linear" x1="214.406" y1="42.1406" x2="172.34" y2="114.997" gradientUnits="userSpaceOnUse">
      <stop stop-color="#808080"/>
      <stop offset="1" stop-color="#808080" stop-opacity="0.5"/>
    </linearGradient>
    <linearGradient id="paint2_linear" x1="123.179" y1="0.442006" x2="124.786" y2="109.139" gradientUnits="userSpaceOnUse">
      <stop stop-color="#8E8E8E"/>
      <stop offset="1" stop-color="#838383"/>
    </linearGradient>
    <linearGradient id="paint3_linear" x1="124.978" y1="5.96417" x2="124.978" y2="65.6968" gradientUnits="userSpaceOnUse">
      <stop stop-color="white" stop-opacity="0.7"/>
      <stop offset="1" stop-color="white" stop-opacity="0.3"/>
    </linearGradient>
    <linearGradient id="paint4_linear" x1="206.463" y1="56.8635" x2="178.278" y2="97.6648" gradientUnits="userSpaceOnUse">
      <stop stop-color="#FFFAFA" stop-opacity="0.7"/>
      <stop offset="1" stop-color="white" stop-opacity="0.3"/>
    </linearGradient>
    <linearGradient id="paint5_linear" x1="141.435" y1="12.5544" x2="153.014" y2="23.0356" gradientUnits="userSpaceOnUse">
      <stop stop-color="white"/>
      <stop offset="1" stop-color="white" stop-opacity="0.7"/>
    </linearGradient>
    <linearGradient id="paint6_linear" x1="124.978" y1="61.8271" x2="124.978" y2="159.587" gradientUnits="userSpaceOnUse">
      <stop stop-color="#959595"/>
      <stop offset="1" stop-color="#757575"/>
    </linearGradient>
  </defs>
</svg>
