<svg width="181" height="180" viewBox="0 0 181 180" fill="none" xmlns="http://www.w3.org/2000/svg">
  <circle opacity="0.2" cx="90.9375" cy="90" r="90" fill="#FF842D"/>
  <path d="M120.062 72.5C120.062 65.625 114.438 60 107.562 60C100.531 60 95.0625 65.625 95.0625 72.5C95.0625 78.75 99.4375 83.75 105.219 84.8438C105.062 87.5 104.438 89.6875 103.188 91.0938C100.531 94.5312 94.9062 95 89.125 95.625C84.5938 95.9375 80.0625 96.4062 76.4688 98.2812C76 98.4375 75.5312 98.75 75.0625 99.0625V74.8438C80.6875 73.5938 85.0625 68.5938 85.0625 62.5C85.0625 55.625 79.4375 50 72.5625 50C65.5312 50 60.0625 55.625 60.0625 62.5C60.0625 68.5938 64.2812 73.5938 70.0625 74.8438V105.312C64.2812 106.406 60.0625 111.562 60.0625 117.5C60.0625 124.531 65.5312 130 72.5625 130C79.4375 130 85.0625 124.531 85.0625 117.5C85.0625 111.875 81.1562 107.031 75.8438 105.469C76.625 104.062 77.7188 103.281 78.8125 102.656C81.4688 101.25 85.375 100.938 89.5938 100.625C96.1562 100 103.031 99.2188 107.094 94.2188C109.125 91.875 110.062 88.75 110.219 84.6875C115.844 83.4375 120.062 78.5938 120.062 72.5ZM65.0625 62.5C65.0625 58.4375 68.3438 55 72.5625 55C76.625 55 80.0625 58.4375 80.0625 62.5C80.0625 66.7188 76.625 70 72.5625 70C68.3438 70 65.0625 66.7188 65.0625 62.5ZM80.0625 117.5C80.0625 121.719 76.625 125 72.5625 125C68.3438 125 65.0625 121.719 65.0625 117.5C65.0625 113.438 68.3438 110.156 72.4062 110H72.5625C76.625 110.156 80.0625 113.438 80.0625 117.5ZM109.281 79.8438L107.562 80C103.344 80 100.062 76.7188 100.062 72.5C100.062 68.4375 103.344 65 107.562 65C111.625 65 115.062 68.4375 115.062 72.5C115.062 76.0938 112.562 79.0625 109.281 79.8438Z" fill="#FF842D"/>
</svg>
