<svg width="181" height="180" viewBox="0 0 181 180" fill="none" xmlns="http://www.w3.org/2000/svg">
  <circle opacity="0.2" cx="90.5" cy="90" r="90" fill="#FF842D"/>
  <path d="M114 50.7812L44 91.0938C40.4062 93.125 40.7188 98.4375 44.4688 100L66.5 109.062V125C66.5 129.844 72.2812 131.875 75.25 128.281L84.7812 116.719L104.469 124.844C107.438 126.094 110.875 124.219 111.344 120.938L121.344 55.7812C121.969 51.7188 117.594 48.5938 114 50.7812ZM71.5 125V111.25L79.9375 114.688L71.5 125ZM106.5 120.312L74.1562 106.875L105.406 70.1562C106.188 69.2188 104.938 67.9688 104 68.75L64.1562 102.812L46.5 95.4688L116.5 55L106.5 120.312Z" fill="#FF842D"/>
</svg>
