<svg width="181" height="180" viewBox="0 0 181 180" fill="none" xmlns="http://www.w3.org/2000/svg">
  <circle opacity="0.2" cx="90.9375" cy="90" r="90" fill="#FF842D"/>
  <path d="M112.562 90H75.0625V75C75.0625 64.0625 78.9688 55 90.0625 55C101 55 105.062 64.0625 105.062 75V78.125C105.062 79.2188 105.844 80 106.938 80H108.188C109.125 80 110.062 79.2188 110.062 78.125V75.3125C110.062 61.5625 103.812 50.1562 90.0625 50C76.3125 50 70.0625 61.25 70.0625 75V90H67.5625C63.3438 90 60.0625 93.4375 60.0625 97.5V122.5C60.0625 126.719 63.3438 130 67.5625 130H112.562C116.625 130 120.062 126.719 120.062 122.5V97.5C120.062 93.4375 116.625 90 112.562 90ZM115.062 122.5C115.062 123.906 113.812 125 112.562 125H67.5625C66.1562 125 65.0625 123.906 65.0625 122.5V97.5C65.0625 96.25 66.1562 95 67.5625 95H112.562C113.812 95 115.062 96.25 115.062 97.5V122.5ZM90.0625 117.5C91.3125 117.5 92.5625 116.406 92.5625 115V105C92.5625 103.75 91.3125 102.5 90.0625 102.5C88.6562 102.5 87.5625 103.75 87.5625 105V115C87.5625 116.406 88.6562 117.5 90.0625 117.5Z" fill="#FF842D"/>
</svg>
