<svg width="181" height="180" viewBox="0 0 181 180" fill="none" xmlns="http://www.w3.org/2000/svg">
  <circle opacity="0.2" cx="90.9375" cy="90" r="90" fill="#FF842D"/>
  <path d="M132.562 101.562L117.875 87.8125C117.406 87.3438 116.938 87.3438 116.469 87.8125L114.438 90C113.969 90.4688 114.125 91.0938 114.438 91.4062L123.656 100.156H105.688L100.688 110.156H79.2812L74.2812 100.156H56.3125L65.5312 91.4062C66 91.0938 66 90.4688 65.6875 90L63.5 87.8125C63.1875 87.3438 62.5625 87.3438 62.0938 87.8125L47.4062 101.562C45.8438 102.969 45.0625 105 45.0625 107.031V122.5C45.0625 126.719 48.3438 130 52.5625 130H127.562C131.625 130 135.062 126.719 135.062 122.5V107.031C135.062 105 134.125 102.969 132.562 101.562ZM130.062 122.5C130.062 123.906 128.812 125 127.562 125H52.5625C51.1562 125 50.0625 123.906 50.0625 122.5V107.5C50.0625 106.25 51.1562 105 52.5625 105H71.3125L76.3125 115H103.812L108.812 105H127.562C128.812 105 130.062 106.25 130.062 107.5V122.5ZM70.0625 80H80.0625V96.25C80.0625 98.4375 81.625 100 83.8125 100H96.3125C98.3438 100 100.062 98.4375 100.062 96.25V80H110.062C114.438 80 116.625 74.6875 113.5 71.5625L93.5 51.5625C91.625 49.5312 88.3438 49.5312 86.4688 51.5625L66.4688 71.5625C63.3438 74.6875 65.5312 80 70.0625 80ZM90.0625 55L110.062 75H95.0625V95H85.0625V75H70.0625L90.0625 55Z" fill="#FF842D"/>
</svg>
