<svg class="logo" width="39" height="40" viewBox="0 0 39 40" fill="none" xmlns="http://www.w3.org/2000/svg">
  <path fill-rule="evenodd" clip-rule="evenodd" d="M14.9107 0C14.8632 0 14.7169 0 14.6038 0.209661C14.4576 0.479226 3.1254 21.4332 0.937593 25.4796H5.94983L8.98876 19.609C9.11567 19.3644 9.35639 19.2282 9.60607 19.2239C9.60923 19.2236 9.61239 19.223 9.61559 19.2223C9.62009 19.2213 9.62469 19.2204 9.62952 19.2204H27.9873C27.7279 18.7533 27.3982 18.1592 26.9996 17.439L26.8973 17.2544C26.4022 16.3611 25.8493 15.3635 25.5443 14.8168L13.2078 14.8339H13.2071C13.2057 14.8339 13.2044 14.8332 13.203 14.8332L12.8878 14.8339H12.8871H12.8864C12.8861 14.8339 12.8859 14.8337 12.8857 14.8335C12.8855 14.8334 12.8854 14.8332 12.885 14.8332C12.8292 14.8332 12.776 14.8253 12.7243 14.8125C12.715 14.8103 12.7063 14.8073 12.6976 14.8044L12.6976 14.8044L12.6975 14.8044L12.6975 14.8044C12.692 14.8025 12.6865 14.8006 12.6809 14.799C12.6402 14.7861 12.6015 14.7697 12.565 14.7505C12.5611 14.7486 12.5573 14.7473 12.5535 14.746C12.5485 14.7443 12.5435 14.7426 12.5388 14.7398C12.5346 14.7373 12.531 14.7344 12.5274 14.7316L12.5274 14.7316C12.5238 14.7287 12.5202 14.7259 12.516 14.7234C12.4946 14.7098 12.4746 14.6948 12.4546 14.6784L12.4516 14.676C12.4347 14.6626 12.4185 14.6497 12.4029 14.6349C12.3895 14.6217 12.3771 14.6075 12.3648 14.5935L12.356 14.5836C12.3401 14.565 12.325 14.5472 12.3119 14.528C12.3005 14.5121 12.2911 14.4959 12.2815 14.4795L12.2753 14.4688C12.2636 14.4481 12.2525 14.4281 12.2429 14.4067C12.2341 14.3872 12.227 14.3665 12.2201 14.3462L12.2201 14.3462L12.2181 14.3404L12.2161 14.3346C12.2092 14.3138 12.2024 14.2935 12.1974 14.2719C12.1918 14.2498 12.1884 14.2277 12.1856 14.2056C12.1815 14.1792 12.1787 14.1529 12.1781 14.1258L12.1777 14.122L12.1768 14.1147C12.176 14.1094 12.1753 14.1042 12.1753 14.0987C12.1753 14.0939 12.1757 14.0894 12.1762 14.0849C12.1765 14.0824 12.1768 14.0799 12.1771 14.0775L12.1779 14.071C12.1783 14.0681 12.1786 14.0652 12.1787 14.0623C12.1794 14.0352 12.1822 14.0081 12.1863 13.9803C12.1898 13.9582 12.1946 13.9361 12.2001 13.914C12.2063 13.8904 12.2132 13.8676 12.2208 13.8441C12.2298 13.8198 12.2394 13.7963 12.2505 13.7735C12.2527 13.7685 12.2546 13.7636 12.2565 13.7588L12.2607 13.7481C12.2622 13.7446 12.2638 13.7412 12.2656 13.7378L19.7106 0.000713134L14.9107 0ZM30.5524 8.63195L32.9644 13.0477H38.0449C37.6717 12.4151 37.0192 11.3069 36.4737 10.3798L36.0256 9.61858L35.5639 8.83448C35.4956 8.71895 35.3501 8.63338 35.2253 8.63338L30.5524 8.63195ZM24.0128 40C24.0604 40 24.2073 40 24.3204 39.7911L37.9874 14.5197H32.9717L29.9334 20.3082C29.8555 20.4559 29.7334 20.56 29.5955 20.6234C29.5803 20.6306 29.5651 20.637 29.5493 20.6434C29.5196 20.6548 29.4899 20.6648 29.4596 20.6719C29.4203 20.6819 29.3789 20.6862 29.3375 20.6891C29.3329 20.6894 29.3284 20.6903 29.3239 20.6911C29.3184 20.6922 29.3129 20.6933 29.3072 20.6933L29.3052 20.693C29.3044 20.6928 29.3035 20.6926 29.3023 20.6926C29.3003 20.6926 29.2989 20.6933 29.2975 20.6933H10.866L13.3821 25.1832L26.0365 25.1661H26.0372C26.2896 25.1661 26.5227 25.3045 26.651 25.5298C26.7793 25.7552 26.7821 26.0333 26.6586 26.2615L19.2337 39.9986C19.9276 39.9986 21.0932 39.9993 22.1037 40H24.0128ZM17.9956 39.2685L17.3962 38.2516C16.6285 36.9458 15.645 35.2742 15.5339 35.0909C15.4967 35.0289 15.4795 34.8777 15.5574 34.7337C15.7353 34.4042 19.0957 28.1664 19.9144 26.646L24.8211 26.6396L17.9956 39.2685ZM7.19097 26.2061L9.62984 30.6718C10.1527 29.6627 11.3486 27.3436 12.1149 25.8567L9.64916 21.4573L7.19097 26.2061ZM6.35521 31.3671C5.45703 31.3671 4.56246 31.3667 4.06769 31.3665L3.6977 31.3664H3.69701C3.57562 31.3664 3.42871 31.2787 3.3618 31.166L2.56793 29.8175C2.00235 28.8562 1.2809 27.6303 0.880859 26.9521H5.96138L8.37266 31.3678L7.53603 31.3675C7.16609 31.3673 6.76086 31.3671 6.35521 31.3671ZM20.9375 0.747871L21.3831 1.50379C22.1659 2.8345 23.2715 4.71289 23.3888 4.90829C23.426 4.97034 23.4433 5.12081 23.3646 5.26557L19.0076 13.3532L14.103 13.3596L20.9375 0.747871ZM31.7332 13.7906L29.293 9.32285C28.8447 10.1658 27.9211 11.9088 27.2733 13.1311C27.0728 13.5095 26.8988 13.838 26.7734 14.0745C27.0541 14.5765 27.5521 15.4743 28.2349 16.7073C28.5805 17.3313 28.9488 17.996 29.2454 18.5294L31.7332 13.7906Z" fill="white" />
</svg>
